<svg width="1474" height="846" viewBox="0 0 1474 846" fill="none" xmlns="http://www.w3.org/2000/svg">
<g clip-path="url(#clip0_823:407)">
<rect width="1474" height="846" fill="white"/>
<rect x="16" y="18" width="700" height="700" fill="#F96A02" stroke="white" stroke-width="4"/>
<rect x="759" y="18" width="700" height="700" fill="white" stroke="#F96A02" stroke-width="4"/>
<line x1="718" y1="370" x2="14" y2="370" stroke="white" stroke-width="4"/>
<line x1="1461" y1="370" x2="757" y2="370" stroke="white" stroke-width="4"/>
<line x1="1113" y1="370" x2="757" y2="370" stroke="#F96A02" stroke-width="4"/>
<rect x="370" y="372" width="344" height="344" fill="#007BFF"/>
<rect x="1113" y="372" width="348" height="348" fill="#007BFF"/>
<rect x="1113" y="20" width="344" height="348" fill="#F96A02"/>
<line x1="368" y1="720" x2="368" y2="16" stroke="white" stroke-width="4"/>
<path d="M343.256 792.84C346.136 791.22 347.756 788.1 347.756 784.26C347.756 778.26 343.136 773.16 333.836 773.16H314.456V816H334.376C344.276 816 349.016 810.72 349.016 803.76C349.016 799.44 346.616 795.78 343.256 794.28V792.84ZM321.656 790.74V779.4H333.176C338.456 779.4 340.376 781.44 340.376 785.04C340.376 788.64 338.456 790.74 333.176 790.74H321.656ZM321.656 809.76V796.86H333.416C339.416 796.86 341.636 799.2 341.636 803.28C341.636 807.3 339.416 809.76 333.416 809.76H321.656ZM368.509 784.68C358.909 784.68 353.089 791.4 353.089 800.7C353.089 810.06 358.909 816.78 368.509 816.78C378.109 816.78 383.929 810.06 383.929 800.7C383.929 791.4 378.109 784.68 368.509 784.68ZM368.509 811.02C362.569 811.02 359.869 806.16 359.869 800.7C359.869 795.36 362.569 790.44 368.509 790.44C374.449 790.44 377.149 795.36 377.149 800.7C377.149 806.16 374.449 811.02 368.509 811.02ZM406.69 784.68C402.19 784.68 399.55 786.24 397.93 788.4H396.49V772.38H389.71V816H396.25V813.06H397.69C399.37 815.16 402.13 816.78 406.69 816.78C414.97 816.78 419.89 809.82 419.89 800.7C419.89 791.52 414.91 784.68 406.69 784.68ZM404.77 811.02C398.83 811.02 396.31 806.16 396.31 800.7C396.31 795.36 398.83 790.44 404.77 790.44C410.35 790.44 413.11 794.82 413.11 800.7C413.11 806.64 410.35 811.02 404.77 811.02Z" fill="#274867"/>
<path d="M1074.96 816H1082.34L1068.06 773.16H1056.54L1042.32 816H1049.52L1053.42 803.7H1071L1074.96 816ZM1060.86 780.18H1063.44L1068.9 797.28H1055.46L1060.86 780.18ZM1086.36 772.38V816H1093.14V772.38H1086.36ZM1107.63 778.92V772.38H1100.67V778.92H1107.63ZM1107.51 785.46H1100.73V816H1107.51V785.46ZM1135.26 806.22C1134.6 809.28 1132.44 811.02 1128.6 811.02C1122.6 811.02 1120.2 806.22 1120.2 800.64C1120.2 795.18 1122.54 790.44 1128.6 790.44C1132.2 790.44 1134.12 792.12 1135.02 794.76H1141.74C1140.84 788.76 1136.04 784.68 1128.54 784.68C1119.06 784.68 1113.42 791.34 1113.42 800.7C1113.42 810.06 1119.06 816.78 1128.54 816.78C1135.92 816.78 1141.02 812.52 1141.98 806.22H1135.26ZM1175 799.02C1174.82 791.1 1169.96 784.68 1160.78 784.68C1151.42 784.68 1145.72 790.98 1145.72 800.52C1145.72 810.06 1151.36 816.78 1160.96 816.78C1168.88 816.78 1173.44 812.82 1174.58 807.12H1167.68C1166.78 809.58 1164.68 811.02 1161.02 811.02C1155.5 811.02 1152.62 807.54 1152.44 801.3H1175V799.02ZM1160.72 790.08C1165.22 790.08 1167.62 792.84 1168.04 796.26H1152.74C1153.52 792.72 1155.92 790.08 1160.72 790.08Z" fill="#274867"/>
<path d="M1319.25 595L1296.33 550.328L1314.89 530.488H1301.97L1271.5 562.872V501.944H1260.62V595H1271.5V576.312L1286.35 559.928H1289.17L1307.6 595H1319.25Z" fill="white"/>
<path d="M574.245 595L551.333 550.328L569.893 530.488H556.965L526.501 562.872V501.944H515.621V595H526.501V576.312L541.349 559.928H544.165L562.597 595H574.245Z" fill="white"/>
</g>
<defs>
<clipPath id="clip0_823:407">
<rect width="1474" height="846" fill="white"/>
</clipPath>
</defs>
</svg>
