<?xml version="1.0" encoding="utf-8"?>
<!-- Generator: Adobe Illustrator 20.1.0, SVG Export Plug-In . SVG Version: 6.00 Build 0)  -->
<svg version="1.1" id="Layer_1" xmlns="http://www.w3.org/2000/svg" xmlns:xlink="http://www.w3.org/1999/xlink" x="0px" y="0px"
	 viewBox="0 0 483 143" style="enable-background:new 0 0 483 143;" xml:space="preserve">
<style type="text/css">
	.st0{fill:none;stroke:url(#SVGID_1_);stroke-width:2;stroke-miterlimit:10;}
	.st1{fill:url(#SVGID_2_);}
	.st2{fill:#274867;}
	.st3{fill:#FDFEFF;}
	.st4{fill:#007BFF;}
</style>
<g>
	<g>
		<linearGradient id="SVGID_1_" gradientUnits="userSpaceOnUse" x1="17.2149" y1="102.7119" x2="461.4165" y2="102.7119">
			<stop  offset="0" style="stop-color:#EE3424"/>
			<stop  offset="1" style="stop-color:#0BAA4B"/>
		</linearGradient>
		<line class="st0" x1="17.2" y1="102.7" x2="459.2" y2="102.7"/>
		<g>
			<linearGradient id="SVGID_2_" gradientUnits="userSpaceOnUse" x1="17.2149" y1="102.7129" x2="461.4165" y2="102.7129">
				<stop  offset="0" style="stop-color:#EE3424"/>
				<stop  offset="1" style="stop-color:#0BAA4B"/>
			</linearGradient>
			<polygon class="st1" points="452.6,110.9 451.3,109.4 458.5,102.7 451.3,96 452.6,94.5 461.4,102.7 			"/>
		</g>
	</g>
</g>
<g>
	<g>
		<polygon class="st2" points="23.7,90.6 14.6,44.4 61.2,44.4 52.1,90.6 		"/>
		<path class="st3" d="M60.7,44.8l-9,45.5H24l-9-45.5H60.7 M61.6,44.1h-0.9H15h-0.9l0.2,0.9l9,45.5l0.1,0.6H24h27.8h0.6l0.1-0.6
			l9-45.5L61.6,44.1L61.6,44.1z"/>
	</g>
	<g>
		<polygon class="st2" points="56,56.8 56.9,52.5 59.6,52.5 58.7,56.8 		"/>
		<path class="st3" d="M59.1,52.9l-0.7,3.5h-2l0.7-3.5H59.1 M60,52.2h-0.9h-2h-0.6l-0.1,0.6l-0.7,3.5l-0.2,0.9h0.9h2h0.6l0.1-0.6
			l0.7-3.5L60,52.2L60,52.2z"/>
	</g>
	<g>
		<polygon class="st2" points="17,56.8 16.2,52.5 55.9,52.5 55.2,56.8 		"/>
		<path class="st3" d="M55.5,52.9l-0.6,3.5H17.3c-0.2-1.2-0.5-2.3-0.7-3.5H55.5 M56.3,52.2h-0.9H16.6h-0.9l0.2,0.9l0.6,3.2l0.1,0.3
			l0.1,0.6h0.6h37.6h0.6l0.1-0.6l0.6-3.5L56.3,52.2L56.3,52.2z"/>
	</g>
	<g>
		<polygon class="st2" points="48.9,90.6 55.9,57.1 58.7,57.1 52.1,90.6 		"/>
		<path class="st3" d="M58.2,57.5l-6.5,32.7h-2.4l6.9-32.7H58.2 M59.1,56.8h-0.9h-2h-0.6l-0.1,0.6l-6.9,32.7L48.4,91h0.9h2.4h0.6
			l0.1-0.6L59,57.7L59.1,56.8L59.1,56.8z"/>
	</g>
	<g>
		<polygon class="st2" points="14.6,44.4 61.2,44.4 52.1,90.6 23.7,90.6 		"/>
		<path class="st3" d="M60.7,44.8l-9,45.5l-27.8,0c-2.2-10.9-6.8-34.5-9-45.5H60.7 M61.6,44.1h-0.9H15h-0.9l0.2,0.9
			c2.2,10.9,6.8,34.5,9,45.5l0.1,0.6l0.6,0l27.8,0l0.6,0l0.1-0.6l9-45.5L61.6,44.1L61.6,44.1z"/>
	</g>
	<g>
		<path class="st2" d="M16.1,52.2l-1.4-7h-1.9v-3.6h1c0,0,0-0.1,0-0.1c0-1.2,0.8-2.3,2-2.7c1.8-5.4,8.4-14.3,22.2-14.3
			c13.8,0,20.4,8.9,22.2,14.3c1.2,0.4,2,1.5,2,2.7c0,0,0,0.1,0,0.1h1v3.6H61l-1.4,7H16.1z M60.2,41.6c0,0,0-0.1,0-0.1
			c0-0.5-0.4-1-1-1c-0.5,0-1,0.4-1,1c0,0,0,0.1,0,0.1H60.2z M56.3,41.6c0,0,0-0.1,0-0.1c0-0.8,0.3-1.5,0.9-2
			c-1.6-4.6-7.4-12-19.3-12c-11.9,0-17.7,7.5-19.3,12c0.5,0.5,0.8,1.2,0.8,2c0,0,0,0.1,0,0.1H56.3z M17.5,41.6c0,0,0-0.1,0-0.1
			c0-0.5-0.4-1-1-1s-1,0.4-1,1c0,0,0,0.1,0,0.1H17.5z"/>
		<path class="st3" d="M37.9,24.9c13.4,0,20.1,8.5,21.9,14.2c1.1,0.3,1.9,1.2,1.9,2.4c0,0.2,0,0.3,0,0.5h1v2.9h-1.9l-1.4,7h-1.9
			h-1.8H16.4c-0.5-2.3-0.9-4.7-1.4-7h-1.9v-2.9h1c0-0.2-0.1-0.3-0.1-0.5c0-1.2,0.8-2.1,1.9-2.4C17.8,33.4,24.4,24.9,37.9,24.9
			 M19,41.9h37.8c0-0.2-0.1-0.3-0.1-0.5c0-0.8,0.4-1.4,0.9-1.9C56,34.7,49.9,27,37.9,27c-12,0-18.1,7.6-19.8,12.5
			c0.5,0.4,0.9,1.1,0.9,1.9C19,41.6,19,41.8,19,41.9 M57.9,41.9h2.5c0.1-0.2,0.1-0.3,0.1-0.5c0-0.8-0.6-1.4-1.4-1.4
			c-0.8,0-1.4,0.6-1.4,1.4C57.8,41.6,57.9,41.8,57.9,41.9 M15.3,41.9h2.5c0.1-0.2,0.1-0.3,0.1-0.5c0-0.8-0.6-1.4-1.4-1.4
			c-0.8,0-1.4,0.6-1.4,1.4C15.2,41.6,15.2,41.8,15.3,41.9 M37.9,24.1C24,24.1,17.3,33,15.4,38.5c-1.1,0.4-1.9,1.5-2,2.7h-0.2h-0.8
			v0.8v2.9v0.8h0.8h1.3l1.3,6.4l0.1,0.6h0.6h39.2h1.8h1.9H60l0.1-0.6l1.3-6.4h1.3h0.8v-0.8v-2.9v-0.8h-0.8h-0.2
			c-0.1-1.2-0.9-2.3-2-2.7C58.4,33,51.7,24.1,37.9,24.1L37.9,24.1z M19,39.4c1.7-4.5,7.4-11.6,18.9-11.6c11.5,0,17.2,7.1,18.9,11.6
			c-0.5,0.5-0.7,1.1-0.8,1.8H19.8C19.7,40.5,19.4,39.9,19,39.4L19,39.4z M58.6,41.2c0.1-0.2,0.3-0.3,0.6-0.3c0.2,0,0.5,0.1,0.6,0.3
			H58.6L58.6,41.2z M16,41.2c0.1-0.2,0.3-0.3,0.6-0.3c0.2,0,0.5,0.1,0.6,0.3H16L16,41.2z"/>
	</g>
	<path class="st4" d="M38,41.9h17.6c-6.4-5.1-12.5-8.5-17.6-8.6v0c0,0-0.1,0-0.1,0c0,0-0.1,0-0.1,0v0c-5.1,0.1-11.1,3.5-17.6,8.6
		h17.6H38z"/>
</g>
<g>
	<g>
		<polygon class="st2" points="198.1,90.6 189,44.4 235.6,44.4 226.5,90.6 		"/>
		<path class="st3" d="M235.2,44.8l-9,45.5h-27.8l-9-45.5H235.2 M236.1,44.1h-0.9h-45.7h-0.9l0.2,0.9l9,45.5l0.1,0.6h0.6h27.8h0.6
			l0.1-0.6l9-45.5L236.1,44.1L236.1,44.1z"/>
	</g>
	<g>
		<polygon class="st2" points="230.4,56.8 231.3,52.5 234.1,52.5 233.2,56.8 		"/>
		<path class="st3" d="M233.6,52.9l-0.7,3.5h-2l0.7-3.5H233.6 M234.5,52.2h-0.9h-2H231l-0.1,0.6l-0.7,3.5l-0.2,0.9h0.9h2h0.6
			l0.1-0.6l0.7-3.5L234.5,52.2L234.5,52.2z"/>
	</g>
	<g>
		<polygon class="st2" points="191.4,56.8 190.6,52.5 230.4,52.5 229.7,56.8 		"/>
		<path class="st3" d="M229.9,52.9l-0.6,3.5h-37.6c-0.2-1.2-0.5-2.3-0.7-3.5H229.9 M230.8,52.2h-0.9h-38.9h-0.9l0.2,0.9l0.6,3.3
			l0,0.2l0.1,0.6h0.6h37.6h0.6l0.1-0.6l0.6-3.5L230.8,52.2L230.8,52.2z"/>
	</g>
	<g>
		<polygon class="st2" points="223.3,90.6 230.4,57.1 233.1,57.1 226.5,90.6 		"/>
		<path class="st3" d="M232.7,57.5l-6.5,32.7h-2.4l6.9-32.7H232.7 M233.6,56.8h-0.9h-2h-0.6l-0.1,0.6l-6.9,32.7l-0.2,0.9h0.9h2.4
			h0.6l0.1-0.6l6.5-32.7L233.6,56.8L233.6,56.8z"/>
	</g>
	<path class="st4" d="M235.2,44.8l-9,45.5l-27.8,0c-2.2-10.9-6.8-34.5-9-45.5H235.2z"/>
	<g>
		<path class="st2" d="M192.9,64l-3.7-18.8h-1.9v-3.6h1c0,0,0-0.1,0-0.1c0-1.2,0.8-2.3,2-2.7c1.8-5.4,8.4-14.3,22.2-14.3
			c13.8,0,20.4,8.9,22.2,14.3c1.2,0.4,2,1.5,2,2.7c0,0,0,0.1,0,0.1h1v3.6h-1.9L231.8,64H192.9z M234.6,41.6c0,0,0-0.1,0-0.1
			c0-0.5-0.4-1-1-1c-0.5,0-1,0.4-1,1c0,0,0,0.1,0,0.1H234.6z M230.8,41.6c0,0,0-0.1,0-0.1c0-0.8,0.3-1.5,0.9-2
			c-1.6-4.6-7.4-12-19.3-12c-11.9,0-17.7,7.5-19.3,12c0.5,0.5,0.8,1.2,0.8,2c0,0,0,0.1,0,0.1H230.8z M192,41.6c0,0,0-0.1,0-0.1
			c0-0.5-0.4-1-1-1c-0.5,0-1,0.4-1,1c0,0,0,0.1,0,0.1H192z"/>
		<path class="st3" d="M212.3,24.9c13.4,0,20.1,8.5,21.9,14.2c1.1,0.3,1.9,1.2,1.9,2.4c0,0.2,0,0.3,0,0.5h1v2.9h-1.9l-3.7,18.8
			h-38.3c-0.5-2.3-3.2-16.5-3.7-18.8h-1.9v-2.9h1c0-0.2-0.1-0.3-0.1-0.5c0-1.2,0.8-2.1,1.9-2.4C192.2,33.4,198.9,24.9,212.3,24.9
			 M193.4,41.9h37.8c0-0.2-0.1-0.3-0.1-0.5c0-0.8,0.4-1.4,0.9-1.9c-1.6-4.9-7.8-12.5-19.8-12.5c-12,0-18.1,7.6-19.8,12.5
			c0.5,0.4,0.9,1.1,0.9,1.9C193.5,41.6,193.5,41.8,193.4,41.9 M232.4,41.9h2.5c0.1-0.2,0.1-0.3,0.1-0.5c0-0.8-0.6-1.4-1.4-1.4
			c-0.8,0-1.4,0.6-1.4,1.4C232.3,41.6,232.3,41.8,232.4,41.9 M189.7,41.9h2.5c0.1-0.2,0.1-0.3,0.1-0.5c0-0.8-0.6-1.4-1.4-1.4
			c-0.8,0-1.4,0.6-1.4,1.4C189.6,41.6,189.7,41.8,189.7,41.9 M212.3,24.1c-13.9,0-20.6,8.9-22.5,14.4c-1.1,0.4-1.9,1.5-2,2.7h-0.2
			h-0.8v0.8v2.9v0.8h0.8h1.3c0.7,3.5,3.1,16,3.6,18.2l0.1,0.6h0.6h38.3h0.6l0.1-0.6l3.6-18.2h1.3h0.8v-0.8v-2.9v-0.8h-0.8h-0.2
			c-0.1-1.2-0.9-2.3-2-2.7C232.9,33,226.2,24.1,212.3,24.1L212.3,24.1z M193.4,39.4c1.7-4.5,7.4-11.6,18.9-11.6
			c11.5,0,17.2,7.1,18.9,11.6c-0.5,0.5-0.7,1.1-0.8,1.8h-36.2C194.2,40.5,193.9,39.9,193.4,39.4L193.4,39.4z M233.1,41.2
			c0.1-0.2,0.3-0.3,0.6-0.3c0.2,0,0.5,0.1,0.6,0.3H233.1L233.1,41.2z M190.5,41.2c0.1-0.2,0.3-0.3,0.6-0.3c0.2,0,0.5,0.1,0.6,0.3
			H190.5L190.5,41.2z"/>
	</g>
</g>
<g>
	<g>
		<polygon class="st2" points="372.6,90.6 363.5,44.4 410.1,44.4 401,90.6 		"/>
		<path class="st3" d="M409.6,44.8l-9,45.5h-27.8l-9-45.5H409.6 M410.6,44.1h-0.9h-45.7H363l0.2,0.9l9,45.5l0.1,0.6h0.6h27.8h0.6
			l0.1-0.6l9-45.5L410.6,44.1L410.6,44.1z"/>
	</g>
	<g>
		<polygon class="st2" points="404.9,56.8 405.8,52.5 408.5,52.5 407.7,56.8 		"/>
		<path class="st3" d="M408.1,52.9l-0.7,3.5h-2l0.7-3.5H408.1 M409,52.2h-0.9h-2h-0.6l-0.1,0.6l-0.7,3.5l-0.2,0.9h0.9h2h0.6l0.1-0.6
			l0.7-3.5L409,52.2L409,52.2z"/>
	</g>
	<g>
		<polygon class="st2" points="365.9,56.8 365.1,52.5 404.8,52.5 404.1,56.8 		"/>
		<path class="st3" d="M404.4,52.9l-0.6,3.5h-37.6c-0.2-1.2-0.5-2.3-0.7-3.5H404.4 M405.3,52.2h-0.9h-38.9h-0.9l0.2,0.9l0.6,3
			l0.1,0.5l0.1,0.6h0.6h37.6h0.6l0.1-0.6l0.6-3.5L405.3,52.2L405.3,52.2z"/>
	</g>
	<g>
		<polygon class="st2" points="397.8,90.6 404.8,57.1 407.6,57.1 401,90.6 		"/>
		<path class="st3" d="M407.1,57.5l-6.5,32.7h-2.4l6.9-32.7H407.1 M408.1,56.8h-0.9h-2h-0.6l-0.1,0.6l-6.9,32.7l-0.2,0.9h0.9h2.4
			h0.6l0.1-0.6l6.5-32.7L408.1,56.8L408.1,56.8z"/>
	</g>
	<path class="st4" d="M409.6,44.8l-9,45.5l-27.8,0c-2.2-10.9-6.8-34.5-9-45.5H409.6z"/>
	<g>
		<path class="st2" d="M371.6,86l-8-40.9h-1.9v-3.6h1c0,0,0-0.1,0-0.1c0-1.2,0.8-2.3,2-2.7c1.8-5.4,8.4-14.3,22.2-14.3
			c13.8,0,20.4,8.9,22.2,14.3c1.2,0.4,2,1.5,2,2.7c0,0,0,0.1,0,0.1h1v3.6H410L401.9,86H371.6z M409.1,41.6c0,0,0-0.1,0-0.1
			c0-0.5-0.4-1-1-1s-1,0.4-1,1c0,0,0,0.1,0,0.1H409.1z M405.3,41.6c0,0,0-0.1,0-0.1c0-0.8,0.3-1.5,0.9-2c-1.6-4.6-7.4-12-19.3-12
			c-11.9,0-17.7,7.5-19.3,12c0.5,0.5,0.8,1.2,0.8,2c0,0,0,0.1,0,0.1H405.3z M366.5,41.6c0,0,0-0.1,0-0.1c0-0.5-0.4-1-1-1s-1,0.4-1,1
			c0,0,0,0.1,0,0.1H366.5z"/>
		<path class="st3" d="M386.8,24.9c13.4,0,20.1,8.5,21.9,14.2c1.1,0.3,1.9,1.2,1.9,2.4c0,0.2,0,0.3,0,0.5h1v2.9h-1.9l-8.1,40.9
			h-29.6c-0.5-2.3-7.6-38.5-8-40.9h-1.9v-2.9h1c0-0.2-0.1-0.3-0.1-0.5c0-1.2,0.8-2.1,1.9-2.4C366.7,33.4,373.4,24.9,386.8,24.9
			 M367.9,41.9h37.8c0-0.2-0.1-0.3-0.1-0.5c0-0.8,0.4-1.4,0.9-1.9c-1.6-4.9-7.8-12.5-19.8-12.5c-12,0-18.1,7.6-19.8,12.5
			c0.5,0.4,0.9,1.1,0.9,1.9C367.9,41.6,367.9,41.8,367.9,41.9 M406.8,41.9h2.5c0.1-0.2,0.1-0.3,0.1-0.5c0-0.8-0.6-1.4-1.4-1.4
			c-0.8,0-1.4,0.6-1.4,1.4C406.7,41.6,406.8,41.8,406.8,41.9 M364.2,41.9h2.5c0.1-0.2,0.1-0.3,0.1-0.5c0-0.8-0.6-1.4-1.4-1.4
			c-0.8,0-1.4,0.6-1.4,1.4C364.1,41.6,364.1,41.8,364.2,41.9 M386.8,24.1c-13.9,0-20.6,8.9-22.5,14.4c-1.1,0.4-1.9,1.5-2,2.7h-0.2
			h-0.8v0.8v2.9v0.8h0.8h1.3c1,5.3,7.5,38,7.9,40.2l0.1,0.6h0.6h29.6h0.6l0.1-0.6l7.9-40.2h1.3h0.8v-0.8v-2.9v-0.8h-0.8h-0.2
			c-0.1-1.2-0.9-2.3-2-2.7C407.4,33,400.7,24.1,386.8,24.1L386.8,24.1z M367.9,39.4c1.7-4.5,7.4-11.6,18.9-11.6
			c11.5,0,17.2,7.1,18.9,11.6c-0.5,0.5-0.7,1.1-0.8,1.8h-36.2C368.6,40.5,368.3,39.9,367.9,39.4L367.9,39.4z M407.5,41.2
			c0.1-0.2,0.3-0.3,0.6-0.3s0.5,0.1,0.6,0.3H407.5L407.5,41.2z M364.9,41.2c0.1-0.2,0.3-0.3,0.6-0.3c0.2,0,0.5,0.1,0.6,0.3H364.9
			L364.9,41.2z"/>
	</g>
</g>
<g>
	<path class="st2" d="M72.5,31.7v6.6h-1.8v-6.6h-1.3v-1.5h1.3v-0.8c0-1.9,1.2-2.7,3-2.7h0.9v1.5h-0.9c-0.9,0-1.2,0.6-1.2,1.3v0.7
		h2.1v1.5H72.5z"/>
	<path class="st2" d="M78.1,30.2v4.7c0,1.3,0.6,2,1.8,2c1.3,0,2.1-1.1,2.1-2.4v-4.4h1.8v8.1h-1.7v-0.8h-0.4c-0.5,0.6-1.3,1-2.4,1
		c-2,0-3.1-1.2-3.1-3.3v-5.1H78.1z"/>
	<path class="st2" d="M88.1,26.7v11.6h-1.8V26.7H88.1z"/>
	<path class="st2" d="M92.4,26.7v11.6h-1.8V26.7H92.4z"/>
</g>
<g>
	<path class="st2" d="M243.6,36.7h2.6V29h-0.4l-2.2,1.5v-1.9l2.2-1.5h2.2v9.6h2.4v1.6h-6.8V36.7z"/>
	<path class="st2" d="M250.9,40.6l4.8-14.4h1.5l-4.8,14.4H250.9z"/>
	<path class="st2" d="M258.5,30.4c0.1-2.3,1.7-3.5,3.9-3.5c2.2,0,3.8,1.2,3.8,3.5c0,1.5-1,2.8-2.3,3.8l-2.6,2.1v0.4h5.2v1.6h-8v-2
		l4-3.2c0.8-0.7,1.8-1.6,1.8-2.7c0-1.2-0.8-1.9-1.9-1.9c-1.1,0-1.9,0.6-2,1.8H258.5z"/>
</g>
<g>
	<path class="st2" d="M198.9,120.6c0,2.4-1.3,4.3-3.5,4.3c-1.2,0-2-0.4-2.4-1h-0.4v0.8h-1.7V113h1.8v4.3h0.4c0.4-0.6,1.1-1,2.3-1
		C197.6,116.3,198.9,118.1,198.9,120.6z M197.1,120.6c0-1.6-0.7-2.7-2.2-2.7c-1.6,0-2.3,1.3-2.3,2.7c0,1.5,0.7,2.8,2.3,2.8
		C196.4,123.3,197.1,122.2,197.1,120.6z"/>
	<path class="st2" d="M208.2,120.8h-6c0,1.7,0.8,2.6,2.3,2.6c1,0,1.5-0.4,1.8-1h1.8c-0.3,1.5-1.5,2.6-3.6,2.6
		c-2.6,0-4.1-1.8-4.1-4.3c0-2.5,1.5-4.2,4-4.2c2.4,0,3.7,1.7,3.8,3.8V120.8z M202.3,119.4h4.1c-0.1-0.9-0.8-1.6-2-1.6
		C203.2,117.8,202.5,118.5,202.3,119.4z"/>
	<path class="st2" d="M214.4,116.5v1.5h-1.9v4c0,0.7,0.3,1.1,1.2,1.1h0.7v1.6h-0.7c-1.8,0-3-0.5-3-2.4v-4.2h-1.3v-1.5h1.3v-2.4h1.8
		v2.4H214.4z"/>
	<path class="st2" d="M220.7,116.5v1.5h-1.9v4c0,0.7,0.3,1.1,1.2,1.1h0.7v1.6H220c-1.8,0-3-0.5-3-2.4v-4.2h-1.3v-1.5h1.3v-2.4h1.8
		v2.4H220.7z"/>
	<path class="st2" d="M230.1,120.8h-6c0,1.7,0.8,2.6,2.3,2.6c1,0,1.5-0.4,1.8-1h1.8c-0.3,1.5-1.5,2.6-3.6,2.6
		c-2.6,0-4.1-1.8-4.1-4.3c0-2.5,1.5-4.2,4-4.2c2.4,0,3.7,1.7,3.8,3.8V120.8z M224.2,119.4h4.1c-0.1-0.9-0.8-1.6-2-1.6
		C225,117.8,224.4,118.5,224.2,119.4z"/>
	<path class="st2" d="M237.2,118.2h-0.7c-1.7,0-2.5,0.9-2.5,2.7v3.8h-1.8v-8.1h1.7v0.9h0.4c0.3-0.4,1-0.9,2.3-0.9h0.7V118.2z"/>
</g>
<g>
	<path class="st2" d="M423.7,37.6h-0.4c-0.5,0.6-1.3,1-2.4,1c-1.9,0-2.9-1.3-2.9-2.7c0-1.3,0.9-2.7,3.2-2.7h2.4v-0.2
		c0-0.9-0.5-1.5-1.7-1.5c-1,0-1.6,0.4-1.6,1h-1.8c0.1-1.5,1.4-2.5,3.4-2.5c2.1,0,3.5,0.9,3.5,2.9v5.4h-1.7V37.6z M423.6,35v-0.6
		h-2.1c-1.2,0-1.7,0.5-1.7,1.3c0,0.8,0.6,1.3,1.6,1.3C422.6,37.1,423.6,36.2,423.6,35z"/>
	<path class="st2" d="M429.5,26.7v11.6h-1.8V26.7H429.5z"/>
	<path class="st2" d="M443.7,33.1v5.2h-1.8v-4.9c0-1.2-0.4-1.8-1.4-1.8c-1.1,0-1.7,0.9-1.7,2.1v4.6H437v-4.9c0-1.2-0.4-1.9-1.4-1.9
		c-1.2,0-1.7,1-1.7,2.3v4.4H432v-8.1h1.7v0.7h0.4c0.4-0.6,1-0.9,2-0.9c1,0,1.7,0.3,2.1,1h0.4c0.5-0.7,1.2-1,2.3-1
		C442.9,30,443.7,31.2,443.7,33.1z"/>
	<path class="st2" d="M453.8,34.3c0,2.5-1.6,4.3-4.1,4.3c-2.6,0-4.1-1.8-4.1-4.3c0-2.5,1.6-4.3,4.1-4.3
		C452.3,30,453.8,31.8,453.8,34.3z M452,34.3c0-1.4-0.7-2.7-2.3-2.7c-1.6,0-2.3,1.3-2.3,2.7c0,1.5,0.7,2.8,2.3,2.8
		C451.3,37,452,35.7,452,34.3z"/>
	<path class="st2" d="M460.4,32.4c-0.1-0.7-0.8-0.9-1.6-0.9c-0.9,0-1.5,0.3-1.5,0.8c0,0.5,0.4,0.7,1,0.8l1.6,0.3
		c1.5,0.2,2.5,1,2.5,2.5c0,1.4-1.2,2.6-3.5,2.6c-2.4,0-3.6-1.1-3.7-2.7h1.8c0.1,0.8,0.8,1.2,1.9,1.2c1,0,1.7-0.3,1.7-1.1
		c0-0.6-0.4-0.9-1.3-1.1l-1.7-0.3c-1.2-0.2-2.1-0.9-2.1-2.1c0-1.4,1-2.5,3.3-2.5c2,0,3.2,1,3.3,2.4H460.4z"/>
	<path class="st2" d="M468.5,30.2v1.5h-1.9v4c0,0.7,0.3,1.1,1.2,1.1h0.7v1.6h-0.7c-1.8,0-3-0.5-3-2.4v-4.2h-1.3v-1.5h1.3v-2.4h1.8
		v2.4H468.5z"/>
	<path class="st2" d="M425.9,50.4h-6c0,1.7,0.8,2.6,2.3,2.6c1,0,1.5-0.4,1.8-1h1.8c-0.3,1.5-1.5,2.6-3.6,2.6c-2.6,0-4.1-1.8-4.1-4.3
		c0-2.5,1.5-4.2,4-4.2c2.4,0,3.7,1.7,3.8,3.8V50.4z M420,49.1h4.1c-0.1-0.9-0.8-1.6-2-1.6C420.8,47.4,420.2,48.1,420,49.1z"/>
	<path class="st2" d="M439.6,49.1v5.2h-1.8v-4.9c0-1.2-0.4-1.8-1.4-1.8c-1.1,0-1.7,0.9-1.7,2.1v4.6h-1.8v-4.9c0-1.2-0.4-1.9-1.4-1.9
		c-1.2,0-1.7,1-1.7,2.3v4.4h-1.8v-8.1h1.7v0.7h0.4c0.4-0.6,1-0.9,2-0.9c1,0,1.7,0.3,2.1,1h0.4c0.5-0.7,1.2-1,2.3-1
		C438.7,46,439.6,47.2,439.6,49.1z"/>
	<path class="st2" d="M443.7,46.2V47h0.4c0.4-0.6,1.2-1,2.4-1c2.2,0,3.5,1.8,3.5,4.3c0,2.5-1.3,4.3-3.5,4.3c-1.2,0-1.9-0.4-2.3-1
		h-0.4v4H442V46.2H443.7z M443.7,50.3c0,1.5,0.7,2.8,2.3,2.8c1.5,0,2.2-1.2,2.2-2.8c0-1.6-0.7-2.7-2.2-2.7
		C444.4,47.5,443.7,48.8,443.7,50.3z"/>
	<path class="st2" d="M456.2,46.2v1.5h-1.9v4c0,0.7,0.3,1.1,1.2,1.1h0.7v1.6h-0.7c-1.8,0-3-0.5-3-2.4v-4.2h-1.3v-1.5h1.3v-2.4h1.8
		v2.4H456.2z"/>
	<path class="st2" d="M459.2,57.5l1.7-4l-3.5-7.3h1.9l2.3,4.9h0.4l2.1-4.9h1.9L461,57.5H459.2z"/>
</g>
</svg>
