<svg width="1474" height="1560" viewBox="0 0 1474 1560" fill="none" xmlns="http://www.w3.org/2000/svg">
<g clip-path="url(#clip0_821:147)">
<rect width="1474" height="1560" fill="white"/>
<path d="M1324.6 227.13C1333.02 222.561 1336.15 212.024 1331.58 203.597C1327.01 195.17 1316.48 192.043 1308.05 196.612C1299.62 201.182 1296.49 211.718 1301.06 220.146C1305.63 228.573 1316.17 231.7 1324.6 227.13Z" fill="#48AFFF"/>
<path d="M1317.05 155L1316.02 193.782L1317.05 155Z" stroke="#48AFFF" stroke-width="7" stroke-miterlimit="10" stroke-linecap="round" stroke-linejoin="round"/>
<path d="M1336 299.001L1317.15 217.001" stroke="#274867" stroke-width="2" stroke-miterlimit="10"/>
<path d="M1324.6 227.13C1333.02 222.561 1336.15 212.024 1331.58 203.597C1327.01 195.17 1316.48 192.043 1308.05 196.612C1299.62 201.182 1296.49 211.718 1301.06 220.146C1305.63 228.573 1316.17 231.7 1324.6 227.13Z" fill="#48AFFF"/>
<path d="M1355.62 153.572L1325.05 201.869L1355.62 153.572Z" stroke="#48AFFF" stroke-width="7" stroke-miterlimit="10" stroke-linecap="round" stroke-linejoin="round"/>
<path d="M1316.5 116.244C1319.21 116.244 1321.41 114.046 1321.41 111.335C1321.41 108.624 1319.21 106.426 1316.5 106.426C1313.79 106.426 1311.59 108.624 1311.59 111.335C1311.59 114.046 1313.79 116.244 1316.5 116.244Z" fill="#48AFFF"/>
<path d="M1316.5 319.275C1319.21 319.275 1321.41 317.078 1321.41 314.366C1321.41 311.655 1319.21 309.457 1316.5 309.457C1313.79 309.457 1311.59 311.655 1311.59 314.366C1311.59 317.078 1313.79 319.275 1316.5 319.275Z" fill="#48AFFF"/>
<path d="M1418.01 217.408C1420.73 217.408 1422.92 215.21 1422.92 212.499C1422.92 209.788 1420.73 207.59 1418.01 207.59C1415.3 207.59 1413.11 209.788 1413.11 212.499C1413.11 215.21 1415.3 217.408 1418.01 217.408Z" fill="#48AFFF"/>
<path d="M1214.98 217.408C1217.69 217.408 1219.89 215.21 1219.89 212.499C1219.89 209.788 1217.69 207.59 1214.98 207.59C1212.27 207.59 1210.07 209.788 1210.07 212.499C1210.07 215.21 1212.27 217.408 1214.98 217.408Z" fill="#48AFFF"/>
<path d="M1408.46 256.157C1407.76 255.806 1406.97 255.543 1406.18 255.543C1404.34 255.543 1402.67 256.507 1401.8 258.173C1401.18 259.313 1401.1 260.628 1401.45 261.942C1401.8 263.17 1402.67 264.222 1403.81 264.835C1404.52 265.186 1405.3 265.449 1406.09 265.449C1407.93 265.449 1409.6 264.485 1410.48 262.819C1411.7 260.365 1410.83 257.384 1408.46 256.157Z" fill="#48AFFF"/>
<path d="M1229.19 160.866C1228.4 160.515 1227.7 160.34 1226.82 160.34C1224.98 160.34 1223.31 161.304 1222.44 162.97C1221.21 165.337 1222.09 168.317 1224.45 169.632C1225.15 169.983 1225.94 170.246 1226.73 170.246C1228.57 170.246 1230.24 169.282 1231.11 167.616C1232.43 165.161 1231.55 162.181 1229.19 160.866Z" fill="#48AFFF"/>
<path d="M1270.56 297.885C1269.86 297.534 1269.07 297.271 1268.28 297.271C1266.44 297.271 1264.78 298.236 1263.9 299.901C1263.29 301.041 1263.2 302.356 1263.55 303.671C1263.9 304.898 1264.78 305.95 1265.92 306.564C1266.62 306.915 1267.41 307.178 1268.2 307.178C1270.04 307.178 1271.7 306.213 1272.58 304.548C1273.89 302.093 1273.02 299.112 1270.56 297.885Z" fill="#48AFFF"/>
<path d="M1372.43 125.186C1372.08 123.959 1371.2 122.907 1370.06 122.293C1369.36 121.943 1368.57 121.68 1367.78 121.68C1365.94 121.68 1364.28 122.644 1363.4 124.31C1362.17 126.677 1363.05 129.657 1365.42 130.972C1366.12 131.323 1366.91 131.586 1367.7 131.586C1369.54 131.586 1371.2 130.621 1372.08 128.956C1372.69 127.816 1372.87 126.501 1372.43 125.186Z" fill="#48AFFF"/>
<path d="M1372.52 295.957C1371.64 294.555 1370.06 293.766 1368.4 293.766C1367.43 293.766 1366.47 294.029 1365.68 294.555C1364.63 295.256 1363.84 296.396 1363.58 297.711C1363.31 299.026 1363.58 300.34 1364.28 301.392C1365.15 302.795 1366.73 303.584 1368.4 303.584C1369.36 303.584 1370.33 303.321 1371.12 302.795C1373.4 301.305 1374.01 298.237 1372.52 295.957Z" fill="#48AFFF"/>
<path d="M1264.95 129.393C1265.22 128.078 1264.95 126.763 1264.25 125.711C1263.38 124.309 1261.8 123.52 1260.13 123.52C1259.17 123.52 1258.2 123.783 1257.41 124.309C1255.13 125.799 1254.52 128.867 1256.01 131.146C1256.89 132.549 1258.47 133.338 1260.13 133.338C1261.1 133.338 1262.06 133.075 1262.85 132.549C1263.99 131.76 1264.69 130.62 1264.95 129.393Z" fill="#48AFFF"/>
<path d="M1234.44 264.397C1233.57 262.994 1231.99 262.205 1230.32 262.205C1229.36 262.205 1228.4 262.468 1227.61 262.994C1226.55 263.695 1225.77 264.835 1225.5 266.15C1225.24 267.465 1225.5 268.78 1226.2 269.832C1227.08 271.235 1228.66 272.024 1230.32 272.024C1231.29 272.024 1232.25 271.761 1233.04 271.235C1235.32 269.657 1235.93 266.588 1234.44 264.397Z" fill="#48AFFF"/>
<path d="M1405.3 157.533C1404.43 156.131 1402.85 155.342 1401.18 155.342C1400.22 155.342 1399.26 155.605 1398.47 156.131C1396.19 157.621 1395.57 160.689 1397.15 162.969C1398.03 164.371 1399.61 165.16 1401.27 165.16C1402.24 165.16 1403.2 164.897 1403.99 164.371C1406.18 162.881 1406.79 159.813 1405.3 157.533Z" fill="#48AFFF"/>
<path d="M1316.5 339C1246.72 339 1190 282.281 1190 212.5C1190 142.719 1246.72 86 1316.5 86C1386.28 86 1443 142.719 1443 212.5C1443 282.281 1386.28 339 1316.5 339ZM1316.5 94.4158C1251.37 94.4158 1198.42 147.365 1198.42 212.5C1198.42 277.635 1251.37 330.584 1316.5 330.584C1381.63 330.584 1434.58 277.635 1434.58 212.5C1434.58 147.365 1381.63 94.4158 1316.5 94.4158Z" fill="#48AFFF"/>
<path d="M1324.6 1028.13C1333.02 1023.56 1336.15 1013.02 1331.58 1004.6C1327.01 996.17 1316.48 993.043 1308.05 997.612C1299.62 1002.18 1296.49 1012.72 1301.06 1021.15C1305.63 1029.57 1316.17 1032.7 1324.6 1028.13Z" fill="#48AFFF"/>
<path d="M1317.05 956L1316.02 994.782L1317.05 956Z" stroke="#48AFFF" stroke-width="7" stroke-miterlimit="10" stroke-linecap="round" stroke-linejoin="round"/>
<path d="M1336 1100L1317.15 1018" stroke="#274867" stroke-width="2" stroke-miterlimit="10"/>
<path d="M1324.6 1028.13C1333.02 1023.56 1336.15 1013.02 1331.58 1004.6C1327.01 996.17 1316.48 993.043 1308.05 997.612C1299.62 1002.18 1296.49 1012.72 1301.06 1021.15C1305.63 1029.57 1316.17 1032.7 1324.6 1028.13Z" fill="#48AFFF"/>
<path d="M1384.16 1013L1327 1013L1384.16 1013Z" stroke="#48AFFF" stroke-width="7" stroke-miterlimit="10" stroke-linecap="round" stroke-linejoin="round"/>
<path d="M1316.5 917.244C1319.21 917.244 1321.41 915.046 1321.41 912.335C1321.41 909.624 1319.21 907.426 1316.5 907.426C1313.79 907.426 1311.59 909.624 1311.59 912.335C1311.59 915.046 1313.79 917.244 1316.5 917.244Z" fill="#48AFFF"/>
<path d="M1316.5 1120.28C1319.21 1120.28 1321.41 1118.08 1321.41 1115.37C1321.41 1112.65 1319.21 1110.46 1316.5 1110.46C1313.79 1110.46 1311.59 1112.65 1311.59 1115.37C1311.59 1118.08 1313.79 1120.28 1316.5 1120.28Z" fill="#48AFFF"/>
<path d="M1418.01 1018.41C1420.73 1018.41 1422.92 1016.21 1422.92 1013.5C1422.92 1010.79 1420.73 1008.59 1418.01 1008.59C1415.3 1008.59 1413.11 1010.79 1413.11 1013.5C1413.11 1016.21 1415.3 1018.41 1418.01 1018.41Z" fill="#48AFFF"/>
<path d="M1214.98 1018.41C1217.69 1018.41 1219.89 1016.21 1219.89 1013.5C1219.89 1010.79 1217.69 1008.59 1214.98 1008.59C1212.27 1008.59 1210.07 1010.79 1210.07 1013.5C1210.07 1016.21 1212.27 1018.41 1214.98 1018.41Z" fill="#48AFFF"/>
<path d="M1408.46 1057.16C1407.76 1056.81 1406.97 1056.54 1406.18 1056.54C1404.34 1056.54 1402.67 1057.51 1401.8 1059.17C1401.18 1060.31 1401.1 1061.63 1401.45 1062.94C1401.8 1064.17 1402.67 1065.22 1403.81 1065.84C1404.52 1066.19 1405.3 1066.45 1406.09 1066.45C1407.93 1066.45 1409.6 1065.48 1410.48 1063.82C1411.7 1061.36 1410.83 1058.38 1408.46 1057.16Z" fill="#48AFFF"/>
<path d="M1229.19 961.866C1228.4 961.515 1227.7 961.34 1226.82 961.34C1224.98 961.34 1223.31 962.304 1222.44 963.97C1221.21 966.337 1222.09 969.317 1224.45 970.632C1225.15 970.983 1225.94 971.246 1226.73 971.246C1228.57 971.246 1230.24 970.282 1231.11 968.616C1232.43 966.161 1231.55 963.181 1229.19 961.866Z" fill="#48AFFF"/>
<path d="M1270.56 1098.89C1269.86 1098.53 1269.07 1098.27 1268.28 1098.27C1266.44 1098.27 1264.78 1099.24 1263.9 1100.9C1263.29 1102.04 1263.2 1103.36 1263.55 1104.67C1263.9 1105.9 1264.78 1106.95 1265.92 1107.56C1266.62 1107.91 1267.41 1108.18 1268.2 1108.18C1270.04 1108.18 1271.7 1107.21 1272.58 1105.55C1273.89 1103.09 1273.02 1100.11 1270.56 1098.89Z" fill="#48AFFF"/>
<path d="M1372.43 926.186C1372.08 924.959 1371.2 923.907 1370.06 923.293C1369.36 922.943 1368.57 922.68 1367.78 922.68C1365.94 922.68 1364.28 923.644 1363.4 925.31C1362.17 927.677 1363.05 930.657 1365.42 931.972C1366.12 932.323 1366.91 932.586 1367.7 932.586C1369.54 932.586 1371.2 931.621 1372.08 929.956C1372.69 928.816 1372.87 927.501 1372.43 926.186Z" fill="#48AFFF"/>
<path d="M1372.52 1096.96C1371.64 1095.55 1370.06 1094.77 1368.4 1094.77C1367.43 1094.77 1366.47 1095.03 1365.68 1095.55C1364.63 1096.26 1363.84 1097.4 1363.58 1098.71C1363.31 1100.03 1363.58 1101.34 1364.28 1102.39C1365.15 1103.8 1366.73 1104.58 1368.4 1104.58C1369.36 1104.58 1370.33 1104.32 1371.12 1103.8C1373.4 1102.3 1374.01 1099.24 1372.52 1096.96Z" fill="#48AFFF"/>
<path d="M1264.95 930.393C1265.22 929.078 1264.95 927.763 1264.25 926.711C1263.38 925.309 1261.8 924.52 1260.13 924.52C1259.17 924.52 1258.2 924.783 1257.41 925.309C1255.13 926.799 1254.52 929.867 1256.01 932.146C1256.89 933.549 1258.47 934.338 1260.13 934.338C1261.1 934.338 1262.06 934.075 1262.85 933.549C1263.99 932.76 1264.69 931.62 1264.95 930.393Z" fill="#48AFFF"/>
<path d="M1234.44 1065.4C1233.57 1063.99 1231.99 1063.21 1230.32 1063.21C1229.36 1063.21 1228.4 1063.47 1227.61 1063.99C1226.55 1064.7 1225.77 1065.84 1225.5 1067.15C1225.24 1068.46 1225.5 1069.78 1226.2 1070.83C1227.08 1072.23 1228.66 1073.02 1230.32 1073.02C1231.29 1073.02 1232.25 1072.76 1233.04 1072.23C1235.32 1070.66 1235.93 1067.59 1234.44 1065.4Z" fill="#48AFFF"/>
<path d="M1405.3 958.533C1404.43 957.131 1402.85 956.342 1401.18 956.342C1400.22 956.342 1399.26 956.605 1398.47 957.131C1396.19 958.621 1395.57 961.689 1397.15 963.969C1398.03 965.371 1399.61 966.16 1401.27 966.16C1402.24 966.16 1403.2 965.897 1403.99 965.371C1406.18 963.881 1406.79 960.813 1405.3 958.533Z" fill="#48AFFF"/>
<path d="M1316.5 1140C1246.72 1140 1190 1083.28 1190 1013.5C1190 943.719 1246.72 887 1316.5 887C1386.28 887 1443 943.719 1443 1013.5C1443 1083.28 1386.28 1140 1316.5 1140ZM1316.5 895.416C1251.37 895.416 1198.42 948.365 1198.42 1013.5C1198.42 1078.63 1251.37 1131.58 1316.5 1131.58C1381.63 1131.58 1434.58 1078.63 1434.58 1013.5C1434.58 948.365 1381.63 895.416 1316.5 895.416Z" fill="#48AFFF"/>
<path d="M99.9244 178H1060.67C1072.7 178 1082.46 187.758 1082.46 199.795V447.648H78.1289V199.795C78.1289 187.758 87.8871 178 99.9244 178Z" stroke="#007BFF" stroke-width="4"/>
<path d="M1094.88 251.848C1094.88 242.813 1102.2 235.488 1111.23 235.488V235.488C1120.27 235.488 1127.59 242.813 1127.59 251.848V449.648H1094.88V251.848Z" fill="#007BFF"/>
<path d="M33 251.848C33 242.813 40.3243 235.488 49.3594 235.488V235.488C58.3944 235.488 65.7188 242.813 65.7188 251.848V449.648H33V251.848Z" fill="#007BFF"/>
<rect x="76.1289" y="460.059" width="1008.33" height="23.7955" rx="11.8977" fill="#007BFF"/>
<rect x="135.617" y="494.266" width="278.11" height="16.3594" rx="8.1797" fill="#007BFF"/>
<rect x="245.672" y="550.779" width="59.4887" height="50.5654" rx="11.8977" fill="#007BFF"/>
<rect x="245.672" y="521.035" width="59.4887" height="23.7955" rx="11.8977" fill="#007BFF"/>
<circle cx="184.695" cy="570.113" r="49.0782" fill="#007BFF"/>
<circle cx="185.438" cy="570.856" r="29.0008" fill="white"/>
<circle cx="185.44" cy="570.856" r="9.66692" fill="#007BFF"/>
<circle cx="364.648" cy="570.113" r="49.0782" fill="#007BFF"/>
<circle cx="365.391" cy="570.856" r="29.0008" fill="white"/>
<circle cx="365.393" cy="570.856" r="9.66692" fill="#007BFF"/>
<rect x="746.863" y="494.264" width="278.11" height="16.3594" rx="8.1797" fill="#007BFF"/>
<rect x="856.918" y="550.777" width="59.4887" height="50.5654" rx="11.8977" fill="#007BFF"/>
<rect x="856.918" y="521.033" width="59.4887" height="23.7955" rx="11.8977" fill="#007BFF"/>
<circle cx="795.941" cy="570.111" r="49.0782" fill="#007BFF"/>
<circle cx="796.684" cy="570.856" r="29.0008" fill="white"/>
<circle cx="796.686" cy="570.856" r="9.66692" fill="#007BFF"/>
<circle cx="975.895" cy="570.111" r="49.0782" fill="#007BFF"/>
<circle cx="976.637" cy="570.856" r="29.0008" fill="white"/>
<circle cx="976.64" cy="570.856" r="9.66692" fill="#007BFF"/>
<path d="M134.303 236.088C136.653 245.164 141.687 247.853 145.378 247.853C148.734 247.853 154.104 244.491 155.782 236.088C156.789 236.088 158.131 234.408 158.467 232.055C158.802 229.702 158.467 227.349 157.124 227.013C156.789 227.013 156.789 227.013 156.453 227.013V218.946C156.453 216.929 156.117 215.585 155.111 214.577C153.433 212.896 149.07 210.207 145.043 210.207C140.68 210.207 136.317 212.896 134.639 214.577C134.303 215.921 133.968 217.266 133.632 219.282V227.013C133.632 227.013 133.632 227.013 133.632 227.349C133.297 227.349 132.961 227.013 132.961 227.349C131.954 227.349 131.283 229.366 131.619 232.055C132.29 234.408 133.297 236.088 134.303 236.088Z" fill="#F96A02"/>
<path d="M101.751 323.48C101.08 325.833 102.422 328.522 104.771 329.194C107.121 329.866 109.805 328.522 110.477 326.169L111.148 323.816L102.422 321.127L101.751 323.48Z" fill="#F96A02"/>
<path d="M177.26 322.135L188.67 318.774L172.562 260.961C172.226 259.952 171.89 259.28 171.219 258.608C170.884 258.272 170.884 258.272 170.548 257.936C169.541 256.927 167.863 256.255 165.85 255.583L154.439 251.213L145.042 256.927L136.317 250.877L124.235 255.583C121.886 256.591 119.872 257.263 118.865 258.608C118.53 259.28 118.194 259.952 117.859 260.961L101.414 318.774L112.825 322.135L125.242 278.439L127.927 287.85V327.177V341.63V419.946C127.927 423.98 131.283 427.341 135.31 427.341C139.337 427.341 142.693 423.98 142.693 419.946V341.63H146.385V419.946C146.385 423.98 149.741 427.341 153.768 427.341C157.795 427.341 161.151 423.98 161.151 419.946V341.63V326.84V287.85L164.172 277.767L177.26 322.135Z" fill="#F96A02"/>
<path d="M187.999 321.127L179.273 323.816L179.945 326.169C180.616 328.522 183.301 329.866 185.65 329.194C187.999 328.522 189.341 325.833 188.67 323.48L187.999 321.127Z" fill="#F96A02"/>
<path d="M251.846 247.097V244.637C249.39 242.529 247.285 238.664 246.935 231.637C253.6 230.935 260.616 227.421 266.93 223.205C267.632 224.962 268.334 227.07 268.334 229.529C268.334 237.962 265.878 242.529 263.072 244.637V247.097C269.035 246.043 275.701 242.881 273.596 236.205C270.789 227.07 270.789 210.205 257.459 210.205C244.479 210.205 244.83 224.962 241.673 237.61C240.269 242.881 246.233 246.043 251.846 247.097Z" fill="#F96A02"/>
<path d="M243.77 422.069C243.77 424.879 246.225 427.339 249.032 427.339C251.838 427.339 254.294 424.879 254.294 422.069V419.258H243.77V422.069Z" fill="#F96A02"/>
<path d="M261.301 422.069C261.301 424.879 263.756 427.339 266.563 427.339C269.369 427.339 271.825 424.879 271.825 422.069V419.258H261.301V422.069Z" fill="#F96A02"/>
<path d="M300.247 315.257L280.953 259.744C280.953 257.636 278.497 256.231 275.691 255.177L265.518 250.609C265.518 250.609 261.308 252.366 257.449 254.123C253.59 252.366 249.731 250.258 249.731 250.258L239.207 254.825C236.401 256.231 233.945 256.933 233.945 259.393L214.651 314.906C213.949 317.366 215.002 320.176 217.457 320.879C219.913 321.582 222.719 320.528 223.421 318.068L240.26 271.339V303.312L229.034 360.581H242.364V417.5H256.046V360.581H259.905V417.5H273.586V360.581H287.268L276.042 303.312V272.393L291.828 318.068C292.53 320.528 295.336 321.933 297.792 320.879C299.897 320.528 301.3 317.717 300.247 315.257Z" fill="#F96A02"/>
<g clip-path="url(#clip1_821:147)">
<path d="M871.781 299.078C879.032 299.078 884.91 293.2 884.91 285.949C884.91 278.698 879.032 272.82 871.781 272.82C864.53 272.82 858.652 278.698 858.652 285.949C858.652 293.2 864.53 299.078 871.781 299.078Z" fill="#F96A02"/>
<path d="M915.884 352.267L890.299 308.504C889.626 307.494 888.279 306.484 886.26 305.811L878.18 302.781L871.447 306.821L865.388 302.444L856.972 305.811C855.962 306.147 855.289 306.484 854.615 306.821L811.525 317.93L795.366 260.701C795.03 259.691 794.693 259.018 794.02 258.344C793.683 258.008 793.683 258.008 793.346 257.671C792.337 256.661 790.653 255.988 788.634 255.315L777.188 250.938L768.098 256.661L759.009 250.602L746.89 255.315C744.533 256.324 742.514 256.998 741.504 258.344C740.83 259.018 740.494 259.691 740.157 260.701L723.998 317.93L680.908 306.821C680.235 306.484 679.562 306.147 678.552 305.811L670.136 302.444L664.076 306.821L657.68 302.781L649.264 305.811C647.244 306.484 645.897 307.157 645.224 308.504L619.639 352.267C618.293 354.624 618.966 357.654 621.323 359.337C623.679 360.683 626.709 360.01 628.392 357.654L646.907 326.009L648.591 360.01V421.615C648.591 424.982 651.284 427.675 654.65 427.675C658.017 427.675 660.71 424.982 660.71 421.615V366.743H667.106V421.279C667.106 424.645 669.799 427.338 673.165 427.338C676.532 427.338 679.225 424.645 679.225 421.279V357.654L681.245 317.593L726.691 329.376C729.385 330.049 732.078 328.366 732.751 325.673C732.751 324.999 732.751 324.663 732.751 323.989V323.653C732.751 322.643 732.078 321.97 731.741 321.296L734.771 322.306L747.227 278.543L749.92 287.969V327.356V341.495V419.932C749.92 423.972 753.286 427.338 757.326 427.338C761.366 427.338 764.732 423.972 764.732 419.932V341.495H768.435V419.932C768.435 423.972 771.801 427.338 775.841 427.338C779.881 427.338 783.247 423.972 783.247 419.932V341.495V326.683V287.632L786.277 277.533L799.069 322.306L802.099 321.296C801.089 322.643 800.753 323.989 801.089 325.673C801.763 328.366 804.456 330.049 807.149 329.376L851.922 317.93L841.15 372.466H854.615V421.279C854.615 424.645 857.308 427.338 860.675 427.338C864.041 427.338 866.734 424.645 866.734 421.279V372.466H873.131V421.279C873.131 424.645 875.824 427.338 879.19 427.338C882.557 427.338 885.25 424.645 885.25 421.279V372.466H896.359L887.269 326.346L905.448 357.654C906.795 360.01 910.161 361.02 912.518 359.337C916.557 357.654 917.567 354.624 915.884 352.267Z" fill="#F96A02"/>
<path d="M756.996 235.791C759.352 244.88 764.065 247.573 768.105 247.573C771.471 247.573 776.857 244.207 778.541 235.791C779.551 235.791 780.897 234.107 781.234 231.751C781.57 229.394 781.234 227.038 779.887 226.701C779.551 226.701 779.551 226.701 779.214 226.701V218.622C779.214 216.602 778.877 215.255 777.867 214.245C776.184 212.562 771.808 209.869 767.768 209.869C763.392 209.869 759.015 212.562 757.332 214.245C756.996 215.592 756.322 216.939 756.322 218.958V226.701C756.322 226.701 756.322 226.701 756.322 227.038C755.986 227.038 755.649 226.701 755.649 227.038C754.639 227.375 753.966 229.394 754.302 232.087C754.976 234.107 755.986 235.791 756.996 235.791Z" fill="#F96A02"/>
<path d="M664.074 299.078C671.325 299.078 677.203 293.2 677.203 285.949C677.203 278.698 671.325 272.82 664.074 272.82C656.823 272.82 650.945 278.698 650.945 285.949C650.945 293.2 656.823 299.078 664.074 299.078Z" fill="#F96A02"/>
</g>
<rect x="76.1289" y="376.775" width="1008.33" height="72.8737" fill="#007BFF"/>
<rect x="320.547" y="236.002" width="107.541" height="83.7459" rx="9.89774" stroke="#48AFFF" stroke-width="4"/>
<rect x="470.754" y="236.002" width="107.541" height="211.647" rx="9.89774" fill="white" stroke="#48AFFF" stroke-width="4"/>
<rect x="928.816" y="236.002" width="107.541" height="83.7459" rx="9.89774" stroke="#48AFFF" stroke-width="4"/>
<line x1="562" y1="323" x2="562" y2="349" stroke="#007BFF" stroke-width="4"/>
<path d="M98.9244 956.809H1059.67C1071.7 956.809 1081.46 966.567 1081.46 978.604V1226.46H77.1289V978.604C77.1289 966.567 86.8871 956.809 98.9244 956.809Z" stroke="#007BFF" stroke-width="4"/>
<path d="M1093.88 1030.66C1093.88 1021.62 1101.2 1014.3 1110.23 1014.3V1014.3C1119.27 1014.3 1126.59 1021.62 1126.59 1030.66V1228.46H1093.88V1030.66Z" fill="#007BFF"/>
<path d="M32 1030.66C32 1021.62 39.3243 1014.3 48.3594 1014.3V1014.3C57.3944 1014.3 64.7188 1021.62 64.7188 1030.66V1228.46H32V1030.66Z" fill="#007BFF"/>
<rect x="75.1289" y="1238.87" width="1008.33" height="23.7955" rx="11.8977" fill="#007BFF"/>
<rect x="134.617" y="1273.07" width="278.11" height="16.3594" rx="8.1797" fill="#007BFF"/>
<rect x="244.672" y="1329.59" width="59.4887" height="50.5654" rx="11.8977" fill="#007BFF"/>
<rect x="244.672" y="1299.84" width="59.4887" height="23.7955" rx="11.8977" fill="#007BFF"/>
<circle cx="183.695" cy="1348.92" r="49.0782" fill="#007BFF"/>
<circle cx="184.438" cy="1349.66" r="29.0008" fill="white"/>
<circle cx="184.44" cy="1349.66" r="9.66692" fill="#007BFF"/>
<circle cx="363.648" cy="1348.92" r="49.0782" fill="#007BFF"/>
<circle cx="364.391" cy="1349.66" r="29.0008" fill="white"/>
<circle cx="364.393" cy="1349.66" r="9.66692" fill="#007BFF"/>
<rect x="745.863" y="1273.07" width="278.11" height="16.3594" rx="8.1797" fill="#007BFF"/>
<rect x="855.918" y="1329.59" width="59.4887" height="50.5654" rx="11.8977" fill="#007BFF"/>
<rect x="855.918" y="1299.84" width="59.4887" height="23.7955" rx="11.8977" fill="#007BFF"/>
<circle cx="794.941" cy="1348.92" r="49.0782" fill="#007BFF"/>
<circle cx="795.684" cy="1349.66" r="29.0008" fill="white"/>
<circle cx="795.686" cy="1349.66" r="9.66692" fill="#007BFF"/>
<circle cx="974.895" cy="1348.92" r="49.0782" fill="#007BFF"/>
<circle cx="975.637" cy="1349.66" r="29.0008" fill="white"/>
<circle cx="975.64" cy="1349.66" r="9.66692" fill="#007BFF"/>
<rect x="319.547" y="1014.81" width="107.541" height="83.7459" rx="9.89774" stroke="#48AFFF" stroke-width="4"/>
<rect x="927.816" y="1014.81" width="107.541" height="83.7459" rx="9.89774" stroke="#48AFFF" stroke-width="4"/>
<g clip-path="url(#clip2_821:147)">
<path d="M769.933 1014.6C772.29 1023.69 777.003 1026.38 781.042 1026.38C784.409 1026.38 789.795 1023.02 791.478 1014.6C792.488 1014.6 793.835 1012.92 794.171 1010.56C794.508 1008.2 794.171 1005.85 792.825 1005.51C792.488 1005.51 792.488 1005.51 792.151 1005.51V997.43C792.151 995.411 791.815 994.064 790.805 993.054C789.122 991.371 784.745 988.678 780.706 988.678C776.329 988.678 771.953 991.371 770.27 993.054C769.933 994.401 769.596 995.747 769.26 997.767V1005.51C769.26 1005.51 769.26 1005.51 769.26 1005.85C768.923 1005.85 768.586 1005.51 768.586 1005.85C767.577 1005.85 766.903 1007.87 767.24 1010.56C767.913 1012.92 768.923 1014.6 769.933 1014.6Z" fill="#F96A02"/>
<path d="M737.279 1102.13C736.606 1104.48 737.952 1107.18 740.309 1107.85C742.665 1108.52 745.358 1107.18 746.031 1104.82L746.705 1102.46L737.952 1099.77L737.279 1102.13Z" fill="#F96A02"/>
<path d="M806.964 1033.45V1031.1C804.607 1029.08 802.587 1025.38 802.251 1018.64C808.647 1017.97 815.38 1014.6 821.439 1010.56C822.449 1012.25 823.122 1014.27 823.122 1016.62C823.122 1024.7 820.766 1029.08 818.073 1031.1V1033.45C823.796 1032.44 830.192 1029.42 828.172 1023.02C825.479 1014.27 825.479 998.107 812.687 998.107C800.231 998.107 800.567 1012.25 797.538 1024.37C795.854 1029.42 801.577 1032.44 806.964 1033.45Z" fill="#F96A02"/>
<path d="M798.883 1201.1C798.883 1203.79 801.239 1206.15 803.932 1206.15C806.626 1206.15 808.982 1203.79 808.982 1201.1V1198.41H798.883V1201.1Z" fill="#F96A02"/>
<path d="M815.711 1201.1C815.711 1203.79 818.067 1206.15 820.761 1206.15C823.454 1206.15 825.81 1203.79 825.81 1201.1V1198.41H815.711V1201.1Z" fill="#F96A02"/>
<path d="M763.536 1066.44V1102.13C763.873 1101.45 763.873 1101.12 763.873 1100.44L786.764 1044.22C786.764 1043.21 787.438 1042.2 787.774 1041.53C789.121 1039.51 791.477 1038.5 793.497 1037.49L800.567 1034.46C799.22 1033.79 797.874 1032.78 796.527 1031.77L790.131 1029.07L780.705 1035.47L771.952 1029.41L759.833 1034.12C757.477 1035.13 755.457 1035.81 754.447 1037.15C754.11 1037.83 753.773 1038.5 753.437 1039.51L736.941 1097.41L748.387 1100.78L760.843 1057.02L763.536 1066.44Z" fill="#F96A02"/>
<path d="M782.383 1137.14L792.482 1086.98V1072.5L779.017 1106.17C778.007 1109.2 774.977 1111.22 771.611 1111.22C770.601 1111.22 769.927 1111.22 768.918 1110.88C766.898 1110.21 765.214 1108.86 764.205 1106.84C763.868 1105.83 763.868 1104.82 763.531 1103.81V1120.31V1198.74C763.531 1202.78 766.898 1206.15 770.937 1206.15C774.977 1206.15 778.343 1202.78 778.343 1198.74V1120.31H782.047V1137.14H782.383Z" fill="#F96A02"/>
<path d="M795.52 1200.09H794.173V1145.55H782.391V1198.74C782.391 1202.78 785.757 1206.15 789.797 1206.15C792.153 1206.15 794.51 1204.8 795.856 1203.12C795.52 1202.45 795.52 1201.77 795.52 1201.1V1200.09Z" fill="#F96A02"/>
<path d="M913.004 1077.55C920.255 1077.55 926.133 1071.67 926.133 1064.42C926.133 1057.17 920.255 1051.29 913.004 1051.29C905.753 1051.29 899.875 1057.17 899.875 1064.42C899.875 1071.67 905.753 1077.55 913.004 1077.55Z" fill="#F96A02"/>
<path d="M957.435 1130.4L931.85 1086.64C931.177 1085.63 929.83 1084.62 927.81 1083.95L919.731 1080.92L913.335 1084.96L907.275 1080.58L898.859 1083.95C897.849 1084.28 897.176 1084.62 896.502 1084.96L850.719 1096.74L834.897 1045.23C834.897 1043.21 832.541 1041.87 829.847 1040.86L820.085 1036.48C820.085 1036.48 816.045 1038.16 812.342 1039.85C808.639 1038.16 804.936 1036.14 804.936 1036.14L794.837 1040.52C792.144 1041.53 790.124 1042.54 789.787 1044.9L767.232 1101.79C766.559 1104.15 767.569 1106.84 769.925 1107.51C772.282 1108.19 774.975 1107.18 775.648 1104.82L795.51 1055.33V1087.65L784.737 1142.52H797.53V1197.06H810.659V1142.19H814.362V1196.72H827.491V1142.19H840.62L829.847 1087.31V1059.37L843.986 1104.82C844.66 1106.5 846.006 1107.51 847.689 1107.85C848.363 1108.19 849.373 1108.19 850.383 1107.85L895.156 1095.73L897.176 1135.79V1199.42C897.176 1202.78 899.869 1205.48 903.235 1205.48C906.602 1205.48 909.295 1202.78 909.295 1199.42V1144.88H915.691V1199.42C915.691 1202.78 918.384 1205.48 921.751 1205.48C925.117 1205.48 927.81 1202.78 927.81 1199.42V1138.15L929.493 1104.15L948.009 1135.79C949.355 1138.15 952.722 1139.16 955.078 1137.47C958.108 1136.13 958.781 1132.76 957.435 1130.4Z" fill="#F96A02"/>
</g>
<g clip-path="url(#clip3_821:147)">
<path d="M968.785 1018.6C971.141 1027.69 976.191 1030.38 979.894 1030.38C983.26 1030.38 988.646 1027.02 990.33 1018.6C991.34 1018.6 992.686 1016.92 993.023 1014.56C993.359 1012.2 993.023 1009.85 991.676 1009.51C991.34 1009.51 991.34 1009.51 991.003 1009.51V1001.43C991.003 999.411 990.666 998.064 989.656 997.054C987.973 995.371 983.597 992.678 979.557 992.678C975.181 992.678 970.804 995.371 969.121 997.054C968.785 998.401 968.448 999.747 968.111 1001.77V1009.51C968.111 1009.51 968.111 1009.51 968.111 1009.85C967.775 1009.85 967.438 1009.51 967.438 1009.85C966.428 1009.85 965.755 1011.87 966.091 1014.56C966.765 1016.92 967.775 1018.6 968.785 1018.6Z" fill="#F96A02"/>
<path d="M936.13 1106.13C935.457 1108.48 936.804 1111.18 939.16 1111.85C941.517 1112.52 944.21 1111.18 944.883 1108.82L945.556 1106.46L936.804 1103.77L936.13 1106.13Z" fill="#F96A02"/>
<path d="M1013.89 1106.46L1014.57 1108.82C1015.24 1111.18 1017.93 1112.52 1020.29 1111.85C1022.65 1111.18 1023.99 1108.48 1023.32 1106.13L1022.65 1103.77L1013.89 1106.46Z" fill="#F96A02"/>
<path d="M999.082 1060.34L1011.87 1105.11L1023.32 1101.75L1007.16 1043.51C1006.82 1042.5 1006.49 1041.83 1005.81 1041.15C1005.48 1040.82 1005.48 1040.82 1005.14 1040.48C1004.13 1039.47 1002.45 1038.8 1000.43 1038.12L988.982 1033.75L979.556 1039.47L970.804 1033.41L958.685 1038.12C956.328 1039.13 954.308 1039.81 953.298 1041.15C952.962 1041.83 952.625 1042.5 952.288 1043.51L935.793 1101.41L947.239 1104.78L959.695 1061.01L962.388 1070.44V1109.83V1124.3V1202.74C962.388 1206.78 965.754 1210.15 969.794 1210.15C973.833 1210.15 977.2 1206.78 977.2 1202.74V1124.3H980.903V1202.74C980.903 1206.78 984.269 1210.15 988.309 1210.15C992.349 1210.15 995.715 1206.78 995.715 1202.74V1124.3V1109.49V1070.44L999.082 1060.34Z" fill="#F96A02"/>
<path d="M1009.52 1037.45V1035.1C1007.16 1033.08 1005.15 1029.38 1004.81 1022.64C1011.2 1021.97 1017.94 1018.6 1024 1014.56C1025.01 1016.25 1025.68 1018.27 1025.68 1020.62C1025.68 1028.7 1023.32 1033.08 1020.63 1035.1V1037.45C1026.35 1036.44 1032.75 1033.42 1030.73 1027.02C1028.04 1018.27 1028.04 1002.11 1015.24 1002.11C1002.79 1002.11 1003.13 1016.25 1000.1 1028.37C998.412 1033.42 1004.47 1036.44 1009.52 1037.45Z" fill="#F96A02"/>
<path d="M1001.78 1205.1C1001.78 1207.79 1004.13 1210.15 1006.83 1210.15C1009.52 1210.15 1011.88 1207.79 1011.88 1205.1V1202.41H1001.78V1205.1Z" fill="#F96A02"/>
<path d="M1018.61 1205.1C1018.61 1207.79 1020.97 1210.15 1023.66 1210.15C1026.36 1210.15 1028.71 1207.79 1028.71 1205.1V1202.41H1018.61V1205.1Z" fill="#F96A02"/>
<path d="M1055.97 1102.76L1037.46 1049.57C1037.46 1047.55 1035.1 1046.2 1032.41 1045.19L1022.65 1040.82C1022.65 1040.82 1018.61 1042.5 1014.9 1044.18C1012.88 1043.17 1010.86 1042.16 1009.52 1041.49C1009.85 1041.83 1009.85 1042.16 1009.85 1042.5L1027.36 1103.77L1026.01 1104.11L1026.35 1105.12C1027.02 1107.14 1026.69 1109.16 1025.68 1111.18C1024.67 1113.2 1022.98 1114.54 1020.96 1114.88C1020.29 1115.22 1019.62 1115.22 1018.61 1115.22C1015.24 1115.22 1011.87 1112.86 1010.86 1109.49L1010.53 1108.48L1009.18 1108.82L999.754 1074.15V1146.19H1000.09V1200.72H1013.22V1146.19H1016.92V1200.72H1030.05V1146.19H1043.18L1032.41 1091.31V1061.69L1047.56 1105.45C1048.23 1107.81 1050.92 1109.16 1053.28 1108.15C1055.64 1107.81 1056.98 1105.12 1055.97 1102.76Z" fill="#F96A02"/>
</g>
<g clip-path="url(#clip4_821:147)">
<path d="M725.046 1095.69L704.241 1035.54C704.241 1035.16 704.241 1034.78 703.862 1034.78V1034.41C703.106 1032.89 700.836 1031.76 698.567 1031L695.919 1029.87C691.757 1034.78 685.705 1037.81 678.896 1037.81C672.087 1037.81 665.656 1034.78 661.495 1029.87L659.225 1031C656.199 1032.51 653.551 1033.27 653.551 1035.92L638.42 1079.42L622.532 1024.95V1024.57C621.397 1023.06 619.506 1022.3 617.236 1021.17L614.588 1020.03C610.427 1024.95 604.374 1027.98 597.565 1027.98C590.756 1027.98 584.325 1024.95 580.164 1020.03L577.895 1021.17C574.868 1022.68 572.22 1023.44 572.22 1026.08L551.415 1094.55C550.658 1096.07 551.037 1097.96 551.793 1099.47H549.523V1103.25H554.819C554.063 1104.39 553.685 1105.9 553.685 1107.41V1206.15H557.467V1107.41C557.467 1105.14 559.359 1103.25 561.628 1103.25H568.438V1099.47H564.276C564.276 1099.47 564.276 1099.09 564.655 1099.09L576.76 1058.24L578.651 1108.55V1197.82C578.651 1202.36 582.434 1206.15 586.973 1206.15C591.513 1206.15 595.296 1202.36 595.296 1197.82V1126.33H599.457V1197.82C599.457 1202.36 603.239 1206.15 607.779 1206.15C612.318 1206.15 616.101 1202.36 616.101 1197.82V1113.47L617.992 1058.62L630.097 1099.09C631.232 1102.5 635.015 1104.39 638.798 1103.25C641.824 1102.12 643.337 1099.47 643.337 1096.44L652.038 1070.72L647.877 1156.97H659.982V1197.82C659.982 1202.36 663.765 1206.15 668.304 1206.15C672.843 1206.15 676.626 1202.36 676.626 1197.82V1156.97H680.787V1197.82C680.787 1202.36 684.57 1206.15 689.109 1206.15C693.649 1206.15 697.432 1202.36 697.432 1197.82V1156.97H709.915L705.376 1072.61L714.454 1099.09C715.211 1101.74 718.237 1103.25 720.885 1102.12C724.668 1101.36 725.803 1098.34 725.046 1095.69Z" fill="#F96A02"/>
<path d="M678.898 1032.14C687.977 1032.14 695.543 1024.57 695.543 1015.49C695.543 1009.44 692.138 1004.14 687.221 1001.12C687.221 1000.74 687.599 999.982 687.599 999.603C687.599 996.199 684.951 993.551 681.546 993.551H676.629C673.224 993.551 670.576 996.199 670.576 999.603C670.576 999.982 670.576 1000.36 670.576 1001.12C665.658 1004.14 662.254 1009.44 662.254 1015.49C662.254 1024.57 669.82 1032.14 678.898 1032.14Z" fill="#F96A02"/>
<path d="M597.566 1022.3C606.759 1022.3 614.211 1014.85 614.211 1005.66C614.211 996.466 606.759 989.014 597.566 989.014C588.374 989.014 580.922 996.466 580.922 1005.66C580.922 1014.85 588.374 1022.3 597.566 1022.3Z" fill="#F96A02"/>
</g>
<path d="M133.303 1014.9C135.653 1023.97 140.687 1026.66 144.378 1026.66C147.734 1026.66 153.104 1023.3 154.782 1014.9C155.789 1014.9 157.131 1013.21 157.467 1010.86C157.802 1008.51 157.467 1006.16 156.124 1005.82C155.789 1005.82 155.789 1005.82 155.453 1005.82V997.753C155.453 995.736 155.117 994.392 154.111 993.383C152.433 991.703 148.07 989.014 144.043 989.014C139.68 989.014 135.317 991.703 133.639 993.383C133.303 994.728 132.968 996.072 132.632 998.089V1005.82C132.632 1005.82 132.632 1005.82 132.632 1006.16C132.297 1006.16 131.961 1005.82 131.961 1006.16C130.954 1006.16 130.283 1008.17 130.619 1010.86C131.29 1013.21 132.297 1014.9 133.303 1014.9Z" fill="#F96A02"/>
<path d="M100.751 1102.29C100.08 1104.64 101.422 1107.33 103.771 1108C106.121 1108.67 108.805 1107.33 109.477 1104.98L110.148 1102.62L101.422 1099.93L100.751 1102.29Z" fill="#F96A02"/>
<path d="M176.26 1100.94L187.67 1097.58L171.562 1039.77C171.226 1038.76 170.89 1038.09 170.219 1037.41C169.884 1037.08 169.884 1037.08 169.548 1036.74C168.541 1035.73 166.863 1035.06 164.85 1034.39L153.439 1030.02L144.042 1035.73L135.317 1029.68L123.235 1034.39C120.886 1035.4 118.872 1036.07 117.865 1037.41C117.53 1038.09 117.194 1038.76 116.859 1039.77L100.414 1097.58L111.825 1100.94L124.242 1057.25L126.927 1066.66V1105.98V1120.44V1198.75C126.927 1202.79 130.283 1206.15 134.31 1206.15C138.337 1206.15 141.693 1202.79 141.693 1198.75V1120.44H145.385V1198.75C145.385 1202.79 148.741 1206.15 152.768 1206.15C156.795 1206.15 160.151 1202.79 160.151 1198.75V1120.44V1105.65V1066.66L163.172 1056.57L176.26 1100.94Z" fill="#F96A02"/>
<path d="M186.999 1099.93L178.273 1102.62L178.945 1104.98C179.616 1107.33 182.301 1108.67 184.65 1108C186.999 1107.33 188.341 1104.64 187.67 1102.29L186.999 1099.93Z" fill="#F96A02"/>
<path d="M192.788 1014.9C195.137 1023.97 200.171 1026.66 203.863 1026.66C207.219 1026.66 212.588 1023.3 214.266 1014.9C215.273 1014.9 216.615 1013.21 216.951 1010.86C217.287 1008.51 216.951 1006.16 215.609 1005.82C215.273 1005.82 215.273 1005.82 214.937 1005.82V997.753C214.937 995.736 214.602 994.392 213.595 993.383C211.917 991.703 207.554 989.014 203.527 989.014C199.164 989.014 194.801 991.703 193.123 993.383C192.788 994.728 192.452 996.072 192.117 998.089V1005.82C192.117 1005.82 192.117 1005.82 192.117 1006.16C191.781 1006.16 191.445 1005.82 191.445 1006.16C190.439 1006.16 189.767 1008.17 190.103 1010.86C190.774 1013.21 191.781 1014.9 192.788 1014.9Z" fill="#F96A02"/>
<path d="M160.235 1102.29C159.564 1104.64 160.906 1107.33 163.256 1108C165.605 1108.67 168.29 1107.33 168.961 1104.98L169.632 1102.62L160.906 1099.93L160.235 1102.29Z" fill="#F96A02"/>
<path d="M235.744 1100.94L247.155 1097.58L231.046 1039.77C230.71 1038.76 230.375 1038.09 229.704 1037.41C229.368 1037.08 229.368 1037.08 229.032 1036.74C228.026 1035.73 226.348 1035.06 224.334 1034.39L212.923 1030.02L203.527 1035.73L194.801 1029.68L182.719 1034.39C180.37 1035.4 178.357 1036.07 177.35 1037.41C177.014 1038.09 176.679 1038.76 176.343 1039.77L159.898 1097.58L171.309 1100.94L183.726 1057.25L186.411 1066.66V1105.98V1120.44V1198.75C186.411 1202.79 189.767 1206.15 193.794 1206.15C197.821 1206.15 201.177 1202.79 201.177 1198.75V1120.44H204.869V1198.75C204.869 1202.79 208.225 1206.15 212.252 1206.15C216.279 1206.15 219.635 1202.79 219.635 1198.75V1120.44V1105.65V1066.66L222.656 1056.57L235.744 1100.94Z" fill="#F96A02"/>
<path d="M246.483 1099.93L237.758 1102.62L238.429 1104.98C239.1 1107.33 241.785 1108.67 244.134 1108C246.483 1107.33 247.826 1104.64 247.155 1102.29L246.483 1099.93Z" fill="#F96A02"/>
<path d="M250.846 1025.91V1023.45C248.39 1021.34 246.285 1017.47 245.935 1010.45C252.6 1009.75 259.616 1006.23 265.93 1002.02C266.632 1003.77 267.334 1005.88 267.334 1008.34C267.334 1016.77 264.878 1021.34 262.072 1023.45V1025.91C268.035 1024.85 274.701 1021.69 272.596 1015.02C269.789 1005.88 269.789 989.016 256.459 989.016C243.479 989.016 243.83 1003.77 240.673 1016.42C239.269 1021.69 245.233 1024.85 250.846 1025.91Z" fill="#F96A02"/>
<path d="M242.77 1200.88C242.77 1203.69 245.225 1206.15 248.032 1206.15C250.838 1206.15 253.294 1203.69 253.294 1200.88V1198.07H242.77V1200.88Z" fill="#F96A02"/>
<path d="M260.301 1200.88C260.301 1203.69 262.756 1206.15 265.563 1206.15C268.369 1206.15 270.825 1203.69 270.825 1200.88V1198.07H260.301V1200.88Z" fill="#F96A02"/>
<path d="M299.247 1094.07L279.953 1038.55C279.953 1036.45 277.497 1035.04 274.691 1033.99L264.518 1029.42C264.518 1029.42 260.308 1031.18 256.449 1032.93C252.59 1031.18 248.731 1029.07 248.731 1029.07L238.207 1033.64C235.401 1035.04 232.945 1035.74 232.945 1038.2L213.651 1093.72C212.949 1096.18 214.002 1098.99 216.457 1099.69C218.913 1100.39 221.719 1099.34 222.421 1096.88L239.26 1050.15V1082.12L228.034 1139.39H241.364V1196.31H255.046V1139.39H258.905V1196.31H272.586V1139.39H286.268L275.042 1082.12V1051.2L290.828 1096.88C291.53 1099.34 294.336 1100.74 296.792 1099.69C298.897 1099.34 300.3 1096.53 299.247 1094.07Z" fill="#F96A02"/>
<path d="M300.854 1025.91V1023.45C298.398 1021.34 296.293 1017.47 295.942 1010.45C302.608 1009.75 309.624 1006.23 315.938 1002.02C316.64 1003.77 317.342 1005.88 317.342 1008.34C317.342 1016.77 314.886 1021.34 312.079 1023.45V1025.91C318.043 1024.85 324.708 1021.69 322.604 1015.02C319.797 1005.88 319.797 989.016 306.467 989.016C293.487 989.016 293.838 1003.77 290.68 1016.42C289.277 1021.69 295.241 1024.85 300.854 1025.91Z" fill="#F96A02"/>
<path d="M292.777 1200.88C292.777 1203.69 295.233 1206.15 298.039 1206.15C300.846 1206.15 303.302 1203.69 303.302 1200.88V1198.07H292.777V1200.88Z" fill="#F96A02"/>
<path d="M310.309 1200.88C310.309 1203.69 312.764 1206.15 315.571 1206.15C318.377 1206.15 320.833 1203.69 320.833 1200.88V1198.07H310.309V1200.88Z" fill="#F96A02"/>
<path d="M349.255 1094.07L329.961 1038.55C329.961 1036.45 327.505 1035.04 324.699 1033.99L314.525 1029.42C314.525 1029.42 310.316 1031.18 306.457 1032.93C302.598 1031.18 298.739 1029.07 298.739 1029.07L288.215 1033.64C285.409 1035.04 282.953 1035.74 282.953 1038.2L263.659 1093.72C262.957 1096.18 264.009 1098.99 266.465 1099.69C268.921 1100.39 271.727 1099.34 272.429 1096.88L289.267 1050.15V1082.12L278.042 1139.39H291.372V1196.31H305.054V1139.39H308.913V1196.31H322.594V1139.39H336.275L325.05 1082.12V1051.2L340.836 1096.88C341.537 1099.34 344.344 1100.74 346.8 1099.69C348.904 1099.34 350.308 1096.53 349.255 1094.07Z" fill="#F96A02"/>
<rect x="75.1289" y="1155.58" width="1008.33" height="72.8737" fill="#007BFF"/>
<rect x="469.754" y="1014.81" width="107.541" height="211.647" rx="9.89774" fill="white" stroke="#48AFFF" stroke-width="4"/>
<line x1="558" y1="1108" x2="558" y2="1134" stroke="#007BFF" stroke-width="4"/>
<path d="M1281.64 65H1286.07L1277.5 39.296H1270.59L1262.06 65H1266.38L1268.72 57.62H1279.26L1281.64 65ZM1273.18 43.508H1274.73L1278 53.768H1269.94L1273.18 43.508ZM1299.93 46.676H1298.38C1295.54 46.676 1294.03 47.792 1293.27 48.8H1292.41V46.676H1288.48V65H1292.55V56.432C1292.55 52.58 1294.53 50.456 1298.28 50.456H1299.93V46.676ZM1314.11 46.676H1312.56C1309.72 46.676 1308.21 47.792 1307.45 48.8H1306.59V46.676H1302.66V65H1306.73V56.432C1306.73 52.58 1308.71 50.456 1312.45 50.456H1314.11V46.676ZM1321.02 42.752V38.828H1316.84V42.752H1321.02ZM1320.94 46.676H1316.88V65H1320.94V46.676ZM1329.2 65H1336.37L1342.06 46.676H1337.92L1333.7 61.148H1332.05L1327.69 46.676H1323.55L1329.2 65ZM1355.69 65H1359.47V52.832C1359.47 48.296 1356.31 46.208 1351.55 46.208C1347.23 46.208 1344.17 48.296 1343.99 51.752H1348.03C1348.17 50.348 1349.36 49.412 1351.7 49.412C1354.4 49.412 1355.55 50.744 1355.55 52.76V53.3H1350.15C1344.86 53.3 1342.88 56.576 1342.88 59.456C1342.88 62.624 1345.22 65.468 1349.43 65.468C1351.99 65.468 1353.71 64.712 1354.83 63.308H1355.69V65ZM1350.69 62.156C1348.35 62.156 1346.98 61.076 1346.98 59.204C1346.98 57.296 1348.28 56.18 1350.87 56.18H1355.55V57.584C1355.55 60.14 1353.43 62.156 1350.69 62.156ZM1363.77 38.828V65H1367.84V38.828H1363.77Z" fill="#274867"/>
<path d="M1281.64 866H1286.07L1277.5 840.296H1270.59L1262.06 866H1266.38L1268.72 858.62H1279.26L1281.64 866ZM1273.18 844.508H1274.73L1278 854.768H1269.94L1273.18 844.508ZM1299.93 847.676H1298.38C1295.54 847.676 1294.03 848.792 1293.27 849.8H1292.41V847.676H1288.48V866H1292.55V857.432C1292.55 853.58 1294.53 851.456 1298.28 851.456H1299.93V847.676ZM1314.11 847.676H1312.56C1309.72 847.676 1308.21 848.792 1307.45 849.8H1306.59V847.676H1302.66V866H1306.73V857.432C1306.73 853.58 1308.71 851.456 1312.45 851.456H1314.11V847.676ZM1321.02 843.752V839.828H1316.84V843.752H1321.02ZM1320.94 847.676H1316.88V866H1320.94V847.676ZM1329.2 866H1336.37L1342.06 847.676H1337.92L1333.7 862.148H1332.05L1327.69 847.676H1323.55L1329.2 866ZM1355.69 866H1359.47V853.832C1359.47 849.296 1356.31 847.208 1351.55 847.208C1347.23 847.208 1344.17 849.296 1343.99 852.752H1348.03C1348.17 851.348 1349.36 850.412 1351.7 850.412C1354.4 850.412 1355.55 851.744 1355.55 853.76V854.3H1350.15C1344.86 854.3 1342.88 857.576 1342.88 860.456C1342.88 863.624 1345.22 866.468 1349.43 866.468C1351.99 866.468 1353.71 865.712 1354.83 864.308H1355.69V866ZM1350.69 863.156C1348.35 863.156 1346.98 862.076 1346.98 860.204C1346.98 858.296 1348.28 857.18 1350.87 857.18H1355.55V858.584C1355.55 861.14 1353.43 863.156 1350.69 863.156ZM1363.77 839.828V866H1367.84V839.828H1363.77Z" fill="#274867"/>
<line x1="33" y1="675" x2="1274" y2="675" stroke="#274867" stroke-width="2"/>
<path d="M1282.37 675.192L1266 683.385L1270.09 675.192L1266 667L1282.37 675.192Z" fill="#274867" stroke="#274867" stroke-miterlimit="10"/>
<line x1="34" y1="667" x2="34" y2="684" stroke="#274867" stroke-width="2"/>
<line x1="310" y1="667" x2="310" y2="684" stroke="#274867" stroke-width="2"/>
<line x1="588" y1="667" x2="588" y2="684" stroke="#274867" stroke-width="2"/>
<line x1="866" y1="667" x2="866" y2="684" stroke="#274867" stroke-width="2"/>
<line x1="1144" y1="667" x2="1144" y2="684" stroke="#274867" stroke-width="2"/>
<path d="M44.5077 712.302C44.2217 709.988 42.2977 708.428 39.0737 708.428C35.3297 708.428 33.6397 710.222 33.6397 712.458C33.6397 714.538 35.0437 715.604 37.0197 715.942L39.7757 716.41C41.3097 716.696 41.9337 717.164 41.9337 718.178C41.9337 719.4 40.8417 719.894 39.1517 719.894C37.4097 719.894 36.3177 719.348 36.0837 717.996H33.1457C33.4317 720.622 35.3297 722.338 39.2037 722.338C42.9477 722.338 44.8717 720.31 44.8717 718.1C44.8717 715.63 43.2597 714.382 40.8417 713.992L38.2677 713.576C37.1497 713.394 36.5777 713.108 36.5777 712.25C36.5777 711.288 37.5397 710.872 38.9697 710.872C40.3217 710.872 41.3877 711.184 41.5697 712.302H44.5077ZM50.8582 708.766V704.918H47.9202V708.766H45.8142V711.262H47.9202V718.1C47.9202 721.116 49.8962 722 52.8342 722H53.9782V719.452H52.8862C51.4042 719.452 50.8582 718.828 50.8582 717.71V711.262H53.9782V708.766H50.8582ZM64.938 722H67.668V713.212C67.668 709.936 65.38 708.428 61.948 708.428C58.828 708.428 56.618 709.936 56.488 712.432H59.4C59.504 711.418 60.362 710.742 62.052 710.742C64.002 710.742 64.834 711.704 64.834 713.16V713.55H60.934C57.112 713.55 55.682 715.916 55.682 717.996C55.682 720.284 57.372 722.338 60.414 722.338C62.26 722.338 63.508 721.792 64.314 720.778H64.938V722ZM61.324 719.946C59.634 719.946 58.646 719.166 58.646 717.814C58.646 716.436 59.582 715.63 61.454 715.63H64.834V716.644C64.834 718.49 63.3 719.946 61.324 719.946ZM74.4349 708.766V704.918H71.4969V708.766H69.3909V711.262H71.4969V718.1C71.4969 721.116 73.4729 722 76.4109 722H77.5549V719.452H76.4629C74.9809 719.452 74.4349 718.828 74.4349 717.71V711.262H77.5549V708.766H74.4349ZM83.2628 705.932V703.098H80.2468V705.932H83.2628ZM83.2108 708.766H80.2728V722H83.2108V708.766ZM92.4527 708.428C88.2927 708.428 85.7707 711.34 85.7707 715.37C85.7707 719.426 88.2927 722.338 92.4527 722.338C96.6127 722.338 99.1347 719.426 99.1347 715.37C99.1347 711.34 96.6127 708.428 92.4527 708.428ZM92.4527 719.842C89.8787 719.842 88.7087 717.736 88.7087 715.37C88.7087 713.056 89.8787 710.924 92.4527 710.924C95.0267 710.924 96.1967 713.056 96.1967 715.37C96.1967 717.736 95.0267 719.842 92.4527 719.842ZM113.886 722V713.732C113.886 710.43 112.222 708.428 108.92 708.428C107.152 708.428 105.852 709.026 105.098 710.04H104.474V708.766H101.64V722H104.578V714.928C104.578 712.848 105.904 711.054 108.01 711.054C109.96 711.054 110.948 712.146 110.948 714.304V722H113.886ZM122.867 722H133.969V719.348H130.095V703.8H126.481L122.841 706.296V709.338L126.455 706.894H127.079V719.348H122.867V722Z" fill="#274867"/>
<path d="M320.505 712.302C320.219 709.988 318.295 708.428 315.071 708.428C311.327 708.428 309.637 710.222 309.637 712.458C309.637 714.538 311.041 715.604 313.017 715.942L315.773 716.41C317.307 716.696 317.931 717.164 317.931 718.178C317.931 719.4 316.839 719.894 315.149 719.894C313.407 719.894 312.315 719.348 312.081 717.996H309.143C309.429 720.622 311.327 722.338 315.201 722.338C318.945 722.338 320.869 720.31 320.869 718.1C320.869 715.63 319.257 714.382 316.839 713.992L314.265 713.576C313.147 713.394 312.575 713.108 312.575 712.25C312.575 711.288 313.537 710.872 314.967 710.872C316.319 710.872 317.385 711.184 317.567 712.302H320.505ZM326.855 708.766V704.918H323.917V708.766H321.811V711.262H323.917V718.1C323.917 721.116 325.893 722 328.831 722H329.975V719.452H328.883C327.401 719.452 326.855 718.828 326.855 717.71V711.262H329.975V708.766H326.855ZM340.935 722H343.665V713.212C343.665 709.936 341.377 708.428 337.945 708.428C334.825 708.428 332.615 709.936 332.485 712.432H335.397C335.501 711.418 336.359 710.742 338.049 710.742C339.999 710.742 340.831 711.704 340.831 713.16V713.55H336.931C333.109 713.55 331.679 715.916 331.679 717.996C331.679 720.284 333.369 722.338 336.411 722.338C338.257 722.338 339.505 721.792 340.311 720.778H340.935V722ZM337.321 719.946C335.631 719.946 334.643 719.166 334.643 717.814C334.643 716.436 335.579 715.63 337.451 715.63H340.831V716.644C340.831 718.49 339.297 719.946 337.321 719.946ZM350.432 708.766V704.918H347.494V708.766H345.388V711.262H347.494V718.1C347.494 721.116 349.47 722 352.408 722H353.552V719.452H352.46C350.978 719.452 350.432 718.828 350.432 717.71V711.262H353.552V708.766H350.432ZM359.26 705.932V703.098H356.244V705.932H359.26ZM359.208 708.766H356.27V722H359.208V708.766ZM368.45 708.428C364.29 708.428 361.768 711.34 361.768 715.37C361.768 719.426 364.29 722.338 368.45 722.338C372.61 722.338 375.132 719.426 375.132 715.37C375.132 711.34 372.61 708.428 368.45 708.428ZM368.45 719.842C365.876 719.842 364.706 717.736 364.706 715.37C364.706 713.056 365.876 710.924 368.45 710.924C371.024 710.924 372.194 713.056 372.194 715.37C372.194 717.736 371.024 719.842 368.45 719.842ZM389.883 722V713.732C389.883 710.43 388.219 708.428 384.917 708.428C383.149 708.428 381.849 709.026 381.095 710.04H380.471V708.766H377.637V722H380.575V714.928C380.575 712.848 381.901 711.054 384.007 711.054C385.957 711.054 386.945 712.146 386.945 714.304V722H389.883ZM401.75 709.052C401.958 707.05 403.258 706.14 405.026 706.14C406.898 706.14 408.172 707.154 408.172 709.156C408.172 711.08 406.638 712.536 405.286 713.602L398.76 718.75V722H411.734V719.348H403.31V718.724L407.522 715.318C409.602 713.654 411.214 711.6 411.214 709.13C411.214 705.412 408.64 703.436 405.104 703.436C401.49 703.436 398.942 705.308 398.734 709.052H401.75Z" fill="#274867"/>
<path d="M598.606 712.302C598.32 709.988 596.396 708.428 593.172 708.428C589.428 708.428 587.738 710.222 587.738 712.458C587.738 714.538 589.142 715.604 591.118 715.942L593.874 716.41C595.408 716.696 596.032 717.164 596.032 718.178C596.032 719.4 594.94 719.894 593.25 719.894C591.508 719.894 590.416 719.348 590.182 717.996H587.244C587.53 720.622 589.428 722.338 593.302 722.338C597.046 722.338 598.97 720.31 598.97 718.1C598.97 715.63 597.358 714.382 594.94 713.992L592.366 713.576C591.248 713.394 590.676 713.108 590.676 712.25C590.676 711.288 591.638 710.872 593.068 710.872C594.42 710.872 595.486 711.184 595.668 712.302H598.606ZM604.957 708.766V704.918H602.019V708.766H599.913V711.262H602.019V718.1C602.019 721.116 603.995 722 606.933 722H608.077V719.452H606.985C605.503 719.452 604.957 718.828 604.957 717.71V711.262H608.077V708.766H604.957ZM619.037 722H621.767V713.212C621.767 709.936 619.479 708.428 616.047 708.428C612.927 708.428 610.717 709.936 610.587 712.432H613.499C613.603 711.418 614.461 710.742 616.151 710.742C618.101 710.742 618.933 711.704 618.933 713.16V713.55H615.033C611.211 713.55 609.781 715.916 609.781 717.996C609.781 720.284 611.471 722.338 614.513 722.338C616.359 722.338 617.607 721.792 618.413 720.778H619.037V722ZM615.423 719.946C613.733 719.946 612.745 719.166 612.745 717.814C612.745 716.436 613.681 715.63 615.553 715.63H618.933V716.644C618.933 718.49 617.399 719.946 615.423 719.946ZM628.534 708.766V704.918H625.596V708.766H623.49V711.262H625.596V718.1C625.596 721.116 627.572 722 630.51 722H631.654V719.452H630.562C629.08 719.452 628.534 718.828 628.534 717.71V711.262H631.654V708.766H628.534ZM637.361 705.932V703.098H634.345V705.932H637.361ZM637.309 708.766H634.371V722H637.309V708.766ZM646.551 708.428C642.391 708.428 639.869 711.34 639.869 715.37C639.869 719.426 642.391 722.338 646.551 722.338C650.711 722.338 653.233 719.426 653.233 715.37C653.233 711.34 650.711 708.428 646.551 708.428ZM646.551 719.842C643.977 719.842 642.807 717.736 642.807 715.37C642.807 713.056 643.977 710.924 646.551 710.924C649.125 710.924 650.295 713.056 650.295 715.37C650.295 717.736 649.125 719.842 646.551 719.842ZM667.985 722V713.732C667.985 710.43 666.321 708.428 663.019 708.428C661.251 708.428 659.951 709.026 659.197 710.04H658.573V708.766H655.739V722H658.677V714.928C658.677 712.848 660.003 711.054 662.109 711.054C664.059 711.054 665.047 712.146 665.047 714.304V722H667.985ZM677.486 703.8V706.374H685.208V706.998L681.282 710.196V712.952C681.724 712.848 682.27 712.796 682.92 712.796C685.286 712.796 686.56 714.148 686.56 716.228C686.56 718.334 685.156 719.634 682.894 719.634C680.944 719.634 679.462 718.542 679.28 716.67H676.238C676.368 719.894 678.994 722.338 682.894 722.338C686.794 722.338 689.576 720.05 689.576 716.228C689.576 712.848 687.444 710.976 684.714 710.846V710.196L688.666 706.998V703.8H677.486Z" fill="#274867"/>
<path d="M875.637 712.302C875.351 709.988 873.427 708.428 870.203 708.428C866.459 708.428 864.769 710.222 864.769 712.458C864.769 714.538 866.173 715.604 868.149 715.942L870.905 716.41C872.439 716.696 873.063 717.164 873.063 718.178C873.063 719.4 871.971 719.894 870.281 719.894C868.539 719.894 867.447 719.348 867.213 717.996H864.275C864.561 720.622 866.459 722.338 870.333 722.338C874.077 722.338 876.001 720.31 876.001 718.1C876.001 715.63 874.389 714.382 871.971 713.992L869.397 713.576C868.279 713.394 867.707 713.108 867.707 712.25C867.707 711.288 868.669 710.872 870.099 710.872C871.451 710.872 872.517 711.184 872.699 712.302H875.637ZM881.987 708.766V704.918H879.049V708.766H876.943V711.262H879.049V718.1C879.049 721.116 881.025 722 883.963 722H885.107V719.452H884.015C882.533 719.452 881.987 718.828 881.987 717.71V711.262H885.107V708.766H881.987ZM896.067 722H898.797V713.212C898.797 709.936 896.509 708.428 893.077 708.428C889.957 708.428 887.747 709.936 887.617 712.432H890.529C890.633 711.418 891.491 710.742 893.181 710.742C895.131 710.742 895.963 711.704 895.963 713.16V713.55H892.063C888.241 713.55 886.811 715.916 886.811 717.996C886.811 720.284 888.501 722.338 891.543 722.338C893.389 722.338 894.637 721.792 895.443 720.778H896.067V722ZM892.453 719.946C890.763 719.946 889.775 719.166 889.775 717.814C889.775 716.436 890.711 715.63 892.583 715.63H895.963V716.644C895.963 718.49 894.429 719.946 892.453 719.946ZM905.564 708.766V704.918H902.626V708.766H900.52V711.262H902.626V718.1C902.626 721.116 904.602 722 907.54 722H908.684V719.452H907.592C906.11 719.452 905.564 718.828 905.564 717.71V711.262H908.684V708.766H905.564ZM914.392 705.932V703.098H911.376V705.932H914.392ZM914.34 708.766H911.402V722H914.34V708.766ZM923.582 708.428C919.422 708.428 916.9 711.34 916.9 715.37C916.9 719.426 919.422 722.338 923.582 722.338C927.742 722.338 930.264 719.426 930.264 715.37C930.264 711.34 927.742 708.428 923.582 708.428ZM923.582 719.842C921.008 719.842 919.838 717.736 919.838 715.37C919.838 713.056 921.008 710.924 923.582 710.924C926.156 710.924 927.326 713.056 927.326 715.37C927.326 717.736 926.156 719.842 923.582 719.842ZM945.015 722V713.732C945.015 710.43 943.351 708.428 940.049 708.428C938.281 708.428 936.981 709.026 936.227 710.04H935.603V708.766H932.769V722H935.707V714.928C935.707 712.848 937.033 711.054 939.139 711.054C941.089 711.054 942.077 712.146 942.077 714.304V722H945.015ZM965.28 715.266V703.8H961.51L953.502 714.642V717.918H962.342V722H965.28V717.918H967.646V715.266H965.28ZM956.492 715.266V714.642L961.796 707.232H962.42V715.266H956.492Z" fill="#274867"/>
<path d="M1154.8 712.302C1154.52 709.988 1152.59 708.428 1149.37 708.428C1145.62 708.428 1143.93 710.222 1143.93 712.458C1143.93 714.538 1145.34 715.604 1147.31 715.942L1150.07 716.41C1151.6 716.696 1152.23 717.164 1152.23 718.178C1152.23 719.4 1151.14 719.894 1149.45 719.894C1147.7 719.894 1146.61 719.348 1146.38 717.996H1143.44C1143.73 720.622 1145.62 722.338 1149.5 722.338C1153.24 722.338 1155.17 720.31 1155.17 718.1C1155.17 715.63 1153.55 714.382 1151.14 713.992L1148.56 713.576C1147.44 713.394 1146.87 713.108 1146.87 712.25C1146.87 711.288 1147.83 710.872 1149.26 710.872C1150.62 710.872 1151.68 711.184 1151.86 712.302H1154.8ZM1161.15 708.766V704.918H1158.21V708.766H1156.11V711.262H1158.21V718.1C1158.21 721.116 1160.19 722 1163.13 722H1164.27V719.452H1163.18C1161.7 719.452 1161.15 718.828 1161.15 717.71V711.262H1164.27V708.766H1161.15ZM1175.23 722H1177.96V713.212C1177.96 709.936 1175.67 708.428 1172.24 708.428C1169.12 708.428 1166.91 709.936 1166.78 712.432H1169.69C1169.8 711.418 1170.66 710.742 1172.35 710.742C1174.3 710.742 1175.13 711.704 1175.13 713.16V713.55H1171.23C1167.41 713.55 1165.98 715.916 1165.98 717.996C1165.98 720.284 1167.67 722.338 1170.71 722.338C1172.55 722.338 1173.8 721.792 1174.61 720.778H1175.23V722ZM1171.62 719.946C1169.93 719.946 1168.94 719.166 1168.94 717.814C1168.94 716.436 1169.88 715.63 1171.75 715.63H1175.13V716.644C1175.13 718.49 1173.59 719.946 1171.62 719.946ZM1184.73 708.766V704.918H1181.79V708.766H1179.68V711.262H1181.79V718.1C1181.79 721.116 1183.77 722 1186.7 722H1187.85V719.452H1186.76C1185.27 719.452 1184.73 718.828 1184.73 717.71V711.262H1187.85V708.766H1184.73ZM1193.56 705.932V703.098H1190.54V705.932H1193.56ZM1193.5 708.766H1190.57V722H1193.5V708.766ZM1202.75 708.428C1198.59 708.428 1196.06 711.34 1196.06 715.37C1196.06 719.426 1198.59 722.338 1202.75 722.338C1206.91 722.338 1209.43 719.426 1209.43 715.37C1209.43 711.34 1206.91 708.428 1202.75 708.428ZM1202.75 719.842C1200.17 719.842 1199 717.736 1199 715.37C1199 713.056 1200.17 710.924 1202.75 710.924C1205.32 710.924 1206.49 713.056 1206.49 715.37C1206.49 717.736 1205.32 719.842 1202.75 719.842ZM1224.18 722V713.732C1224.18 710.43 1222.52 708.428 1219.21 708.428C1217.45 708.428 1216.15 709.026 1215.39 710.04H1214.77V708.766H1211.93V722H1214.87V714.928C1214.87 712.848 1216.2 711.054 1218.3 711.054C1220.25 711.054 1221.24 712.146 1221.24 714.304V722H1224.18ZM1240.42 709.676C1238.73 709.676 1237.84 710.17 1237.04 710.82H1236.41L1236.75 706.374H1245.2V703.8H1234.36L1233.55 713.654H1236.46C1237.22 712.588 1238.28 712.12 1239.71 712.12C1241.82 712.12 1243.22 713.576 1243.22 715.864C1243.22 718.178 1241.85 719.634 1239.66 719.634C1237.69 719.634 1236.39 718.646 1236.15 716.67H1233.14C1233.34 719.894 1235.63 722.338 1239.77 722.338C1243.59 722.338 1246.27 719.738 1246.27 715.786C1246.27 712.25 1243.87 709.676 1240.42 709.676Z" fill="#274867"/>
<path d="M33.4777 747H41.6177V745.44H38.5577V733H36.3777L33.4577 734.98V736.82L36.3977 734.84H36.7977V745.44H33.4777V747ZM58.9622 736.66C57.7022 736.66 56.7422 737.1 56.1222 738H55.6822C55.1422 737.1 54.2422 736.66 53.0222 736.66C51.7422 736.66 50.9622 737.12 50.4622 737.9H50.0222V736.92H48.3822V747H50.0822V741.42C50.0822 739.6 50.8822 738.18 52.5622 738.18C53.8222 738.18 54.4822 739.04 54.4822 740.7V747H56.1822V741.1C56.1822 739.4 57.0622 738.18 58.6422 738.18C59.9422 738.18 60.5822 739 60.5822 740.66V747H62.2822V740.48C62.2822 738.16 61.2822 736.66 58.9622 736.66ZM66.5939 734.3V732.46H64.7939V734.3H66.5939ZM66.5339 736.92H64.8339V747H66.5339V736.92ZM78.232 747V740.6C78.232 738.18 76.872 736.66 74.392 736.66C73.032 736.66 71.912 737.22 71.352 738H70.912V736.92H69.272V747H70.972V741.54C70.972 739.76 72.172 738.18 73.972 738.18C75.672 738.18 76.532 739.1 76.532 740.96V747H78.232Z" fill="#274867"/>
<path d="M309.478 747H317.618V745.44H314.558V733H312.378L309.458 734.98V736.82L312.398 734.84H312.798V745.44H309.478V747ZM334.962 736.66C333.702 736.66 332.742 737.1 332.122 738H331.682C331.142 737.1 330.242 736.66 329.022 736.66C327.742 736.66 326.962 737.12 326.462 737.9H326.022V736.92H324.382V747H326.082V741.42C326.082 739.6 326.882 738.18 328.562 738.18C329.822 738.18 330.482 739.04 330.482 740.7V747H332.182V741.1C332.182 739.4 333.062 738.18 334.642 738.18C335.942 738.18 336.582 739 336.582 740.66V747H338.282V740.48C338.282 738.16 337.282 736.66 334.962 736.66ZM342.594 734.3V732.46H340.794V734.3H342.594ZM342.534 736.92H340.834V747H342.534V736.92ZM354.232 747V740.6C354.232 738.18 352.872 736.66 350.392 736.66C349.032 736.66 347.912 737.22 347.352 738H346.912V736.92H345.272V747H346.972V741.54C346.972 739.76 348.172 738.18 349.972 738.18C351.672 738.18 352.532 739.1 352.532 740.96V747H354.232Z" fill="#274867"/>
<path d="M587.478 747H595.618V745.44H592.558V733H590.378L587.458 734.98V736.82L590.398 734.84H590.798V745.44H587.478V747ZM612.962 736.66C611.702 736.66 610.742 737.1 610.122 738H609.682C609.142 737.1 608.242 736.66 607.022 736.66C605.742 736.66 604.962 737.12 604.462 737.9H604.022V736.92H602.382V747H604.082V741.42C604.082 739.6 604.882 738.18 606.562 738.18C607.822 738.18 608.482 739.04 608.482 740.7V747H610.182V741.1C610.182 739.4 611.062 738.18 612.642 738.18C613.942 738.18 614.582 739 614.582 740.66V747H616.282V740.48C616.282 738.16 615.282 736.66 612.962 736.66ZM620.594 734.3V732.46H618.794V734.3H620.594ZM620.534 736.92H618.834V747H620.534V736.92ZM632.232 747V740.6C632.232 738.18 630.872 736.66 628.392 736.66C627.032 736.66 625.912 737.22 625.352 738H624.912V736.92H623.272V747H624.972V741.54C624.972 739.76 626.172 738.18 627.972 738.18C629.672 738.18 630.532 739.1 630.532 740.96V747H632.232Z" fill="#274867"/>
<path d="M864.478 747H872.618V745.44H869.558V733H867.378L864.458 734.98V736.82L867.398 734.84H867.798V745.44H864.478V747ZM889.962 736.66C888.702 736.66 887.742 737.1 887.122 738H886.682C886.142 737.1 885.242 736.66 884.022 736.66C882.742 736.66 881.962 737.12 881.462 737.9H881.022V736.92H879.382V747H881.082V741.42C881.082 739.6 881.882 738.18 883.562 738.18C884.822 738.18 885.482 739.04 885.482 740.7V747H887.182V741.1C887.182 739.4 888.062 738.18 889.642 738.18C890.942 738.18 891.582 739 891.582 740.66V747H893.282V740.48C893.282 738.16 892.282 736.66 889.962 736.66ZM897.594 734.3V732.46H895.794V734.3H897.594ZM897.534 736.92H895.834V747H897.534V736.92ZM909.232 747V740.6C909.232 738.18 907.872 736.66 905.392 736.66C904.032 736.66 902.912 737.22 902.352 738H901.912V736.92H900.272V747H901.972V741.54C901.972 739.76 903.172 738.18 904.972 738.18C906.672 738.18 907.532 739.1 907.532 740.96V747H909.232Z" fill="#274867"/>
<path d="M1143.48 747H1151.62V745.44H1148.56V733H1146.38L1143.46 734.98V736.82L1146.4 734.84H1146.8V745.44H1143.48V747ZM1168.96 736.66C1167.7 736.66 1166.74 737.1 1166.12 738H1165.68C1165.14 737.1 1164.24 736.66 1163.02 736.66C1161.74 736.66 1160.96 737.12 1160.46 737.9H1160.02V736.92H1158.38V747H1160.08V741.42C1160.08 739.6 1160.88 738.18 1162.56 738.18C1163.82 738.18 1164.48 739.04 1164.48 740.7V747H1166.18V741.1C1166.18 739.4 1167.06 738.18 1168.64 738.18C1169.94 738.18 1170.58 739 1170.58 740.66V747H1172.28V740.48C1172.28 738.16 1171.28 736.66 1168.96 736.66ZM1176.59 734.3V732.46H1174.79V734.3H1176.59ZM1176.53 736.92H1174.83V747H1176.53V736.92ZM1188.23 747V740.6C1188.23 738.18 1186.87 736.66 1184.39 736.66C1183.03 736.66 1181.91 737.22 1181.35 738H1180.91V736.92H1179.27V747H1180.97V741.54C1180.97 739.76 1182.17 738.18 1183.97 738.18C1185.67 738.18 1186.53 739.1 1186.53 740.96V747H1188.23Z" fill="#274867"/>
<line x1="34" y1="1453" x2="1275" y2="1453" stroke="#274867" stroke-width="2"/>
<path d="M1283.37 1453.19L1267 1461.38L1271.09 1453.19L1267 1445L1283.37 1453.19Z" fill="#274867" stroke="#274867" stroke-miterlimit="10"/>
<line x1="35" y1="1445" x2="35" y2="1462" stroke="#274867" stroke-width="2"/>
<line x1="311" y1="1445" x2="311" y2="1462" stroke="#274867" stroke-width="2"/>
<line x1="589" y1="1445" x2="589" y2="1462" stroke="#274867" stroke-width="2"/>
<line x1="867" y1="1445" x2="867" y2="1462" stroke="#274867" stroke-width="2"/>
<line x1="1145" y1="1445" x2="1145" y2="1462" stroke="#274867" stroke-width="2"/>
<path d="M45.5077 1490.3C45.2217 1487.99 43.2977 1486.43 40.0737 1486.43C36.3297 1486.43 34.6397 1488.22 34.6397 1490.46C34.6397 1492.54 36.0437 1493.6 38.0197 1493.94L40.7757 1494.41C42.3097 1494.7 42.9337 1495.16 42.9337 1496.18C42.9337 1497.4 41.8417 1497.89 40.1517 1497.89C38.4097 1497.89 37.3177 1497.35 37.0837 1496H34.1457C34.4317 1498.62 36.3297 1500.34 40.2037 1500.34C43.9477 1500.34 45.8717 1498.31 45.8717 1496.1C45.8717 1493.63 44.2597 1492.38 41.8417 1491.99L39.2677 1491.58C38.1497 1491.39 37.5777 1491.11 37.5777 1490.25C37.5777 1489.29 38.5397 1488.87 39.9697 1488.87C41.3217 1488.87 42.3877 1489.18 42.5697 1490.3H45.5077ZM51.8582 1486.77V1482.92H48.9202V1486.77H46.8142V1489.26H48.9202V1496.1C48.9202 1499.12 50.8962 1500 53.8342 1500H54.9782V1497.45H53.8862C52.4042 1497.45 51.8582 1496.83 51.8582 1495.71V1489.26H54.9782V1486.77H51.8582ZM65.938 1500H68.668V1491.21C68.668 1487.94 66.38 1486.43 62.948 1486.43C59.828 1486.43 57.618 1487.94 57.488 1490.43H60.4C60.504 1489.42 61.362 1488.74 63.052 1488.74C65.002 1488.74 65.834 1489.7 65.834 1491.16V1491.55H61.934C58.112 1491.55 56.682 1493.92 56.682 1496C56.682 1498.28 58.372 1500.34 61.414 1500.34C63.26 1500.34 64.508 1499.79 65.314 1498.78H65.938V1500ZM62.324 1497.95C60.634 1497.95 59.646 1497.17 59.646 1495.81C59.646 1494.44 60.582 1493.63 62.454 1493.63H65.834V1494.64C65.834 1496.49 64.3 1497.95 62.324 1497.95ZM75.4349 1486.77V1482.92H72.4969V1486.77H70.3909V1489.26H72.4969V1496.1C72.4969 1499.12 74.4729 1500 77.4109 1500H78.5549V1497.45H77.4629C75.9809 1497.45 75.4349 1496.83 75.4349 1495.71V1489.26H78.5549V1486.77H75.4349ZM84.2628 1483.93V1481.1H81.2468V1483.93H84.2628ZM84.2108 1486.77H81.2728V1500H84.2108V1486.77ZM93.4527 1486.43C89.2927 1486.43 86.7707 1489.34 86.7707 1493.37C86.7707 1497.43 89.2927 1500.34 93.4527 1500.34C97.6127 1500.34 100.135 1497.43 100.135 1493.37C100.135 1489.34 97.6127 1486.43 93.4527 1486.43ZM93.4527 1497.84C90.8787 1497.84 89.7087 1495.74 89.7087 1493.37C89.7087 1491.06 90.8787 1488.92 93.4527 1488.92C96.0267 1488.92 97.1967 1491.06 97.1967 1493.37C97.1967 1495.74 96.0267 1497.84 93.4527 1497.84ZM114.886 1500V1491.73C114.886 1488.43 113.222 1486.43 109.92 1486.43C108.152 1486.43 106.852 1487.03 106.098 1488.04H105.474V1486.77H102.64V1500H105.578V1492.93C105.578 1490.85 106.904 1489.05 109.01 1489.05C110.96 1489.05 111.948 1490.15 111.948 1492.3V1500H114.886ZM123.867 1500H134.969V1497.35H131.095V1481.8H127.481L123.841 1484.3V1487.34L127.455 1484.89H128.079V1497.35H123.867V1500Z" fill="#274867"/>
<path d="M321.505 1490.3C321.219 1487.99 319.295 1486.43 316.071 1486.43C312.327 1486.43 310.637 1488.22 310.637 1490.46C310.637 1492.54 312.041 1493.6 314.017 1493.94L316.773 1494.41C318.307 1494.7 318.931 1495.16 318.931 1496.18C318.931 1497.4 317.839 1497.89 316.149 1497.89C314.407 1497.89 313.315 1497.35 313.081 1496H310.143C310.429 1498.62 312.327 1500.34 316.201 1500.34C319.945 1500.34 321.869 1498.31 321.869 1496.1C321.869 1493.63 320.257 1492.38 317.839 1491.99L315.265 1491.58C314.147 1491.39 313.575 1491.11 313.575 1490.25C313.575 1489.29 314.537 1488.87 315.967 1488.87C317.319 1488.87 318.385 1489.18 318.567 1490.3H321.505ZM327.855 1486.77V1482.92H324.917V1486.77H322.811V1489.26H324.917V1496.1C324.917 1499.12 326.893 1500 329.831 1500H330.975V1497.45H329.883C328.401 1497.45 327.855 1496.83 327.855 1495.71V1489.26H330.975V1486.77H327.855ZM341.935 1500H344.665V1491.21C344.665 1487.94 342.377 1486.43 338.945 1486.43C335.825 1486.43 333.615 1487.94 333.485 1490.43H336.397C336.501 1489.42 337.359 1488.74 339.049 1488.74C340.999 1488.74 341.831 1489.7 341.831 1491.16V1491.55H337.931C334.109 1491.55 332.679 1493.92 332.679 1496C332.679 1498.28 334.369 1500.34 337.411 1500.34C339.257 1500.34 340.505 1499.79 341.311 1498.78H341.935V1500ZM338.321 1497.95C336.631 1497.95 335.643 1497.17 335.643 1495.81C335.643 1494.44 336.579 1493.63 338.451 1493.63H341.831V1494.64C341.831 1496.49 340.297 1497.95 338.321 1497.95ZM351.432 1486.77V1482.92H348.494V1486.77H346.388V1489.26H348.494V1496.1C348.494 1499.12 350.47 1500 353.408 1500H354.552V1497.45H353.46C351.978 1497.45 351.432 1496.83 351.432 1495.71V1489.26H354.552V1486.77H351.432ZM360.26 1483.93V1481.1H357.244V1483.93H360.26ZM360.208 1486.77H357.27V1500H360.208V1486.77ZM369.45 1486.43C365.29 1486.43 362.768 1489.34 362.768 1493.37C362.768 1497.43 365.29 1500.34 369.45 1500.34C373.61 1500.34 376.132 1497.43 376.132 1493.37C376.132 1489.34 373.61 1486.43 369.45 1486.43ZM369.45 1497.84C366.876 1497.84 365.706 1495.74 365.706 1493.37C365.706 1491.06 366.876 1488.92 369.45 1488.92C372.024 1488.92 373.194 1491.06 373.194 1493.37C373.194 1495.74 372.024 1497.84 369.45 1497.84ZM390.883 1500V1491.73C390.883 1488.43 389.219 1486.43 385.917 1486.43C384.149 1486.43 382.849 1487.03 382.095 1488.04H381.471V1486.77H378.637V1500H381.575V1492.93C381.575 1490.85 382.901 1489.05 385.007 1489.05C386.957 1489.05 387.945 1490.15 387.945 1492.3V1500H390.883ZM402.75 1487.05C402.958 1485.05 404.258 1484.14 406.026 1484.14C407.898 1484.14 409.172 1485.15 409.172 1487.16C409.172 1489.08 407.638 1490.54 406.286 1491.6L399.76 1496.75V1500H412.734V1497.35H404.31V1496.72L408.522 1493.32C410.602 1491.65 412.214 1489.6 412.214 1487.13C412.214 1483.41 409.64 1481.44 406.104 1481.44C402.49 1481.44 399.942 1483.31 399.734 1487.05H402.75Z" fill="#274867"/>
<path d="M599.606 1490.3C599.32 1487.99 597.396 1486.43 594.172 1486.43C590.428 1486.43 588.738 1488.22 588.738 1490.46C588.738 1492.54 590.142 1493.6 592.118 1493.94L594.874 1494.41C596.408 1494.7 597.032 1495.16 597.032 1496.18C597.032 1497.4 595.94 1497.89 594.25 1497.89C592.508 1497.89 591.416 1497.35 591.182 1496H588.244C588.53 1498.62 590.428 1500.34 594.302 1500.34C598.046 1500.34 599.97 1498.31 599.97 1496.1C599.97 1493.63 598.358 1492.38 595.94 1491.99L593.366 1491.58C592.248 1491.39 591.676 1491.11 591.676 1490.25C591.676 1489.29 592.638 1488.87 594.068 1488.87C595.42 1488.87 596.486 1489.18 596.668 1490.3H599.606ZM605.957 1486.77V1482.92H603.019V1486.77H600.913V1489.26H603.019V1496.1C603.019 1499.12 604.995 1500 607.933 1500H609.077V1497.45H607.985C606.503 1497.45 605.957 1496.83 605.957 1495.71V1489.26H609.077V1486.77H605.957ZM620.037 1500H622.767V1491.21C622.767 1487.94 620.479 1486.43 617.047 1486.43C613.927 1486.43 611.717 1487.94 611.587 1490.43H614.499C614.603 1489.42 615.461 1488.74 617.151 1488.74C619.101 1488.74 619.933 1489.7 619.933 1491.16V1491.55H616.033C612.211 1491.55 610.781 1493.92 610.781 1496C610.781 1498.28 612.471 1500.34 615.513 1500.34C617.359 1500.34 618.607 1499.79 619.413 1498.78H620.037V1500ZM616.423 1497.95C614.733 1497.95 613.745 1497.17 613.745 1495.81C613.745 1494.44 614.681 1493.63 616.553 1493.63H619.933V1494.64C619.933 1496.49 618.399 1497.95 616.423 1497.95ZM629.534 1486.77V1482.92H626.596V1486.77H624.49V1489.26H626.596V1496.1C626.596 1499.12 628.572 1500 631.51 1500H632.654V1497.45H631.562C630.08 1497.45 629.534 1496.83 629.534 1495.71V1489.26H632.654V1486.77H629.534ZM638.361 1483.93V1481.1H635.345V1483.93H638.361ZM638.309 1486.77H635.371V1500H638.309V1486.77ZM647.551 1486.43C643.391 1486.43 640.869 1489.34 640.869 1493.37C640.869 1497.43 643.391 1500.34 647.551 1500.34C651.711 1500.34 654.233 1497.43 654.233 1493.37C654.233 1489.34 651.711 1486.43 647.551 1486.43ZM647.551 1497.84C644.977 1497.84 643.807 1495.74 643.807 1493.37C643.807 1491.06 644.977 1488.92 647.551 1488.92C650.125 1488.92 651.295 1491.06 651.295 1493.37C651.295 1495.74 650.125 1497.84 647.551 1497.84ZM668.985 1500V1491.73C668.985 1488.43 667.321 1486.43 664.019 1486.43C662.251 1486.43 660.951 1487.03 660.197 1488.04H659.573V1486.77H656.739V1500H659.677V1492.93C659.677 1490.85 661.003 1489.05 663.109 1489.05C665.059 1489.05 666.047 1490.15 666.047 1492.3V1500H668.985ZM678.486 1481.8V1484.37H686.208V1485L682.282 1488.2V1490.95C682.724 1490.85 683.27 1490.8 683.92 1490.8C686.286 1490.8 687.56 1492.15 687.56 1494.23C687.56 1496.33 686.156 1497.63 683.894 1497.63C681.944 1497.63 680.462 1496.54 680.28 1494.67H677.238C677.368 1497.89 679.994 1500.34 683.894 1500.34C687.794 1500.34 690.576 1498.05 690.576 1494.23C690.576 1490.85 688.444 1488.98 685.714 1488.85V1488.2L689.666 1485V1481.8H678.486Z" fill="#274867"/>
<path d="M876.637 1490.3C876.351 1487.99 874.427 1486.43 871.203 1486.43C867.459 1486.43 865.769 1488.22 865.769 1490.46C865.769 1492.54 867.173 1493.6 869.149 1493.94L871.905 1494.41C873.439 1494.7 874.063 1495.16 874.063 1496.18C874.063 1497.4 872.971 1497.89 871.281 1497.89C869.539 1497.89 868.447 1497.35 868.213 1496H865.275C865.561 1498.62 867.459 1500.34 871.333 1500.34C875.077 1500.34 877.001 1498.31 877.001 1496.1C877.001 1493.63 875.389 1492.38 872.971 1491.99L870.397 1491.58C869.279 1491.39 868.707 1491.11 868.707 1490.25C868.707 1489.29 869.669 1488.87 871.099 1488.87C872.451 1488.87 873.517 1489.18 873.699 1490.3H876.637ZM882.987 1486.77V1482.92H880.049V1486.77H877.943V1489.26H880.049V1496.1C880.049 1499.12 882.025 1500 884.963 1500H886.107V1497.45H885.015C883.533 1497.45 882.987 1496.83 882.987 1495.71V1489.26H886.107V1486.77H882.987ZM897.067 1500H899.797V1491.21C899.797 1487.94 897.509 1486.43 894.077 1486.43C890.957 1486.43 888.747 1487.94 888.617 1490.43H891.529C891.633 1489.42 892.491 1488.74 894.181 1488.74C896.131 1488.74 896.963 1489.7 896.963 1491.16V1491.55H893.063C889.241 1491.55 887.811 1493.92 887.811 1496C887.811 1498.28 889.501 1500.34 892.543 1500.34C894.389 1500.34 895.637 1499.79 896.443 1498.78H897.067V1500ZM893.453 1497.95C891.763 1497.95 890.775 1497.17 890.775 1495.81C890.775 1494.44 891.711 1493.63 893.583 1493.63H896.963V1494.64C896.963 1496.49 895.429 1497.95 893.453 1497.95ZM906.564 1486.77V1482.92H903.626V1486.77H901.52V1489.26H903.626V1496.1C903.626 1499.12 905.602 1500 908.54 1500H909.684V1497.45H908.592C907.11 1497.45 906.564 1496.83 906.564 1495.71V1489.26H909.684V1486.77H906.564ZM915.392 1483.93V1481.1H912.376V1483.93H915.392ZM915.34 1486.77H912.402V1500H915.34V1486.77ZM924.582 1486.43C920.422 1486.43 917.9 1489.34 917.9 1493.37C917.9 1497.43 920.422 1500.34 924.582 1500.34C928.742 1500.34 931.264 1497.43 931.264 1493.37C931.264 1489.34 928.742 1486.43 924.582 1486.43ZM924.582 1497.84C922.008 1497.84 920.838 1495.74 920.838 1493.37C920.838 1491.06 922.008 1488.92 924.582 1488.92C927.156 1488.92 928.326 1491.06 928.326 1493.37C928.326 1495.74 927.156 1497.84 924.582 1497.84ZM946.015 1500V1491.73C946.015 1488.43 944.351 1486.43 941.049 1486.43C939.281 1486.43 937.981 1487.03 937.227 1488.04H936.603V1486.77H933.769V1500H936.707V1492.93C936.707 1490.85 938.033 1489.05 940.139 1489.05C942.089 1489.05 943.077 1490.15 943.077 1492.3V1500H946.015ZM966.28 1493.27V1481.8H962.51L954.502 1492.64V1495.92H963.342V1500H966.28V1495.92H968.646V1493.27H966.28ZM957.492 1493.27V1492.64L962.796 1485.23H963.42V1493.27H957.492Z" fill="#274867"/>
<path d="M1155.8 1490.3C1155.52 1487.99 1153.59 1486.43 1150.37 1486.43C1146.62 1486.43 1144.93 1488.22 1144.93 1490.46C1144.93 1492.54 1146.34 1493.6 1148.31 1493.94L1151.07 1494.41C1152.6 1494.7 1153.23 1495.16 1153.23 1496.18C1153.23 1497.4 1152.14 1497.89 1150.45 1497.89C1148.7 1497.89 1147.61 1497.35 1147.38 1496H1144.44C1144.73 1498.62 1146.62 1500.34 1150.5 1500.34C1154.24 1500.34 1156.17 1498.31 1156.17 1496.1C1156.17 1493.63 1154.55 1492.38 1152.14 1491.99L1149.56 1491.58C1148.44 1491.39 1147.87 1491.11 1147.87 1490.25C1147.87 1489.29 1148.83 1488.87 1150.26 1488.87C1151.62 1488.87 1152.68 1489.18 1152.86 1490.3H1155.8ZM1162.15 1486.77V1482.92H1159.21V1486.77H1157.11V1489.26H1159.21V1496.1C1159.21 1499.12 1161.19 1500 1164.13 1500H1165.27V1497.45H1164.18C1162.7 1497.45 1162.15 1496.83 1162.15 1495.71V1489.26H1165.27V1486.77H1162.15ZM1176.23 1500H1178.96V1491.21C1178.96 1487.94 1176.67 1486.43 1173.24 1486.43C1170.12 1486.43 1167.91 1487.94 1167.78 1490.43H1170.69C1170.8 1489.42 1171.66 1488.74 1173.35 1488.74C1175.3 1488.74 1176.13 1489.7 1176.13 1491.16V1491.55H1172.23C1168.41 1491.55 1166.98 1493.92 1166.98 1496C1166.98 1498.28 1168.67 1500.34 1171.71 1500.34C1173.55 1500.34 1174.8 1499.79 1175.61 1498.78H1176.23V1500ZM1172.62 1497.95C1170.93 1497.95 1169.94 1497.17 1169.94 1495.81C1169.94 1494.44 1170.88 1493.63 1172.75 1493.63H1176.13V1494.64C1176.13 1496.49 1174.59 1497.95 1172.62 1497.95ZM1185.73 1486.77V1482.92H1182.79V1486.77H1180.68V1489.26H1182.79V1496.1C1182.79 1499.12 1184.77 1500 1187.7 1500H1188.85V1497.45H1187.76C1186.27 1497.45 1185.73 1496.83 1185.73 1495.71V1489.26H1188.85V1486.77H1185.73ZM1194.56 1483.93V1481.1H1191.54V1483.93H1194.56ZM1194.5 1486.77H1191.57V1500H1194.5V1486.77ZM1203.75 1486.43C1199.59 1486.43 1197.06 1489.34 1197.06 1493.37C1197.06 1497.43 1199.59 1500.34 1203.75 1500.34C1207.91 1500.34 1210.43 1497.43 1210.43 1493.37C1210.43 1489.34 1207.91 1486.43 1203.75 1486.43ZM1203.75 1497.84C1201.17 1497.84 1200 1495.74 1200 1493.37C1200 1491.06 1201.17 1488.92 1203.75 1488.92C1206.32 1488.92 1207.49 1491.06 1207.49 1493.37C1207.49 1495.74 1206.32 1497.84 1203.75 1497.84ZM1225.18 1500V1491.73C1225.18 1488.43 1223.52 1486.43 1220.21 1486.43C1218.45 1486.43 1217.15 1487.03 1216.39 1488.04H1215.77V1486.77H1212.93V1500H1215.87V1492.93C1215.87 1490.85 1217.2 1489.05 1219.3 1489.05C1221.25 1489.05 1222.24 1490.15 1222.24 1492.3V1500H1225.18ZM1241.42 1487.68C1239.73 1487.68 1238.84 1488.17 1238.04 1488.82H1237.41L1237.75 1484.37H1246.2V1481.8H1235.36L1234.55 1491.65H1237.46C1238.22 1490.59 1239.28 1490.12 1240.71 1490.12C1242.82 1490.12 1244.22 1491.58 1244.22 1493.86C1244.22 1496.18 1242.85 1497.63 1240.66 1497.63C1238.69 1497.63 1237.39 1496.65 1237.15 1494.67H1234.14C1234.34 1497.89 1236.63 1500.34 1240.77 1500.34C1244.59 1500.34 1247.27 1497.74 1247.27 1493.79C1247.27 1490.25 1244.87 1487.68 1241.42 1487.68Z" fill="#274867"/>
<path d="M34.7234 1511V1512.52H40.8434V1512.96L37.4234 1515.92V1517.78C37.7434 1517.7 38.1434 1517.66 38.6434 1517.66C40.7034 1517.66 41.8034 1518.8 41.8034 1520.64C41.8034 1522.56 40.5434 1523.7 38.6234 1523.7C36.9434 1523.7 35.6434 1522.68 35.4834 1521.08H33.7234C33.8834 1523.46 35.7834 1525.26 38.6234 1525.26C41.4834 1525.26 43.5634 1523.54 43.5634 1520.64C43.5634 1517.94 41.8034 1516.44 39.4034 1516.38V1515.96L42.9034 1512.96V1511H34.7234ZM61.1165 1514.66C59.8565 1514.66 58.8965 1515.1 58.2765 1516H57.8365C57.2965 1515.1 56.3965 1514.66 55.1765 1514.66C53.8965 1514.66 53.1165 1515.12 52.6165 1515.9H52.1765V1514.92H50.5365V1525H52.2365V1519.42C52.2365 1517.6 53.0365 1516.18 54.7165 1516.18C55.9765 1516.18 56.6365 1517.04 56.6365 1518.7V1525H58.3365V1519.1C58.3365 1517.4 59.2165 1516.18 60.7965 1516.18C62.0965 1516.18 62.7365 1517 62.7365 1518.66V1525H64.4365V1518.48C64.4365 1516.16 63.4365 1514.66 61.1165 1514.66ZM68.7482 1512.3V1510.46H66.9482V1512.3H68.7482ZM68.6882 1514.92H66.9882V1525H68.6882V1514.92ZM80.3863 1525V1518.6C80.3863 1516.18 79.0263 1514.66 76.5463 1514.66C75.1863 1514.66 74.0663 1515.22 73.5063 1516H73.0663V1514.92H71.4263V1525H73.1263V1519.54C73.1263 1517.76 74.3263 1516.18 76.1263 1516.18C77.8263 1516.18 78.6863 1517.1 78.6863 1518.96V1525H80.3863Z" fill="#274867"/>
<path d="M310.723 1511V1512.52H316.843V1512.96L313.423 1515.92V1517.78C313.743 1517.7 314.143 1517.66 314.643 1517.66C316.703 1517.66 317.803 1518.8 317.803 1520.64C317.803 1522.56 316.543 1523.7 314.623 1523.7C312.943 1523.7 311.643 1522.68 311.483 1521.08H309.723C309.883 1523.46 311.783 1525.26 314.623 1525.26C317.483 1525.26 319.563 1523.54 319.563 1520.64C319.563 1517.94 317.803 1516.44 315.403 1516.38V1515.96L318.903 1512.96V1511H310.723ZM337.116 1514.66C335.856 1514.66 334.896 1515.1 334.276 1516H333.836C333.296 1515.1 332.396 1514.66 331.176 1514.66C329.896 1514.66 329.116 1515.12 328.616 1515.9H328.176V1514.92H326.536V1525H328.236V1519.42C328.236 1517.6 329.036 1516.18 330.716 1516.18C331.976 1516.18 332.636 1517.04 332.636 1518.7V1525H334.336V1519.1C334.336 1517.4 335.216 1516.18 336.796 1516.18C338.096 1516.18 338.736 1517 338.736 1518.66V1525H340.436V1518.48C340.436 1516.16 339.436 1514.66 337.116 1514.66ZM344.748 1512.3V1510.46H342.948V1512.3H344.748ZM344.688 1514.92H342.988V1525H344.688V1514.92ZM356.386 1525V1518.6C356.386 1516.18 355.026 1514.66 352.546 1514.66C351.186 1514.66 350.066 1515.22 349.506 1516H349.066V1514.92H347.426V1525H349.126V1519.54C349.126 1517.76 350.326 1516.18 352.126 1516.18C353.826 1516.18 354.686 1517.1 354.686 1518.96V1525H356.386Z" fill="#274867"/>
<path d="M588.723 1511V1512.52H594.843V1512.96L591.423 1515.92V1517.78C591.743 1517.7 592.143 1517.66 592.643 1517.66C594.703 1517.66 595.803 1518.8 595.803 1520.64C595.803 1522.56 594.543 1523.7 592.623 1523.7C590.943 1523.7 589.643 1522.68 589.483 1521.08H587.723C587.883 1523.46 589.783 1525.26 592.623 1525.26C595.483 1525.26 597.563 1523.54 597.563 1520.64C597.563 1517.94 595.803 1516.44 593.403 1516.38V1515.96L596.903 1512.96V1511H588.723ZM615.116 1514.66C613.856 1514.66 612.896 1515.1 612.276 1516H611.836C611.296 1515.1 610.396 1514.66 609.176 1514.66C607.896 1514.66 607.116 1515.12 606.616 1515.9H606.176V1514.92H604.536V1525H606.236V1519.42C606.236 1517.6 607.036 1516.18 608.716 1516.18C609.976 1516.18 610.636 1517.04 610.636 1518.7V1525H612.336V1519.1C612.336 1517.4 613.216 1516.18 614.796 1516.18C616.096 1516.18 616.736 1517 616.736 1518.66V1525H618.436V1518.48C618.436 1516.16 617.436 1514.66 615.116 1514.66ZM622.748 1512.3V1510.46H620.948V1512.3H622.748ZM622.688 1514.92H620.988V1525H622.688V1514.92ZM634.386 1525V1518.6C634.386 1516.18 633.026 1514.66 630.546 1514.66C629.186 1514.66 628.066 1515.22 627.506 1516H627.066V1514.92H625.426V1525H627.126V1519.54C627.126 1517.76 628.326 1516.18 630.126 1516.18C631.826 1516.18 632.686 1517.1 632.686 1518.96V1525H634.386Z" fill="#274867"/>
<path d="M865.723 1511V1512.52H871.843V1512.96L868.423 1515.92V1517.78C868.743 1517.7 869.143 1517.66 869.643 1517.66C871.703 1517.66 872.803 1518.8 872.803 1520.64C872.803 1522.56 871.543 1523.7 869.623 1523.7C867.943 1523.7 866.643 1522.68 866.483 1521.08H864.723C864.883 1523.46 866.783 1525.26 869.623 1525.26C872.483 1525.26 874.563 1523.54 874.563 1520.64C874.563 1517.94 872.803 1516.44 870.403 1516.38V1515.96L873.903 1512.96V1511H865.723ZM892.116 1514.66C890.856 1514.66 889.896 1515.1 889.276 1516H888.836C888.296 1515.1 887.396 1514.66 886.176 1514.66C884.896 1514.66 884.116 1515.12 883.616 1515.9H883.176V1514.92H881.536V1525H883.236V1519.42C883.236 1517.6 884.036 1516.18 885.716 1516.18C886.976 1516.18 887.636 1517.04 887.636 1518.7V1525H889.336V1519.1C889.336 1517.4 890.216 1516.18 891.796 1516.18C893.096 1516.18 893.736 1517 893.736 1518.66V1525H895.436V1518.48C895.436 1516.16 894.436 1514.66 892.116 1514.66ZM899.748 1512.3V1510.46H897.948V1512.3H899.748ZM899.688 1514.92H897.988V1525H899.688V1514.92ZM911.386 1525V1518.6C911.386 1516.18 910.026 1514.66 907.546 1514.66C906.186 1514.66 905.066 1515.22 904.506 1516H904.066V1514.92H902.426V1525H904.126V1519.54C904.126 1517.76 905.326 1516.18 907.126 1516.18C908.826 1516.18 909.686 1517.1 909.686 1518.96V1525H911.386Z" fill="#274867"/>
<path d="M1144.72 1511V1512.52H1150.84V1512.96L1147.42 1515.92V1517.78C1147.74 1517.7 1148.14 1517.66 1148.64 1517.66C1150.7 1517.66 1151.8 1518.8 1151.8 1520.64C1151.8 1522.56 1150.54 1523.7 1148.62 1523.7C1146.94 1523.7 1145.64 1522.68 1145.48 1521.08H1143.72C1143.88 1523.46 1145.78 1525.26 1148.62 1525.26C1151.48 1525.26 1153.56 1523.54 1153.56 1520.64C1153.56 1517.94 1151.8 1516.44 1149.4 1516.38V1515.96L1152.9 1512.96V1511H1144.72ZM1171.12 1514.66C1169.86 1514.66 1168.9 1515.1 1168.28 1516H1167.84C1167.3 1515.1 1166.4 1514.66 1165.18 1514.66C1163.9 1514.66 1163.12 1515.12 1162.62 1515.9H1162.18V1514.92H1160.54V1525H1162.24V1519.42C1162.24 1517.6 1163.04 1516.18 1164.72 1516.18C1165.98 1516.18 1166.64 1517.04 1166.64 1518.7V1525H1168.34V1519.1C1168.34 1517.4 1169.22 1516.18 1170.8 1516.18C1172.1 1516.18 1172.74 1517 1172.74 1518.66V1525H1174.44V1518.48C1174.44 1516.16 1173.44 1514.66 1171.12 1514.66ZM1178.75 1512.3V1510.46H1176.95V1512.3H1178.75ZM1178.69 1514.92H1176.99V1525H1178.69V1514.92ZM1190.39 1525V1518.6C1190.39 1516.18 1189.03 1514.66 1186.55 1514.66C1185.19 1514.66 1184.07 1515.22 1183.51 1516H1183.07V1514.92H1181.43V1525H1183.13V1519.54C1183.13 1517.76 1184.33 1516.18 1186.13 1516.18C1187.83 1516.18 1188.69 1517.1 1188.69 1518.96V1525H1190.39Z" fill="#274867"/>
</g>
<defs>
<clipPath id="clip0_821:147">
<rect width="1474" height="1560" fill="white"/>
</clipPath>
<clipPath id="clip1_821:147">
<rect width="297.591" height="217.134" fill="white" transform="translate(618.965 210.205)"/>
</clipPath>
<clipPath id="clip2_821:147">
<rect width="221.174" height="217.134" fill="white" transform="translate(736.941 989.016)"/>
</clipPath>
<clipPath id="clip3_821:147">
<rect width="120.518" height="217.134" fill="white" transform="translate(935.793 993.016)"/>
</clipPath>
<clipPath id="clip4_821:147">
<rect width="175.901" height="217.134" fill="white" transform="translate(549.527 989.016)"/>
</clipPath>
</defs>
</svg>
