<svg width="1474" height="487" viewBox="0 0 1474 487" fill="none" xmlns="http://www.w3.org/2000/svg">
<rect width="1474" height="487" fill="white"/>
<path d="M207.903 60.1047C113.449 60.1047 119.347 101.009 119.347 101.009L119.452 143.388H209.587V156.111H83.6516C83.6516 156.111 23.2109 149.265 23.2109 244.438C23.2109 339.613 75.9651 336.238 75.9651 336.238H107.449V292.073C107.449 292.073 105.751 239.391 159.361 239.391H248.759C248.759 239.391 298.985 240.201 298.985 190.915V109.423C298.985 109.423 306.613 60.1047 207.903 60.1047ZM158.202 88.6033C160.332 88.6014 162.442 89.019 164.41 89.8321C166.378 90.6452 168.166 91.8379 169.673 93.3419C171.179 94.846 172.373 96.6318 173.187 98.5973C174.001 100.563 174.42 102.669 174.418 104.796C174.42 106.923 174.001 109.03 173.187 110.995C172.373 112.961 171.179 114.747 169.673 116.251C168.166 117.755 166.378 118.948 164.41 119.761C162.442 120.574 160.332 120.991 158.202 120.989C156.072 120.991 153.963 120.574 151.995 119.761C150.027 118.948 148.238 117.755 146.732 116.251C145.226 114.747 144.032 112.961 143.218 110.995C142.403 109.03 141.985 106.923 141.987 104.796C141.985 102.669 142.403 100.563 143.218 98.5973C144.032 96.6318 145.226 94.846 146.732 93.3419C148.238 91.8379 150.027 90.6452 151.995 89.8321C153.963 89.019 156.072 88.6014 158.202 88.6033V88.6033Z" fill="url(#paint0_linear)"/>
<path d="M210.584 429.728C305.038 429.728 299.14 388.824 299.14 388.824L299.035 346.447H208.899V333.724H334.834C334.834 333.724 395.275 340.569 395.275 245.394C395.275 150.22 342.521 153.595 342.521 153.595H311.037V197.759C311.037 197.759 312.735 250.441 259.125 250.441H169.727C169.727 250.441 119.501 249.63 119.501 298.918V380.412C119.501 380.412 111.874 429.728 210.583 429.728H210.584ZM260.285 401.233C258.155 401.235 256.046 400.817 254.077 400.004C252.109 399.191 250.321 397.998 248.815 396.494C247.309 394.99 246.114 393.204 245.3 391.239C244.486 389.273 244.068 387.167 244.07 385.04C244.068 382.912 244.486 380.806 245.3 378.84C246.114 376.874 247.308 375.088 248.814 373.584C250.32 372.08 252.109 370.887 254.077 370.074C256.045 369.261 258.155 368.843 260.285 368.845C262.415 368.843 264.524 369.261 266.492 370.074C268.461 370.887 270.249 372.08 271.755 373.584C273.261 375.088 274.456 376.874 275.27 378.839C276.084 380.805 276.502 382.911 276.5 385.038C276.502 387.165 276.084 389.272 275.27 391.237C274.456 393.203 273.261 394.989 271.755 396.493C270.249 397.997 268.461 399.189 266.492 400.003C264.524 400.816 262.415 401.233 260.285 401.231V401.233Z" fill="url(#paint1_linear)"/>
<path d="M625.518 71.1641V138H650.511C671.011 138 681.401 124.614 681.401 104.582C681.401 84.4563 671.011 71.1641 650.511 71.1641H625.518ZM633.942 130.324V78.8399H650.511C666.705 78.8399 672.883 90.6344 672.883 104.582C672.883 118.53 666.705 130.324 650.511 130.324H633.942Z" fill="#274867"/>
<path d="M738.236 101.68C743.104 99.0591 745.538 94.0979 745.538 88.107C745.538 78.9335 738.33 71.1641 724.195 71.1641H695.083V138H724.944C740.202 138 747.597 129.856 747.597 119.185C747.597 112.351 743.853 106.361 738.236 103.74V101.68ZM703.508 78.6527H723.821C730.561 78.6527 737.02 81.2737 737.02 88.8559C737.02 97.0934 731.403 99.5272 724.008 99.5272H703.508V78.6527ZM703.508 130.511V106.922H724.476C732.339 106.922 739.079 109.918 739.079 118.53C739.079 127.797 731.965 130.511 724.383 130.511H703.508Z" fill="#274867"/>
<path d="M805.837 138H814.636L791.422 71.1641H777.193L754.072 138H762.684L769.611 117.5H798.91L805.837 138ZM782.342 79.776H786.086L796.289 109.824H772.139L782.342 79.776Z" fill="#274867"/>
<path d="M824.982 71.1641V138H833.407V111.228H853.252C867.854 111.228 875.905 103.74 875.905 91.1025C875.905 78.6527 867.854 71.1641 853.252 71.1641H824.982ZM833.407 103.74V78.6527H851.848C863.268 78.6527 867.386 83.4267 867.386 91.1961C867.386 98.9655 863.268 103.74 851.848 103.74H833.407Z" fill="#274867"/>
<path d="M889.808 71.1641V138H898.232V71.1641H889.808Z" fill="#274867"/>
<path d="M557.936 204.055C552.581 204.055 548.501 205.925 545.866 209.75H543.996C541.701 205.925 537.876 204.055 532.691 204.055C527.251 204.055 523.936 206.01 521.811 209.325H519.941V205.16H512.971V248H520.196V224.285C520.196 216.55 523.596 210.515 530.736 210.515C536.091 210.515 538.896 214.17 538.896 221.225V248H546.121V222.925C546.121 215.7 549.861 210.515 556.576 210.515C562.101 210.515 564.821 214 564.821 221.055V248H572.046V220.29C572.046 210.43 567.796 204.055 557.936 204.055Z" fill="#274867"/>
<path d="M622.416 224.03C622.161 213.49 616.041 204.055 603.291 204.055C590.286 204.055 582.636 212.98 582.636 226.155C582.636 239.33 590.116 249.105 603.461 249.105C614.086 249.105 620.291 243.495 621.651 236.185H614.341C613.066 240.265 609.496 242.815 603.461 242.815C594.621 242.815 590.031 236.695 589.776 226.495H622.416V224.03ZM603.121 210.345C610.346 210.345 614.511 215.02 614.936 220.46H590.201C591.136 215.02 595.386 210.345 603.121 210.345Z" fill="#274867"/>
<path d="M643.609 205.16V192.24H636.384V205.16H628.989V211.45H636.384V236.015C636.384 245.11 641.824 248 651.089 248H654.404V241.54H651.259C645.479 241.54 643.609 239.33 643.609 234.995V211.45H654.404V205.16H643.609Z" fill="#274867"/>
<path d="M704.366 248V220.8C704.366 210.515 698.586 204.055 688.131 204.055C682.351 204.055 677.676 206.435 675.381 209.75H673.511V186.205H666.286V248H673.511V224.795C673.511 217.23 678.611 210.515 686.261 210.515C693.486 210.515 697.141 214.595 697.141 222.33V248H704.366Z" fill="#274867"/>
<path d="M736.03 204.055C722.6 204.055 714.95 213.915 714.95 226.58C714.95 239.245 722.6 249.105 736.03 249.105C749.375 249.105 757.11 239.245 757.11 226.58C757.11 213.915 749.375 204.055 736.03 204.055ZM736.03 242.815C726.51 242.815 722.175 234.995 722.175 226.58C722.175 218.165 726.51 210.345 736.03 210.345C745.465 210.345 749.885 218.165 749.885 226.58C749.885 234.995 745.465 242.815 736.03 242.815Z" fill="#274867"/>
<path d="M799.496 186.205V209.75H797.626C795.246 206.69 791.336 204.055 784.536 204.055C772.721 204.055 765.751 213.66 765.751 226.58C765.751 239.245 772.721 249.105 784.536 249.105C791.336 249.105 795.501 246.385 797.881 243.41H799.751V248H806.721V186.205H799.496ZM786.151 242.815C777.566 242.815 772.976 236.1 772.976 226.58C772.976 217.06 777.566 210.345 786.151 210.345C795.671 210.345 799.581 218.165 799.581 226.58C799.581 234.995 795.671 242.815 786.151 242.815Z" fill="#274867"/>
<path d="M873.323 235.08C872.218 239.84 868.648 242.815 862.528 242.815C852.923 242.815 848.928 234.995 848.928 226.41C848.928 217.91 852.838 210.345 862.528 210.345C868.393 210.345 871.708 213.235 873.068 217.57H880.293C878.848 209.665 872.728 204.055 862.528 204.055C849.183 204.055 841.703 213.66 841.703 226.58C841.703 239.245 849.183 249.105 862.528 249.105C872.473 249.105 878.933 243.495 880.548 235.08H873.323Z" fill="#274867"/>
<path d="M918.605 248H925.405V218.845C925.405 209.24 918.52 204.055 907.725 204.055C898.12 204.055 891.32 208.645 890.725 216.55H897.95C898.29 212.81 901.52 210.345 907.895 210.345C915.375 210.345 918.35 214.085 918.35 219.27V220.97H904.41C892.51 220.97 888.005 228.28 888.005 235.165C888.005 242.475 893.53 249.105 903.39 249.105C909.51 249.105 914.1 246.81 916.735 243.495H918.605V248ZM905.175 242.815C898.8 242.815 895.23 239.755 895.23 234.91C895.23 229.81 898.46 226.75 905.515 226.75H918.35V230.66C918.35 237.46 912.315 242.815 905.175 242.815Z" fill="#274867"/>
<path d="M938.635 186.205V248H945.86V186.205H938.635Z" fill="#274867"/>
<path d="M959.802 186.205V248H967.027V186.205H959.802Z" fill="#274867"/>
<path d="M992.869 221.31C988.534 220.63 986.409 219.355 986.409 216.04C986.409 212.385 990.149 210.345 995.674 210.345C1001.03 210.345 1005.11 212.215 1005.7 216.295H1012.93C1011.99 208.815 1006.13 204.055 996.014 204.055C984.454 204.055 979.099 209.58 979.099 216.72C979.099 223.18 983.264 226.41 989.384 227.515L998.989 229.13C1004.43 230.065 1006.81 232.105 1006.81 235.845C1006.81 240.52 1002.56 242.815 996.099 242.815C989.639 242.815 985.389 240.435 984.709 235.59H977.399C978.334 243.75 984.284 249.105 996.439 249.105C1008 249.105 1014.03 242.73 1014.03 235.675C1014.03 227.855 1009.27 224.03 1001.79 222.755L996.949 221.99L992.869 221.31Z" fill="#274867"/>
<path d="M1281.46 262.288C1211.8 262.288 1153.42 241.824 1137.48 214.233C1134.68 219.09 1133.05 224.136 1133.05 229.373V274.524C1133.05 309.405 1199.51 337.706 1281.46 337.706C1363.46 337.706 1429.95 309.405 1429.95 274.524V229.373C1429.95 224.136 1428.29 219.09 1425.46 214.233C1409.52 241.811 1351.2 262.288 1281.46 262.288Z" fill="#274867"/>
<path d="M1281.46 355.557C1211.8 355.557 1153.42 335.067 1137.48 307.527C1134.68 312.358 1133.05 317.405 1133.05 322.629V367.818C1133.05 402.712 1199.51 431 1281.46 431C1363.46 431 1429.95 402.724 1429.95 367.818V322.629C1429.95 317.405 1428.29 312.358 1425.46 307.54C1409.52 335.067 1351.2 355.557 1281.46 355.557Z" fill="#274867"/>
<path d="M1425.89 123.93C1422.97 149.491 1359.55 169.943 1281.46 169.943C1203.41 169.943 1139.98 149.491 1137.08 123.942C1134.53 128.583 1133.05 133.427 1133.05 138.41V183.561C1133.05 218.455 1199.51 246.743 1281.46 246.743C1363.46 246.743 1429.95 218.467 1429.95 183.561V138.41C1429.95 133.427 1428.44 128.583 1425.89 123.93Z" fill="#274867"/>
<path d="M1281.46 155.616C1361.38 155.616 1426.13 134.225 1426.13 107.801C1426.13 81.4029 1361.38 60 1281.46 60C1201.59 60.0127 1136.81 81.4155 1136.81 107.814C1136.81 134.225 1201.59 155.616 1281.46 155.616Z" fill="#274867"/>
<path d="M935.424 332.069H937.424V330.069V301.877L1009.54 353.167L937.424 404.137V375.931V373.931H935.424H887.5H848.885H588.92H586.92V375.931V404.147L514.468 353.167L586.92 301.867V330.069V332.069H588.92H848.885H917.151H935.424Z" stroke="#274867" stroke-width="4"/>
<defs>
<linearGradient id="paint0_linear" x1="58.9662" y1="93.3502" x2="243.1" y2="275.897" gradientUnits="userSpaceOnUse">
<stop stop-color="#387EB8"/>
<stop offset="1" stop-color="#366994"/>
</linearGradient>
<linearGradient id="paint1_linear" x1="172.14" y1="210.409" x2="369.892" y2="397.605" gradientUnits="userSpaceOnUse">
<stop stop-color="#FFE052"/>
<stop offset="1" stop-color="#FFC331"/>
</linearGradient>
</defs>
</svg>
