<svg width="1474" height="726" viewBox="0 0 1474 726" fill="none" xmlns="http://www.w3.org/2000/svg">
<rect width="1474" height="726" fill="white"/>
<g clip-path="url(#clip0)">
<path d="M220 66C119.074 66 40 101.586 40 147C40 192.414 119.074 228 220 228C320.926 228 399.999 192.414 399.999 147C399.999 101.586 320.926 66 220 66ZM220 210C124.528 210 57.9997 176.79 57.9997 147C57.9997 117.21 124.528 83.9997 220 83.9997C315.472 83.9997 382 117.21 382 147C382 176.79 315.472 210 220 210Z" fill="#274867"/>
<path d="M391 228C386.032 228 382 232.032 382 237C382 266.791 315.472 300.001 220 300.001C124.528 300.001 57.9996 266.791 57.9996 237C57.9996 232.032 53.9673 228 48.9993 228C44.0313 228 39.999 232.032 39.999 237C39.999 282.414 119.073 318 219.999 318C320.925 318 399.998 282.414 399.998 237C399.999 232.032 395.968 228 391 228Z" fill="#274867"/>
<path d="M391 318C386.032 318 382 322.033 382 327.001C382 356.79 315.472 390 220 390C124.528 390 57.9996 356.79 57.9996 327C57.9996 322.032 53.9673 318 48.9993 318C44.0313 318 39.999 322.032 39.999 327C39.999 372.414 119.073 408 219.999 408C320.925 408 399.998 372.414 399.998 327C399.999 322.032 395.968 318 391 318Z" fill="#274867"/>
<path d="M391 138C386.032 138 382 142.032 382 147V417C382 446.79 315.472 480 220 480C124.528 480 57.9997 446.79 57.9997 417V147C57.9997 142.032 53.9674 138 48.9994 138C44.0314 138 40 142.032 40 147V417C40 462.414 119.074 498 220 498C320.926 498 399.999 462.414 399.999 417V147C399.999 142.032 395.968 138 391 138Z" fill="#274867"/>
</g>
<path d="M448 118.665L522.434 66V96.6113H872V140.389H522.434V171L448 118.665Z" fill="#007BFF"/>
<path d="M872 445.665L797.566 393V423.611H448V467.389H797.566V498L872 445.665Z" fill="#CCE5FF"/>
<rect x="560" y="182" width="201" height="201" stroke="#007BFF" stroke-width="4"/>
<path d="M72.9051 561H76.0065L67.8243 537.443H62.8094L54.6602 561H57.6955L60.137 553.774H70.4637L72.9051 561ZM64.624 540.478H65.9437L69.5399 551.069H61.0278L64.624 540.478Z" fill="#274867"/>
<path d="M98.0404 544.372H96.7867C94.3783 544.372 92.7946 545.328 91.9698 546.351H91.2439V544.372H88.5385V561H91.3429V552.686C91.3429 549.024 93.3555 547.011 96.6548 547.011H98.0404V544.372Z" fill="#274867"/>
<path d="M116.134 551.696C116.035 547.605 113.66 543.943 108.711 543.943C103.663 543.943 100.694 547.407 100.694 552.521C100.694 557.635 103.597 561.429 108.777 561.429C112.901 561.429 115.309 559.251 115.837 556.414H113C112.505 557.998 111.119 558.987 108.777 558.987C105.346 558.987 103.564 556.612 103.465 552.653H116.134V551.696ZM108.645 546.384C111.449 546.384 113.066 548.199 113.231 550.31H103.63C103.993 548.199 105.642 546.384 108.645 546.384Z" fill="#274867"/>
<path d="M120.5 537.014V561H123.305V537.014H120.5Z" fill="#274867"/>
<path d="M139.307 561H141.946V549.683C141.946 545.955 139.274 543.943 135.084 543.943C131.356 543.943 128.716 545.724 128.485 548.793H131.29C131.422 547.341 132.675 546.384 135.15 546.384C138.053 546.384 139.208 547.836 139.208 549.848V550.508H133.797C129.178 550.508 127.429 553.346 127.429 556.018C127.429 558.855 129.574 561.429 133.401 561.429C135.777 561.429 137.558 560.538 138.581 559.251H139.307V561ZM134.094 558.987C131.62 558.987 130.234 557.8 130.234 555.919C130.234 553.939 131.488 552.752 134.226 552.752H139.208V554.269C139.208 556.909 136.865 558.987 134.094 558.987Z" fill="#274867"/>
<path d="M150.941 544.372V539.357H148.137V544.372H145.267V546.813H148.137V556.348C148.137 559.878 150.249 561 153.845 561H155.132V558.492H153.911C151.667 558.492 150.941 557.635 150.941 555.952V546.813H155.132V544.372H150.941Z" fill="#274867"/>
<path d="M162.713 540.049V537.014H159.744V540.049H162.713ZM162.614 544.372H159.81V561H162.614V544.372Z" fill="#274867"/>
<path d="M175.28 543.943C170.067 543.943 167.098 547.77 167.098 552.686C167.098 557.602 170.067 561.429 175.28 561.429C180.46 561.429 183.462 557.602 183.462 552.686C183.462 547.77 180.46 543.943 175.28 543.943ZM175.28 558.987C171.585 558.987 169.902 555.952 169.902 552.686C169.902 549.419 171.585 546.384 175.28 546.384C178.942 546.384 180.658 549.419 180.658 552.686C180.658 555.952 178.942 558.987 175.28 558.987Z" fill="#274867"/>
<path d="M202.62 561V550.442C202.62 546.45 200.376 543.943 196.285 543.943C194.042 543.943 192.194 544.866 191.27 546.153H190.544V544.372H187.839V561H190.643V551.993C190.643 549.057 192.623 546.45 195.592 546.45C198.397 546.45 199.815 547.968 199.815 551.036V561H202.62Z" fill="#274867"/>
<path d="M218.341 561H220.981V549.683C220.981 545.955 218.308 543.943 214.118 543.943C210.39 543.943 207.751 545.724 207.52 548.793H210.324C210.456 547.341 211.71 546.384 214.184 546.384C217.088 546.384 218.242 547.836 218.242 549.848V550.508H212.831C208.212 550.508 206.464 553.346 206.464 556.018C206.464 558.855 208.608 561.429 212.436 561.429C214.811 561.429 216.593 560.538 217.615 559.251H218.341V561ZM213.128 558.987C210.654 558.987 209.268 557.8 209.268 555.919C209.268 553.939 210.522 552.752 213.26 552.752H218.242V554.269C218.242 556.909 215.9 558.987 213.128 558.987Z" fill="#274867"/>
<path d="M226.116 537.014V561H228.92V537.014H226.116Z" fill="#274867"/>
<path d="M255.59 537.014V546.153H254.864C253.94 544.965 252.422 543.943 249.783 543.943C245.197 543.943 242.491 547.671 242.491 552.686C242.491 557.602 245.197 561.429 249.783 561.429C252.422 561.429 254.039 560.373 254.963 559.218H255.688V561H258.394V537.014H255.59ZM250.41 558.987C247.077 558.987 245.296 556.381 245.296 552.686C245.296 548.991 247.077 546.384 250.41 546.384C254.105 546.384 255.622 549.419 255.622 552.686C255.622 555.952 254.105 558.987 250.41 558.987Z" fill="#274867"/>
<path d="M274.403 561H277.043V549.683C277.043 545.955 274.37 543.943 270.18 543.943C266.452 543.943 263.812 545.724 263.581 548.793H266.386C266.518 547.341 267.772 546.384 270.246 546.384C273.149 546.384 274.304 547.836 274.304 549.848V550.508H268.893C264.274 550.508 262.526 553.346 262.526 556.018C262.526 558.855 264.67 561.429 268.497 561.429C270.873 561.429 272.654 560.538 273.677 559.251H274.403V561ZM269.19 558.987C266.716 558.987 265.33 557.8 265.33 555.919C265.33 553.939 266.584 552.752 269.322 552.752H274.304V554.269C274.304 556.909 271.962 558.987 269.19 558.987Z" fill="#274867"/>
<path d="M286.038 544.372V539.357H283.233V544.372H280.363V546.813H283.233V556.348C283.233 559.878 285.345 561 288.941 561H290.228V558.492H289.007C286.764 558.492 286.038 557.635 286.038 555.952V546.813H290.228V544.372H286.038Z" fill="#274867"/>
<path d="M305.43 561H308.07V549.683C308.07 545.955 305.397 543.943 301.207 543.943C297.479 543.943 294.84 545.724 294.609 548.793H297.413C297.545 547.341 298.799 546.384 301.273 546.384C304.177 546.384 305.331 547.836 305.331 549.848V550.508H299.921C295.302 550.508 293.553 553.346 293.553 556.018C293.553 558.855 295.698 561.429 299.525 561.429C301.9 561.429 303.682 560.538 304.705 559.251H305.43V561ZM300.218 558.987C297.743 558.987 296.357 557.8 296.357 555.919C296.357 553.939 297.611 552.752 300.35 552.752H305.331V554.269C305.331 556.909 302.989 558.987 300.218 558.987Z" fill="#274867"/>
<path d="M321.816 543.943C319.177 543.943 317.626 544.965 316.735 546.153H316.009V537.014H313.205V561H315.91V559.218H316.636C317.56 560.373 319.177 561.429 321.816 561.429C326.402 561.429 329.107 557.602 329.107 552.686C329.107 547.671 326.402 543.943 321.816 543.943ZM321.189 558.987C317.494 558.987 315.976 555.952 315.976 552.686C315.976 549.419 317.494 546.384 321.189 546.384C324.521 546.384 326.303 548.991 326.303 552.686C326.303 556.381 324.521 558.987 321.189 558.987Z" fill="#274867"/>
<path d="M344.094 561H346.733V549.683C346.733 545.955 344.061 543.943 339.871 543.943C336.143 543.943 333.503 545.724 333.272 548.793H336.077C336.209 547.341 337.462 546.384 339.937 546.384C342.84 546.384 343.995 547.836 343.995 549.848V550.508H338.584C333.965 550.508 332.216 553.346 332.216 556.018C332.216 558.855 334.361 561.429 338.188 561.429C340.564 561.429 342.345 560.538 343.368 559.251H344.094V561ZM338.881 558.987C336.406 558.987 335.021 557.8 335.021 555.919C335.021 553.939 336.275 552.752 339.013 552.752H343.995V554.269C343.995 556.909 341.652 558.987 338.881 558.987Z" fill="#274867"/>
<path d="M356.487 550.64C354.805 550.376 353.98 549.881 353.98 548.595C353.98 547.176 355.431 546.384 357.576 546.384C359.655 546.384 361.238 547.11 361.469 548.694H364.273C363.911 545.79 361.634 543.943 357.708 543.943C353.221 543.943 351.142 546.087 351.142 548.859C351.142 551.366 352.759 552.62 355.135 553.049L358.863 553.675C360.974 554.038 361.898 554.83 361.898 556.282C361.898 558.097 360.248 558.987 357.741 558.987C355.233 558.987 353.584 558.064 353.32 556.183H350.483C350.845 559.35 353.155 561.429 357.873 561.429C362.36 561.429 364.702 558.954 364.702 556.216C364.702 553.181 362.855 551.696 359.951 551.201L358.071 550.904L356.487 550.64Z" fill="#274867"/>
<path d="M383.233 551.696C383.135 547.605 380.759 543.943 375.81 543.943C370.762 543.943 367.793 547.407 367.793 552.521C367.793 557.635 370.696 561.429 375.876 561.429C380 561.429 382.409 559.251 382.937 556.414H380.099C379.604 557.998 378.219 558.987 375.876 558.987C372.445 558.987 370.663 556.612 370.564 552.653H383.233V551.696ZM375.744 546.384C378.549 546.384 380.165 548.199 380.33 550.31H370.729C371.092 548.199 372.742 546.384 375.744 546.384Z" fill="#274867"/>
<path d="M1000.66 68H1117.27L1175.43 145.954L1117.28 223.236H1000.65L942.499 145.954L1000.66 68Z" stroke="#274867" stroke-width="4"/>
<path d="M1019.59 133.423C1012.32 133.423 1008.49 138.922 1008.49 145.755C1008.49 152.587 1012.32 158.086 1019.59 158.086C1026.82 158.086 1030.69 152.587 1030.69 145.755C1030.69 138.922 1026.82 133.423 1019.59 133.423ZM1019.59 155.353C1013.92 155.353 1011.52 150.721 1011.52 145.755C1011.52 140.789 1013.92 136.156 1019.59 136.156C1025.25 136.156 1027.65 140.789 1027.65 145.755C1027.65 150.721 1025.25 155.353 1019.59 155.353Z" fill="#274867"/>
<path d="M1043.96 140.422C1041.3 140.422 1039.73 141.455 1038.83 142.655H1038.1V133.423H1035.27V157.653H1038V155.853H1038.73C1039.66 157.02 1041.3 158.086 1043.96 158.086C1048.6 158.086 1051.33 154.22 1051.33 149.254C1051.33 144.188 1048.6 140.422 1043.96 140.422ZM1043.33 155.62C1039.6 155.62 1038.06 152.554 1038.06 149.254C1038.06 145.955 1039.6 142.888 1043.33 142.888C1046.7 142.888 1048.5 145.521 1048.5 149.254C1048.5 152.987 1046.7 155.62 1043.33 155.62Z" fill="#274867"/>
<path d="M1059.14 136.489V133.423H1056.14V136.489H1059.14ZM1053.67 164.318C1057.14 164.318 1059.07 162.252 1059.07 158.553V140.855H1056.24V158.453C1056.24 160.619 1055.4 161.852 1053.1 161.852H1051.57V164.318H1053.67Z" fill="#274867"/>
<path d="M1079.15 148.254C1079.05 144.122 1076.66 140.422 1071.66 140.422C1066.56 140.422 1063.56 143.922 1063.56 149.087C1063.56 154.253 1066.49 158.086 1071.72 158.086C1075.89 158.086 1078.32 155.886 1078.85 153.02H1075.99C1075.49 154.62 1074.09 155.62 1071.72 155.62C1068.26 155.62 1066.46 153.22 1066.36 149.221H1079.15V148.254ZM1071.59 142.888C1074.42 142.888 1076.06 144.721 1076.22 146.854H1066.52C1066.89 144.721 1068.56 142.888 1071.59 142.888Z" fill="#274867"/>
<path d="M1094.93 152.587C1094.5 154.453 1093.1 155.62 1090.7 155.62C1086.93 155.62 1085.36 152.554 1085.36 149.187C1085.36 145.855 1086.9 142.888 1090.7 142.888C1093 142.888 1094.3 144.022 1094.83 145.721H1097.66C1097.1 142.622 1094.7 140.422 1090.7 140.422C1085.46 140.422 1082.53 144.188 1082.53 149.254C1082.53 154.22 1085.46 158.086 1090.7 158.086C1094.6 158.086 1097.13 155.886 1097.76 152.587H1094.93Z" fill="#274867"/>
<path d="M1105.89 140.855V135.789H1103.05V140.855H1100.15V143.322H1103.05V152.954C1103.05 156.52 1105.19 157.653 1108.82 157.653H1110.12V155.12H1108.89C1106.62 155.12 1105.89 154.253 1105.89 152.554V143.322H1110.12V140.855H1105.89Z" fill="#274867"/>
<path d="M1261.73 68H1378.34L1436.5 145.954L1378.35 223.236H1261.72L1203.57 145.954L1261.73 68Z" stroke="#274867" stroke-width="4"/>
<path d="M1280.66 133.423C1273.4 133.423 1269.56 138.922 1269.56 145.755C1269.56 152.587 1273.4 158.086 1280.66 158.086C1287.89 158.086 1291.76 152.587 1291.76 145.755C1291.76 138.922 1287.89 133.423 1280.66 133.423ZM1280.66 155.353C1275 155.353 1272.6 150.721 1272.6 145.755C1272.6 140.789 1275 136.156 1280.66 136.156C1286.33 136.156 1288.73 140.789 1288.73 145.755C1288.73 150.721 1286.33 155.353 1280.66 155.353Z" fill="#274867"/>
<path d="M1305.04 140.422C1302.37 140.422 1300.8 141.455 1299.9 142.655H1299.17V133.423H1296.34V157.653H1299.07V155.853H1299.8C1300.74 157.02 1302.37 158.086 1305.04 158.086C1309.67 158.086 1312.4 154.22 1312.4 149.254C1312.4 144.188 1309.67 140.422 1305.04 140.422ZM1304.4 155.62C1300.67 155.62 1299.14 152.554 1299.14 149.254C1299.14 145.955 1300.67 142.888 1304.4 142.888C1307.77 142.888 1309.57 145.521 1309.57 149.254C1309.57 152.987 1307.77 155.62 1304.4 155.62Z" fill="#274867"/>
<path d="M1320.21 136.489V133.423H1317.21V136.489H1320.21ZM1314.74 164.318C1318.21 164.318 1320.14 162.252 1320.14 158.553V140.855H1317.31V158.453C1317.31 160.619 1316.48 161.852 1314.18 161.852H1312.64V164.318H1314.74Z" fill="#274867"/>
<path d="M1340.23 148.254C1340.13 144.122 1337.73 140.422 1332.73 140.422C1327.63 140.422 1324.63 143.922 1324.63 149.087C1324.63 154.253 1327.56 158.086 1332.79 158.086C1336.96 158.086 1339.39 155.886 1339.93 153.02H1337.06C1336.56 154.62 1335.16 155.62 1332.79 155.62C1329.33 155.62 1327.53 153.22 1327.43 149.221H1340.23V148.254ZM1332.66 142.888C1335.49 142.888 1337.13 144.721 1337.29 146.854H1327.6C1327.96 144.721 1329.63 142.888 1332.66 142.888Z" fill="#274867"/>
<path d="M1356 152.587C1355.57 154.453 1354.17 155.62 1351.77 155.62C1348 155.62 1346.44 152.554 1346.44 149.187C1346.44 145.855 1347.97 142.888 1351.77 142.888C1354.07 142.888 1355.37 144.022 1355.9 145.721H1358.74C1358.17 142.622 1355.77 140.422 1351.77 140.422C1346.54 140.422 1343.6 144.188 1343.6 149.254C1343.6 154.22 1346.54 158.086 1351.77 158.086C1355.67 158.086 1358.2 155.886 1358.84 152.587H1356Z" fill="#274867"/>
<path d="M1366.96 140.855V135.789H1364.13V140.855H1361.23V143.322H1364.13V152.954C1364.13 156.52 1366.26 157.653 1369.89 157.653H1371.19V155.12H1369.96C1367.69 155.12 1366.96 154.253 1366.96 152.554V143.322H1371.19V140.855H1366.96Z" fill="#274867"/>
<path d="M908.656 288H1025.27L1083.43 365.954L1025.28 443.236H908.651L850.499 365.954L908.656 288Z" stroke="#274867" stroke-width="4"/>
<path d="M927.589 353.423C920.323 353.423 916.49 358.922 916.49 365.755C916.49 372.587 920.323 378.086 927.589 378.086C934.821 378.086 938.687 372.587 938.687 365.755C938.687 358.922 934.821 353.423 927.589 353.423ZM927.589 375.353C921.923 375.353 919.523 370.721 919.523 365.755C919.523 360.789 921.923 356.156 927.589 356.156C933.254 356.156 935.654 360.789 935.654 365.755C935.654 370.721 933.254 375.353 927.589 375.353Z" fill="#274867"/>
<path d="M951.964 360.422C949.298 360.422 947.731 361.455 946.831 362.655H946.098V353.423H943.265V377.653H945.998V375.853H946.731C947.664 377.02 949.298 378.086 951.964 378.086C956.596 378.086 959.329 374.22 959.329 369.254C959.329 364.188 956.596 360.422 951.964 360.422ZM951.331 375.62C947.598 375.62 946.065 372.554 946.065 369.254C946.065 365.955 947.598 362.888 951.331 362.888C954.697 362.888 956.497 365.521 956.497 369.254C956.497 372.987 954.697 375.62 951.331 375.62Z" fill="#274867"/>
<path d="M967.136 356.489V353.423H964.137V356.489H967.136ZM961.67 384.318C965.136 384.318 967.069 382.252 967.069 378.553V360.855H964.237V378.453C964.237 380.619 963.403 381.852 961.104 381.852H959.571V384.318H961.67Z" fill="#274867"/>
<path d="M987.155 368.254C987.055 364.122 984.655 360.422 979.656 360.422C974.557 360.422 971.557 363.922 971.557 369.087C971.557 374.253 974.49 378.086 979.722 378.086C983.889 378.086 986.321 375.886 986.855 373.02H983.989C983.489 374.62 982.089 375.62 979.722 375.62C976.256 375.62 974.457 373.22 974.357 369.221H987.155V368.254ZM979.589 362.888C982.422 362.888 984.055 364.721 984.222 366.854H974.523C974.89 364.721 976.556 362.888 979.589 362.888Z" fill="#274867"/>
<path d="M1002.93 372.587C1002.5 374.453 1001.1 375.62 998.698 375.62C994.931 375.62 993.365 372.554 993.365 369.187C993.365 365.855 994.898 362.888 998.698 362.888C1001 362.888 1002.3 364.022 1002.83 365.721H1005.66C1005.1 362.622 1002.7 360.422 998.698 360.422C993.465 360.422 990.532 364.188 990.532 369.254C990.532 374.22 993.465 378.086 998.698 378.086C1002.6 378.086 1005.13 375.886 1005.76 372.587H1002.93Z" fill="#274867"/>
<path d="M1013.89 360.855V355.789H1011.05V360.855H1008.15V363.322H1011.05V372.954C1011.05 376.52 1013.19 377.653 1016.82 377.653H1018.12V375.12H1016.89C1014.62 375.12 1013.89 374.253 1013.89 372.554V363.322H1018.12V360.855H1013.89Z" fill="#274867"/>
<path d="M1169.73 288H1286.34L1344.5 365.954L1286.35 443.236H1169.72L1111.57 365.954L1169.73 288Z" stroke="#274867" stroke-width="4"/>
<path d="M1188.66 353.423C1181.4 353.423 1177.56 358.922 1177.56 365.755C1177.56 372.587 1181.4 378.086 1188.66 378.086C1195.89 378.086 1199.76 372.587 1199.76 365.755C1199.76 358.922 1195.89 353.423 1188.66 353.423ZM1188.66 375.353C1183 375.353 1180.6 370.721 1180.6 365.755C1180.6 360.789 1183 356.156 1188.66 356.156C1194.33 356.156 1196.73 360.789 1196.73 365.755C1196.73 370.721 1194.33 375.353 1188.66 375.353Z" fill="#274867"/>
<path d="M1213.04 360.422C1210.37 360.422 1208.8 361.455 1207.9 362.655H1207.17V353.423H1204.34V377.653H1207.07V375.853H1207.8C1208.74 377.02 1210.37 378.086 1213.04 378.086C1217.67 378.086 1220.4 374.22 1220.4 369.254C1220.4 364.188 1217.67 360.422 1213.04 360.422ZM1212.4 375.62C1208.67 375.62 1207.14 372.554 1207.14 369.254C1207.14 365.955 1208.67 362.888 1212.4 362.888C1215.77 362.888 1217.57 365.521 1217.57 369.254C1217.57 372.987 1215.77 375.62 1212.4 375.62Z" fill="#274867"/>
<path d="M1228.21 356.489V353.423H1225.21V356.489H1228.21ZM1222.74 384.318C1226.21 384.318 1228.14 382.252 1228.14 378.553V360.855H1225.31V378.453C1225.31 380.619 1224.48 381.852 1222.18 381.852H1220.64V384.318H1222.74Z" fill="#274867"/>
<path d="M1248.23 368.254C1248.13 364.122 1245.73 360.422 1240.73 360.422C1235.63 360.422 1232.63 363.922 1232.63 369.087C1232.63 374.253 1235.56 378.086 1240.79 378.086C1244.96 378.086 1247.39 375.886 1247.93 373.02H1245.06C1244.56 374.62 1243.16 375.62 1240.79 375.62C1237.33 375.62 1235.53 373.22 1235.43 369.221H1248.23V368.254ZM1240.66 362.888C1243.49 362.888 1245.13 364.721 1245.29 366.854H1235.6C1235.96 364.721 1237.63 362.888 1240.66 362.888Z" fill="#274867"/>
<path d="M1264 372.587C1263.57 374.453 1262.17 375.62 1259.77 375.62C1256 375.62 1254.44 372.554 1254.44 369.187C1254.44 365.855 1255.97 362.888 1259.77 362.888C1262.07 362.888 1263.37 364.022 1263.9 365.721H1266.74C1266.17 362.622 1263.77 360.422 1259.77 360.422C1254.54 360.422 1251.6 364.188 1251.6 369.254C1251.6 374.22 1254.54 378.086 1259.77 378.086C1263.67 378.086 1266.2 375.886 1266.84 372.587H1264Z" fill="#274867"/>
<path d="M1274.96 360.855V355.789H1272.13V360.855H1269.23V363.322H1272.13V372.954C1272.13 376.52 1274.26 377.653 1277.89 377.653H1279.19V375.12H1277.96C1275.69 375.12 1274.96 374.253 1274.96 372.554V363.322H1279.19V360.855H1274.96Z" fill="#274867"/>
<path d="M1000.66 508H1117.27L1175.43 585.954L1117.28 663.236H1000.65L942.499 585.954L1000.66 508Z" stroke="#274867" stroke-width="4"/>
<path d="M1019.59 573.423C1012.32 573.423 1008.49 578.922 1008.49 585.755C1008.49 592.587 1012.32 598.086 1019.59 598.086C1026.82 598.086 1030.69 592.587 1030.69 585.755C1030.69 578.922 1026.82 573.423 1019.59 573.423ZM1019.59 595.353C1013.92 595.353 1011.52 590.721 1011.52 585.755C1011.52 580.789 1013.92 576.156 1019.59 576.156C1025.25 576.156 1027.65 580.789 1027.65 585.755C1027.65 590.721 1025.25 595.353 1019.59 595.353Z" fill="#274867"/>
<path d="M1043.96 580.422C1041.3 580.422 1039.73 581.455 1038.83 582.655H1038.1V573.423H1035.27V597.653H1038V595.853H1038.73C1039.66 597.02 1041.3 598.086 1043.96 598.086C1048.6 598.086 1051.33 594.22 1051.33 589.254C1051.33 584.188 1048.6 580.422 1043.96 580.422ZM1043.33 595.62C1039.6 595.62 1038.06 592.554 1038.06 589.254C1038.06 585.955 1039.6 582.888 1043.33 582.888C1046.7 582.888 1048.5 585.521 1048.5 589.254C1048.5 592.987 1046.7 595.62 1043.33 595.62Z" fill="#274867"/>
<path d="M1059.14 576.489V573.423H1056.14V576.489H1059.14ZM1053.67 604.318C1057.14 604.318 1059.07 602.252 1059.07 598.553V580.855H1056.24V598.453C1056.24 600.619 1055.4 601.852 1053.1 601.852H1051.57V604.318H1053.67Z" fill="#274867"/>
<path d="M1079.15 588.254C1079.05 584.122 1076.66 580.422 1071.66 580.422C1066.56 580.422 1063.56 583.922 1063.56 589.087C1063.56 594.253 1066.49 598.086 1071.72 598.086C1075.89 598.086 1078.32 595.886 1078.85 593.02H1075.99C1075.49 594.62 1074.09 595.62 1071.72 595.62C1068.26 595.62 1066.46 593.22 1066.36 589.221H1079.15V588.254ZM1071.59 582.888C1074.42 582.888 1076.06 584.721 1076.22 586.854H1066.52C1066.89 584.721 1068.56 582.888 1071.59 582.888Z" fill="#274867"/>
<path d="M1094.93 592.587C1094.5 594.453 1093.1 595.62 1090.7 595.62C1086.93 595.62 1085.36 592.554 1085.36 589.187C1085.36 585.855 1086.9 582.888 1090.7 582.888C1093 582.888 1094.3 584.022 1094.83 585.721H1097.66C1097.1 582.622 1094.7 580.422 1090.7 580.422C1085.46 580.422 1082.53 584.188 1082.53 589.254C1082.53 594.22 1085.46 598.086 1090.7 598.086C1094.6 598.086 1097.13 595.886 1097.76 592.587H1094.93Z" fill="#274867"/>
<path d="M1105.89 580.855V575.789H1103.05V580.855H1100.15V583.322H1103.05V592.954C1103.05 596.52 1105.19 597.653 1108.82 597.653H1110.12V595.12H1108.89C1106.62 595.12 1105.89 594.253 1105.89 592.554V583.322H1110.12V580.855H1105.89Z" fill="#274867"/>
<path d="M1261.73 508H1378.34L1436.5 585.954L1378.35 663.236H1261.72L1203.57 585.954L1261.73 508Z" stroke="#274867" stroke-width="4"/>
<path d="M1280.66 573.423C1273.4 573.423 1269.56 578.922 1269.56 585.755C1269.56 592.587 1273.4 598.086 1280.66 598.086C1287.89 598.086 1291.76 592.587 1291.76 585.755C1291.76 578.922 1287.89 573.423 1280.66 573.423ZM1280.66 595.353C1275 595.353 1272.6 590.721 1272.6 585.755C1272.6 580.789 1275 576.156 1280.66 576.156C1286.33 576.156 1288.73 580.789 1288.73 585.755C1288.73 590.721 1286.33 595.353 1280.66 595.353Z" fill="#274867"/>
<path d="M1305.04 580.422C1302.37 580.422 1300.8 581.455 1299.9 582.655H1299.17V573.423H1296.34V597.653H1299.07V595.853H1299.8C1300.74 597.02 1302.37 598.086 1305.04 598.086C1309.67 598.086 1312.4 594.22 1312.4 589.254C1312.4 584.188 1309.67 580.422 1305.04 580.422ZM1304.4 595.62C1300.67 595.62 1299.14 592.554 1299.14 589.254C1299.14 585.955 1300.67 582.888 1304.4 582.888C1307.77 582.888 1309.57 585.521 1309.57 589.254C1309.57 592.987 1307.77 595.62 1304.4 595.62Z" fill="#274867"/>
<path d="M1320.21 576.489V573.423H1317.21V576.489H1320.21ZM1314.74 604.318C1318.21 604.318 1320.14 602.252 1320.14 598.553V580.855H1317.31V598.453C1317.31 600.619 1316.48 601.852 1314.18 601.852H1312.64V604.318H1314.74Z" fill="#274867"/>
<path d="M1340.23 588.254C1340.13 584.122 1337.73 580.422 1332.73 580.422C1327.63 580.422 1324.63 583.922 1324.63 589.087C1324.63 594.253 1327.56 598.086 1332.79 598.086C1336.96 598.086 1339.39 595.886 1339.93 593.02H1337.06C1336.56 594.62 1335.16 595.62 1332.79 595.62C1329.33 595.62 1327.53 593.22 1327.43 589.221H1340.23V588.254ZM1332.66 582.888C1335.49 582.888 1337.13 584.721 1337.29 586.854H1327.6C1327.96 584.721 1329.63 582.888 1332.66 582.888Z" fill="#274867"/>
<path d="M1356 592.587C1355.57 594.453 1354.17 595.62 1351.77 595.62C1348 595.62 1346.44 592.554 1346.44 589.187C1346.44 585.855 1347.97 582.888 1351.77 582.888C1354.07 582.888 1355.37 584.022 1355.9 585.721H1358.74C1358.17 582.622 1355.77 580.422 1351.77 580.422C1346.54 580.422 1343.6 584.188 1343.6 589.254C1343.6 594.22 1346.54 598.086 1351.77 598.086C1355.67 598.086 1358.2 595.886 1358.84 592.587H1356Z" fill="#274867"/>
<path d="M1366.96 580.855V575.789H1364.13V580.855H1361.23V583.322H1364.13V592.954C1364.13 596.52 1366.26 597.653 1369.89 597.653H1371.19V595.12H1369.96C1367.69 595.12 1366.96 594.253 1366.96 592.554V583.322H1371.19V580.855H1366.96Z" fill="#274867"/>
<path d="M626.069 267.019C616.479 267.019 611.42 274.277 611.42 283.295C611.42 292.313 616.479 299.572 626.069 299.572C635.615 299.572 640.717 292.313 640.717 283.295C640.717 274.277 635.615 267.019 626.069 267.019ZM626.069 295.965C618.59 295.965 615.423 289.85 615.423 283.295C615.423 276.741 618.59 270.626 626.069 270.626C633.547 270.626 636.714 276.741 636.714 283.295C636.714 289.85 633.547 295.965 626.069 295.965Z" fill="#007BFF"/>
<path d="M647.156 267.591V299H651.115V285.847H660.265C661.101 285.847 661.981 285.803 662.817 285.715L667.524 299H671.615L666.6 284.791C669.767 283.383 671.395 280.612 671.395 276.741C671.395 270.978 667.7 267.591 661.057 267.591H647.156ZM651.115 282.328V271.11H660.485C665.544 271.11 667.392 273.222 667.392 276.741C667.392 280.216 665.544 282.328 660.485 282.328H651.115Z" fill="#007BFF"/>
<path d="M678.345 299H682.216V272.078H683.184L691.234 286.991H695.369L703.419 272.078H704.387V299H708.258V267.591H701.616L693.829 282.328H692.861L684.943 267.591H678.345V299Z" fill="#007BFF"/>
<defs>
<clipPath id="clip0">
<rect width="432" height="432" fill="white" transform="translate(4 66)"/>
</clipPath>
</defs>
</svg>
