<?xml version="1.0" encoding="UTF-8" standalone="no"?>
<!-- Generator: Adobe Illustrator 20.1.0, SVG Export Plug-In . SVG Version: 6.00 Build 0)  -->

<svg
   xmlns:dc="http://purl.org/dc/elements/1.1/"
   xmlns:cc="http://creativecommons.org/ns#"
   xmlns:rdf="http://www.w3.org/1999/02/22-rdf-syntax-ns#"
   xmlns:svg="http://www.w3.org/2000/svg"
   xmlns="http://www.w3.org/2000/svg"
   xmlns:sodipodi="http://sodipodi.sourceforge.net/DTD/sodipodi-0.dtd"
   xmlns:inkscape="http://www.inkscape.org/namespaces/inkscape"
   version="1.1"
   id="Layer_1"
   x="0px"
   y="0px"
   viewBox="0 0 1600 1712.9"
   style="enable-background:new 0 0 1600 1712.9;"
   xml:space="preserve"
   sodipodi:docname="Untitled diagram.svg"
   inkscape:version="0.92.4 (unknown)"><metadata
   id="metadata1680"><rdf:RDF><cc:Work
       rdf:about=""><dc:format>image/svg+xml</dc:format><dc:type
         rdf:resource="http://purl.org/dc/dcmitype/StillImage" /></cc:Work></rdf:RDF></metadata><defs
   id="defs1678"><marker
     inkscape:stockid="Arrow2Lend"
     orient="auto"
     refY="0.0"
     refX="0.0"
     id="marker7438"
     style="overflow:visible;"
     inkscape:isstock="true"><path
       id="path7436"
       style="fill-rule:evenodd;stroke-width:0.625;stroke-linejoin:round;stroke:#007bff;stroke-opacity:1;fill:#007bff;fill-opacity:1"
       d="M 8.7185878,4.0337352 L -2.2072895,0.016013256 L 8.7185884,-4.0017078 C 6.9730900,-1.6296469 6.9831476,1.6157441 8.7185878,4.0337352 z "
       transform="scale(1.1) rotate(180) translate(1,0)" /></marker><marker
     inkscape:stockid="Arrow2Lend"
     orient="auto"
     refY="0.0"
     refX="0.0"
     id="Arrow2Lend"
     style="overflow:visible;"
     inkscape:isstock="true"><path
       id="path6221"
       style="fill-rule:evenodd;stroke-width:0.625;stroke-linejoin:round;stroke:#007bff;stroke-opacity:1;fill:#007bff;fill-opacity:1"
       d="M 8.7185878,4.0337352 L -2.2072895,0.016013256 L 8.7185884,-4.0017078 C 6.9730900,-1.6296469 6.9831476,1.6157441 8.7185878,4.0337352 z "
       transform="scale(1.1) rotate(180) translate(1,0)" /></marker><marker
     inkscape:stockid="Arrow1Lstart"
     orient="auto"
     refY="0.0"
     refX="0.0"
     id="Arrow1Lstart"
     style="overflow:visible"
     inkscape:isstock="true"><path
       id="path6200"
       d="M 0.0,0.0 L 5.0,-5.0 L -12.5,0.0 L 5.0,5.0 L 0.0,0.0 z "
       style="fill-rule:evenodd;stroke:#000000;stroke-width:1pt;stroke-opacity:1;fill:#000000;fill-opacity:1"
       transform="scale(0.8) translate(12.5,0)" /></marker><marker
     inkscape:stockid="Arrow2Lstart"
     orient="auto"
     refY="0.0"
     refX="0.0"
     id="Arrow2Lstart"
     style="overflow:visible"
     inkscape:isstock="true"><path
       id="path6218"
       style="fill-rule:evenodd;stroke-width:0.625;stroke-linejoin:round;stroke:#000000;stroke-opacity:1;fill:#000000;fill-opacity:1"
       d="M 8.7185878,4.0337352 L -2.2072895,0.016013256 L 8.7185884,-4.0017078 C 6.9730900,-1.6296469 6.9831476,1.6157441 8.7185878,4.0337352 z "
       transform="scale(1.1) translate(1,0)" /></marker></defs><sodipodi:namedview
   pagecolor="#ffffff"
   bordercolor="#666666"
   borderopacity="1"
   objecttolerance="10"
   gridtolerance="10"
   guidetolerance="10"
   inkscape:pageopacity="0"
   inkscape:pageshadow="2"
   inkscape:window-width="1920"
   inkscape:window-height="1016"
   id="namedview1676"
   showgrid="false"
   inkscape:snap-bbox="true"
   inkscape:zoom="0.48163932"
   inkscape:cx="376.44654"
   inkscape:cy="856.45001"
   inkscape:window-x="0"
   inkscape:window-y="27"
   inkscape:window-maximized="1"
   inkscape:current-layer="Layer_1" />
<style
   type="text/css"
   id="style881">
	.st0{fill:none;stroke:#082E51;stroke-width:4;stroke-miterlimit:10;}
	.st1{fill:none;stroke:#007BFF;stroke-width:3;stroke-linecap:round;stroke-linejoin:round;stroke-miterlimit:10;}
	.st2{fill:#007BFF;}
	.st3{fill:#082E51;}
</style>
<path
   class="st0"
   d="M421.7,1670.1h-351c-10.7,0-19.5-8.8-19.5-19.5v-154.5c0-10.7,8.8-19.5,19.5-19.5h351  c10.7,0,19.5,8.8,19.5,19.5v154.5C441.2,1661.4,432.4,1670.1,421.7,1670.1z"
   id="path883" />
<g
   id="g889">
	<path
   pointer-events="none"
   class="st1"
   d="M839.9,126l175.6,149.2"
   id="path885" />
	<path
   pointer-events="none"
   class="st2"
   d="M1030.9,288.2l-29.1-7.1l13.7-5.8l3.6-14.5L1030.9,288.2z"
   id="path887" />
</g>
<g
   id="g895">
	<path
   pointer-events="none"
   class="st1"
   d="M1195.8,854.1l95.2,180.7"
   id="path891" />
	<path
   pointer-events="none"
   class="st2"
   d="M1300.8,1052.3l-24.8-16.8l14.9-0.6l8.5-12.4L1300.8,1052.3z"
   id="path893" />
</g>
<g
   id="g901">
	<path
   pointer-events="none"
   class="st1"
   d="M766,1034.8l86.9-180.7"
   id="path897" />
	<path
   pointer-events="none"
   class="st2"
   d="M757.6,1022.5l8.5,12.4l14.9,0.6l-24.8,16.8L757.6,1022.5z"
   id="path899" />
</g>

<g
   id="g913">
	<path
   pointer-events="none"
   class="st1"
   d="M472.2,1569.5l814.2-187.7"
   id="path909" />
	<path
   pointer-events="none"
   class="st2"
   d="M475.7,1555.1l-3.5,14.6l9.5,11.5l-29.1-7.2L475.7,1555.1z"
   id="path911" />
</g>
<g
   id="g919">
	<path
   pointer-events="none"
   class="st1"
   d="M272.9,275.2L448.5,126"
   id="path915" />
	<path
   pointer-events="none"
   class="st2"
   d="M269.4,260.8l3.6,14.5l13.7,5.8l-29.1,7.1L269.4,260.8z"
   id="path917" />
</g>
<g
   id="g925">
	<path
   pointer-events="none"
   class="st1"
   d="M250.9,467.8l-0.6-43.9"
   id="path921" />
	<path
   pointer-events="none"
   class="st2"
   d="M237.5,461.4l13.5,6.5l13.2-6.9l-13.1,27L237.5,461.4z"
   id="path923" />
</g>
<g
   id="g931">
	<path
   pointer-events="none"
   class="st1"
   d="M1024.4,467.9l-0.6-43.9"
   id="path927" />
	<path
   pointer-events="none"
   class="st2"
   d="M1011,461.4l13.5,6.5l13.2-6.9l-13.1,27L1011,461.4z"
   id="path929" />
</g>
<g
   id="g937">
	<path
   pointer-events="none"
   class="st1"
   d="M1272.5,1235.1l-0.6-43.9"
   id="path933" />
	<path
   pointer-events="none"
   class="st2"
   d="M1259.1,1228.6l13.5,6.5l13.2-6.9l-13.1,27L1259.1,1228.6z"
   id="path935" />
</g>

<g
   id="g949">
	<path
   pointer-events="none"
   class="st1"
   d="M1024.4,657.3l-0.6-43.9"
   id="path945" />
	<path
   pointer-events="none"
   class="st2"
   d="M1011,650.9l13.5,6.5l13.2-6.9l-13.1,27L1011,650.9z"
   id="path947" />
</g>
<g
   id="g955">
	<path
   pointer-events="none"
   class="st1"
   d="M250.9,1447.4l4.9-833.9"
   id="path951" />
	<path
   pointer-events="none"
   class="st2"
   d="M237.5,1440.9l13.5,6.5l13.2-6.9l-13.1,27L237.5,1440.9z"
   id="path953" />
</g>
<g
   id="g981">
	<path
   class="st0"
   d="M828,184.8H460.9c-6.3,0-11.4-5.1-11.4-11.4V79.3c0-6.3,5.1-11.4,11.4-11.4H828c6.3,0,11.4,5.1,11.4,11.4v94.1   C839.4,179.7,834.3,184.8,828,184.8z"
   id="path957" />
	<g
   id="g979">
		<path
   class="st3"
   d="M526.9,135.8v4.4h-27.7v-38.5H526v4.4h-21.9V118h17.7v4.4h-17.7v13.3h22.8V135.8z"
   id="path959" />
		<path
   class="st3"
   d="M545.3,128.8h-1.9l-6.9,11.4h-5l8.5-13.9l-7.6-13.3h4.9l6.3,10.8h1.9l6.4-10.8h4.8l-7.7,13.1l8.4,14.1h-5.2    L545.3,128.8z"
   id="path961" />
		<path
   class="st3"
   d="M586.5,126.5h-20.7c0.2,6.5,3.1,10.4,8.7,10.4c3.8,0,6.1-1.6,6.9-4.2h4.6c-0.9,4.6-4.8,8.2-11.5,8.2    c-8.5,0-13.2-6.2-13.2-14.6s4.9-14,13.1-14c8.1,0,12,6,12.1,12.7L586.5,126.5L586.5,126.5z M566,122.7h15.7    c-0.3-3.5-2.9-6.4-7.5-6.4C569.3,116.3,566.6,119.3,566,122.7z"
   id="path963" />
		<path
   class="st3"
   d="M616.5,132c-1,5.3-5.1,8.9-11.4,8.9c-8.5,0-13.2-6.3-13.2-14.3c0-8.2,4.7-14.3,13.2-14.3    c6.5,0,10.4,3.6,11.3,8.6h-4.6c-0.9-2.8-3-4.6-6.7-4.6c-6.1,0-8.6,4.8-8.6,10.2s2.5,10.4,8.6,10.4c3.9,0,6.1-1.9,6.8-4.9    L616.5,132L616.5,132z"
   id="path965" />
		<path
   class="st3"
   d="M627.5,113v16.3c0,5,2.3,7.5,6.9,7.5c4.8,0,8.1-4.2,8.1-9.1V113h4.6v27.2h-4.4v-2.9h-1.2    c-1.5,2.1-4.5,3.6-8.2,3.6c-6.7,0-10.4-4.1-10.4-10.6V113H627.5z"
   id="path967" />
		<path
   class="st3"
   d="M669.1,113v4h-6.8v14.9c0,2.8,1.2,4.2,4.9,4.2h2v4.1H667c-5.9,0-9.3-1.8-9.3-7.6V117H653v-4h4.7v-8.2h4.6v8.2    H669.1z"
   id="path969" />
		<path
   class="st3"
   d="M699.8,126.5h-20.7c0.2,6.5,3.1,10.4,8.7,10.4c3.8,0,6.1-1.6,6.9-4.2h4.6c-0.9,4.6-4.8,8.2-11.5,8.2    c-8.5,0-13.2-6.2-13.2-14.6s4.9-14,13.1-14c8.1,0,12,6,12.1,12.7L699.8,126.5L699.8,126.5z M679.4,122.7H695    c-0.3-3.5-2.9-6.4-7.5-6.4C682.6,116.3,679.9,119.3,679.4,122.7z"
   id="path971" />
		<path
   class="st3"
   d="M735.1,113v4h-6.8v14.9c0,2.8,1.2,4.2,4.9,4.2h2v4.1H733c-5.9,0-9.3-1.8-9.3-7.6V117H719v-4h4.7v-8.2h4.6v8.2    H735.1z"
   id="path973" />
		<path
   class="st3"
   d="M758.1,117.3h-2.3c-5.4,0-8.7,3.3-8.7,9.3v13.6h-4.6V113h4.4v3.2h1.2c1.3-1.7,3.9-3.2,7.9-3.2h2L758.1,117.3    L758.1,117.3z"
   id="path975" />
		<path
   class="st3"
   d="M768.8,151l5.6-13.3L762.8,113h4.9l8.3,17.9h1.3l7.5-17.9h4.8l-16.3,38H768.8z"
   id="path977" />
	</g>
</g>
<g
   id="g1019">
	<path
   class="st3"
   d="M166.8,1550.5v4.4h-27.7v-38.5h26.8v4.4H144v11.9h17.7v4.4H144v13.3L166.8,1550.5L166.8,1550.5z"
   id="path983" />
	<path
   class="st3"
   d="M185.2,1543.5h-1.9l-6.9,11.4h-5l8.5-13.9l-7.6-13.3h4.9l6.3,10.8h1.9l6.4-10.8h4.8l-7.7,13.1l8.4,14.1H192   L185.2,1543.5z"
   id="path985" />
	<path
   class="st3"
   d="M226.4,1541.2h-20.7c0.2,6.5,3.1,10.4,8.7,10.4c3.8,0,6.1-1.6,6.9-4.2h4.6c-0.9,4.6-4.8,8.2-11.5,8.2   c-8.5,0-13.2-6.2-13.2-14.6s4.9-14,13.1-14c8.1,0,12,6,12.1,12.7L226.4,1541.2L226.4,1541.2z M205.9,1537.4h15.7   c-0.3-3.5-2.9-6.4-7.5-6.4C209.2,1531,206.5,1534,205.9,1537.4z"
   id="path987" />
	<path
   class="st3"
   d="M256.5,1546.7c-1,5.3-5.1,8.9-11.4,8.9c-8.5,0-13.2-6.3-13.2-14.3c0-8.2,4.7-14.3,13.2-14.3   c6.5,0,10.4,3.6,11.3,8.6h-4.6c-0.9-2.8-3-4.6-6.7-4.6c-6.1,0-8.6,4.8-8.6,10.2c0,5.4,2.5,10.4,8.6,10.4c3.9,0,6.1-1.9,6.8-4.9   L256.5,1546.7L256.5,1546.7z"
   id="path989" />
	<path
   class="st3"
   d="M267.5,1527.7v16.3c0,5,2.3,7.5,6.9,7.5c4.8,0,8.1-4.2,8.1-9.1v-14.7h4.6v27.2h-4.4v-2.9h-1.2   c-1.5,2.1-4.5,3.6-8.2,3.6c-6.7,0-10.4-4.1-10.4-10.6v-17.3H267.5z"
   id="path991" />
	<path
   class="st3"
   d="M309,1527.7v4h-6.8v14.9c0,2.8,1.2,4.2,4.9,4.2h2v4.1H307c-5.9,0-9.3-1.8-9.3-7.6v-15.6H293v-4h4.7v-8.2h4.6   v8.2H309z"
   id="path993" />
	<path
   class="st3"
   d="M339.7,1541.2H319c0.2,6.5,3.1,10.4,8.7,10.4c3.8,0,6.1-1.6,6.9-4.2h4.6c-0.9,4.6-4.8,8.2-11.5,8.2   c-8.5,0-13.2-6.2-13.2-14.6s4.9-14,13.1-14c8.1,0,12,6,12.1,12.7V1541.2z M319.3,1537.4H335c-0.3-3.5-2.9-6.4-7.5-6.4   C322.6,1531,319.9,1534,319.3,1537.4z"
   id="path995" />
	<path
   class="st3"
   d="M104.1,1596.4v23.2h-4.6v-23.2h-4.7v-4h4.7v-3.1c0-6.2,3.5-8.9,9.3-8.9h2.6v4h-2.6c-3.6,0-4.8,2.3-4.8,5.1v3   h7.4v4L104.1,1596.4L104.1,1596.4z M117,1585.3v-5h4.9v5H117z M121.7,1619.6h-4.6v-27.2h4.6V1619.6z"
   id="path997" />
	<path
   class="st3"
   d="M150.3,1619.6v-16.3c0-5-2.3-7.5-6.9-7.5c-4.9,0-8.1,4.3-8.1,9.1v14.7h-4.6v-27.2h4.4v2.9h1.2   c1.5-2.1,4.5-3.6,8.2-3.6c6.7,0,10.4,4.1,10.4,10.6v17.3H150.3z"
   id="path999" />
	<path
   class="st3"
   d="M180.6,1616.7h-1.2c-1.7,2.1-4.6,3.6-8.5,3.6c-6.3,0-9.8-4.2-9.8-8.8c0-4.4,2.9-9,10.4-9h8.8v-1.1   c0-3.3-1.9-5.7-6.6-5.7c-4,0-6.1,1.6-6.3,3.9h-4.6c0.4-5,4.7-7.9,10.8-7.9c6.8,0,11.2,3.3,11.2,9.4v18.5h-4.3v-2.9H180.6z    M180.4,1608.6v-2.5h-8.1c-4.5,0-6.5,1.9-6.5,5.2c0,3.1,2.3,5,6.3,5C176.6,1616.3,180.4,1612.9,180.4,1608.6z"
   id="path1001" />
	<path
   class="st3"
   d="M197.9,1580.4v39.2h-4.6v-39.2H197.9z"
   id="path1003" />
	<path
   class="st3"
   d="M211.3,1580.4v39.2h-4.6v-39.2H211.3z"
   id="path1005" />
	<path
   class="st3"
   d="M222.9,1630.4l5.6-13.3l-11.6-24.6h4.9l8.3,17.9h1.3l7.5-17.9h4.8l-16.3,38L222.9,1630.4L222.9,1630.4z"
   id="path1007" />
	<path
   class="st3"
   d="M290.2,1606c0,8-4.4,14.3-11.9,14.3c-4.3,0-7-1.7-8.5-3.6h-1.2v2.9h-4.4v-39.2h4.6v14.9h1.2   c1.5-1.9,4-3.6,8.3-3.6C285.7,1591.7,290.2,1597.8,290.2,1606z M285.6,1606c0-6-2.9-10.3-8.4-10.3c-6,0-8.5,5-8.5,10.3   s2.5,10.3,8.5,10.3C282.7,1616.3,285.6,1612,285.6,1606z"
   id="path1009" />
	<path
   class="st3"
   d="M301.9,1580.4v39.2h-4.6v-39.2H301.9z"
   id="path1011" />
	<path
   class="st3"
   d="M335.8,1606c0,8-4.9,14.3-13.4,14.3S309,1614,309,1606s4.9-14.3,13.4-14.3S335.8,1598,335.8,1606z M331.2,1606   c0-5.3-2.8-10.3-8.8-10.3s-8.8,5-8.8,10.3s2.8,10.3,8.8,10.3C328.4,1616.3,331.2,1611.3,331.2,1606z"
   id="path1013" />
	<path
   class="st3"
   d="M366,1611.4c-1,5.3-5.1,8.9-11.4,8.9c-8.5,0-13.2-6.3-13.2-14.3c0-8.2,4.7-14.3,13.2-14.3   c6.5,0,10.4,3.6,11.3,8.6h-4.6c-0.9-2.8-3-4.6-6.7-4.6c-6.1,0-8.6,4.8-8.6,10.2c0,5.4,2.5,10.4,8.6,10.4c3.9,0,6.1-1.9,6.8-4.9   L366,1611.4L366,1611.4z"
   id="path1015" />
	<path
   class="st3"
   d="M392.6,1619.6l-7.8-14.8h-1.2l-6.3,6.9v7.9h-4.6v-39.2h4.6v25.7l12.8-13.6h5.4l-7.8,8.4l9.7,18.8h-4.8V1619.6z   "
   id="path1017" />
</g>
<g
   id="g1055">
	<path
   class="st3"
   d="M947.8,133v26.4h-3.3V133H947.8z"
   id="path1021" />
	<path
   class="st3"
   d="M958.7,143.6v15.9h-3.1v-15.9h-3.2v-2.7h3.2v-2.1c0-4.3,2.4-6.1,6.4-6.1h1.8v2.7H962c-2.5,0-3.3,1.6-3.3,3.5v2   h5.1v2.7L958.7,143.6L958.7,143.6z"
   id="path1023" />
	<path
   class="st3"
   d="M994.5,150.1h-14.2c0.1,4.4,2.1,7.1,6,7.1c2.6,0,4.2-1.1,4.7-2.9h3.2c-0.6,3.2-3.3,5.6-7.9,5.6   c-5.8,0-9.1-4.3-9.1-10s3.3-9.6,9-9.6c5.5,0,8.2,4.1,8.3,8.7V150.1z M980.5,147.5h10.8c-0.2-2.4-2-4.4-5.1-4.4   C982.7,143.1,980.9,145.1,980.5,147.5z"
   id="path1025" />
	<path
   class="st3"
   d="M1006.7,151.7h-1.3l-4.7,7.8h-3.4l5.8-9.5l-5.2-9.1h3.3l4.3,7.4h1.3l4.4-7.4h3.3l-5.3,9l5.8,9.7h-3.6   L1006.7,151.7z"
   id="path1027" />
	<path
   class="st3"
   d="M1034.5,153.8c-0.7,3.7-3.5,6.1-7.8,6.1c-5.8,0-9.1-4.3-9.1-9.8c0-5.6,3.3-9.8,9.1-9.8c4.4,0,7.1,2.4,7.7,5.9   h-3.1c-0.6-1.9-2-3.1-4.6-3.1c-4.2,0-5.9,3.3-5.9,7s1.7,7.1,5.9,7.1c2.7,0,4.2-1.3,4.7-3.4H1034.5z"
   id="path1029" />
	<path
   class="st3"
   d="M1055.3,150.1h-14.2c0.1,4.4,2.1,7.1,6,7.1c2.6,0,4.2-1.1,4.7-2.9h3.2c-0.6,3.2-3.3,5.6-7.9,5.6   c-5.8,0-9.1-4.3-9.1-10s3.3-9.6,9-9.6c5.5,0,8.2,4.1,8.3,8.7V150.1z M1041.3,147.5h10.8c-0.2-2.4-2-4.4-5.1-4.4   C1043.6,143.1,1041.7,145.1,1041.3,147.5z"
   id="path1031" />
	<path
   class="st3"
   d="M1063.3,140.8v2h0.8c1-1.3,2.8-2.5,5.8-2.5c5.1,0,8.2,4.3,8.2,9.8c0,5.6-3,9.8-8.2,9.8c-3,0-4.7-1.1-5.7-2.5   h-0.8v9.4h-3.1v-26H1063.3z M1063.3,150.1c0,3.7,1.7,7.1,5.8,7.1c3.7,0,5.7-2.9,5.7-7.1c0-4.1-2-7.1-5.7-7.1   C1065,143.1,1063.3,146.5,1063.3,150.1z"
   id="path1033" />
	<path
   class="st3"
   d="M1092,140.8v2.7h-4.7v10.2c0,1.9,0.8,2.8,3.3,2.8h1.4v2.8h-1.4c-4,0-6.4-1.3-6.4-5.2v-10.7h-3.2v-2.7h3.2v-5.6   h3.1v5.6L1092,140.8L1092,140.8z"
   id="path1035" />
	<path
   class="st3"
   d="M1097.2,136v-3.4h3.3v3.4H1097.2z M1100.4,159.5h-3.1v-18.6h3.1V159.5z"
   id="path1037" />
	<path
   class="st3"
   d="M1123.8,150.1c0,5.5-3.4,9.8-9.2,9.8c-5.8,0-9.2-4.3-9.2-9.8s3.3-9.8,9.2-9.8   C1120.4,140.3,1123.8,144.6,1123.8,150.1z M1120.7,150.1c0-3.7-1.9-7.1-6-7.1s-6,3.4-6,7.1s1.9,7.1,6,7.1   C1118.7,157.2,1120.7,153.8,1120.7,150.1z"
   id="path1039" />
	<path
   class="st3"
   d="M1142.1,159.5v-11.2c0-3.4-1.6-5.1-4.7-5.1c-3.3,0-5.5,2.9-5.5,6.2v10.1h-3.1v-18.6h3v2h0.8   c1-1.4,3.1-2.5,5.6-2.5c4.6,0,7.1,2.8,7.1,7.3v11.8H1142.1z"
   id="path1041" />
	<path
   class="st3"
   d="M1005.1,189.6c0,5.5-3.4,9.8-9.2,9.8s-9.2-4.3-9.2-9.8s3.3-9.8,9.2-9.8   C1001.7,179.8,1005.1,184.1,1005.1,189.6z M1002,189.6c0-3.7-1.9-7.1-6-7.1s-6,3.4-6,7.1s1.9,7.1,6,7.1   C1000,196.7,1002,193.3,1002,189.6z"
   id="path1043" />
	<path
   class="st3"
   d="M1025.8,193.3c-0.7,3.7-3.5,6.1-7.8,6.1c-5.8,0-9.1-4.3-9.1-9.8c0-5.6,3.3-9.8,9.1-9.8c4.4,0,7.1,2.4,7.7,5.9   h-3.1c-0.6-1.9-2-3.1-4.6-3.1c-4.2,0-5.9,3.3-5.9,7s1.7,7.1,5.9,7.1c2.7,0,4.2-1.3,4.7-3.4H1025.8z"
   id="path1045" />
	<path
   class="st3"
   d="M1046.2,193.3c-0.7,3.7-3.5,6.1-7.8,6.1c-5.8,0-9.1-4.3-9.1-9.8c0-5.6,3.3-9.8,9.1-9.8c4.4,0,7.1,2.4,7.7,5.9   h-3.1c-0.6-1.9-2-3.1-4.6-3.1c-4.2,0-5.9,3.3-5.9,7s1.7,7.1,5.9,7.1c2.7,0,4.2-1.3,4.7-3.4H1046.2z"
   id="path1047" />
	<path
   class="st3"
   d="M1053.8,180.3v11.2c0,3.4,1.6,5.1,4.7,5.1c3.3,0,5.5-2.8,5.5-6.2v-10.1h3.1V199h-3v-2h-0.8   c-1,1.4-3.1,2.5-5.6,2.5c-4.6,0-7.1-2.8-7.1-7.3v-11.8L1053.8,180.3L1053.8,180.3z"
   id="path1049" />
	<path
   class="st3"
   d="M1084,183.3h-1.6c-3.7,0-6,2.3-6,6.4v9.3h-3.1v-18.6h3v2.2h0.8c0.9-1.1,2.7-2.2,5.4-2.2h1.4L1084,183.3   L1084,183.3z"
   id="path1051" />
	<path
   class="st3"
   d="M1095,187.6l2.1,0.3c3.3,0.6,5.3,2.2,5.3,5.6c0,3.1-2.6,5.8-7.7,5.8c-5.3,0-7.9-2.3-8.3-5.9h3.2   c0.3,2.1,2.1,3.1,5,3.1c2.8,0,4.7-1,4.7-3c0-1.6-1-2.5-3.4-2.9l-4.2-0.7c-2.7-0.5-4.5-1.9-4.5-4.7c0-3.1,2.3-5.5,7.4-5.5   c4.4,0,7,2.1,7.4,5.3h-3.1c-0.3-1.8-2-2.6-4.4-2.6s-4,0.9-4,2.5c0,1.4,0.9,2,2.8,2.3L1095,187.6z"
   id="path1053" />
</g>
<g
   id="g1095">
	<path
   class="st3"
   d="M113.7,133v26.4h-3.3V133H113.7z"
   id="path1057" />
	<path
   class="st3"
   d="M124.7,143.6v15.9h-3.1v-15.9h-3.2v-2.7h3.2v-2.1c0-4.3,2.4-6.1,6.4-6.1h1.8v2.7H128c-2.5,0-3.3,1.6-3.3,3.5v2   h5.1v2.7L124.7,143.6L124.7,143.6z"
   id="path1059" />
	<path
   class="st3"
   d="M157.7,159.5v-11.2c0-3.4-1.6-5.1-4.7-5.1c-3.3,0-5.5,2.9-5.5,6.2v10.1h-3.1v-18.6h3v2h0.8   c1-1.4,3.1-2.5,5.6-2.5c4.6,0,7.1,2.8,7.1,7.3v11.8H157.7z"
   id="path1061" />
	<path
   class="st3"
   d="M183.8,150.1c0,5.5-3.4,9.8-9.2,9.8s-9.2-4.3-9.2-9.8s3.3-9.8,9.2-9.8C180.4,140.3,183.8,144.6,183.8,150.1z    M180.6,150.1c0-3.7-1.9-7.1-6-7.1s-6,3.4-6,7.1s1.9,7.1,6,7.1C178.7,157.2,180.6,153.8,180.6,150.1z"
   id="path1063" />
	<path
   class="st3"
   d="M215.2,150.1H201c0.1,4.4,2.1,7.1,6,7.1c2.6,0,4.2-1.1,4.7-2.9h3.2c-0.6,3.2-3.3,5.6-7.9,5.6   c-5.8,0-9.1-4.3-9.1-10s3.3-9.6,9-9.6c5.5,0,8.2,4.1,8.3,8.7V150.1z M201.1,147.5h10.8c-0.2-2.4-2-4.4-5.1-4.4   C203.4,143.1,201.5,145.1,201.1,147.5z"
   id="path1065" />
	<path
   class="st3"
   d="M227.3,151.7H226l-4.7,7.8h-3.4l5.8-9.5l-5.2-9.1h3.3l4.3,7.4h1.3l4.4-7.4h3.3l-5.3,9l5.8,9.7H232L227.3,151.7   z"
   id="path1067" />
	<path
   class="st3"
   d="M255.2,153.8c-0.7,3.7-3.5,6.1-7.8,6.1c-5.8,0-9.1-4.3-9.1-9.8c0-5.6,3.3-9.8,9.1-9.8c4.4,0,7.1,2.4,7.7,5.9   H252c-0.6-1.9-2-3.1-4.6-3.1c-4.2,0-5.9,3.3-5.9,7s1.7,7.1,5.9,7.1c2.7,0,4.2-1.3,4.7-3.4H255.2z"
   id="path1069" />
	<path
   class="st3"
   d="M276,150.1h-14.2c0.1,4.4,2.1,7.1,6,7.1c2.6,0,4.2-1.1,4.7-2.9h3.2c-0.6,3.2-3.3,5.6-7.9,5.6   c-5.8,0-9.1-4.3-9.1-10s3.3-9.6,9-9.6c5.5,0,8.2,4.1,8.3,8.7V150.1z M262,147.5h10.8c-0.2-2.4-2-4.4-5.1-4.4   C264.3,143.1,262.4,145.1,262,147.5z"
   id="path1071" />
	<path
   class="st3"
   d="M283.9,140.8v2h0.8c1-1.3,2.8-2.5,5.8-2.5c5.1,0,8.2,4.3,8.2,9.8c0,5.6-3,9.8-8.2,9.8c-3,0-4.7-1.1-5.7-2.5   H284v9.4h-3.1v-26H283.9z M284,150.1c0,3.7,1.7,7.1,5.8,7.1c3.7,0,5.7-2.9,5.7-7.1c0-4.1-2-7.1-5.7-7.1   C285.7,143.1,284,146.5,284,150.1z"
   id="path1073" />
	<path
   class="st3"
   d="M312.7,140.8v2.7H308v10.2c0,1.9,0.8,2.8,3.3,2.8h1.4v2.8h-1.4c-4,0-6.4-1.3-6.4-5.2v-10.7h-3.2v-2.7h3.2v-5.6   h3.1v5.6L312.7,140.8L312.7,140.8z"
   id="path1075" />
	<path
   class="st3"
   d="M317.9,136v-3.4h3.3v3.4H317.9z M321.1,159.5H318v-18.6h3.1V159.5z"
   id="path1077" />
	<path
   class="st3"
   d="M344.5,150.1c0,5.5-3.4,9.8-9.2,9.8c-5.8,0-9.2-4.3-9.2-9.8s3.3-9.8,9.2-9.8   C341.1,140.3,344.5,144.6,344.5,150.1z M341.3,150.1c0-3.7-1.9-7.1-6-7.1s-6,3.4-6,7.1s1.9,7.1,6,7.1   C339.4,157.2,341.3,153.8,341.3,150.1z"
   id="path1079" />
	<path
   class="st3"
   d="M362.8,159.5v-11.2c0-3.4-1.6-5.1-4.7-5.1c-3.3,0-5.5,2.9-5.5,6.2v10.1h-3.1v-18.6h3v2h0.8   c1-1.4,3.1-2.5,5.6-2.5c4.6,0,7.1,2.8,7.1,7.3v11.8H362.8z"
   id="path1081" />
	<path
   class="st3"
   d="M198.4,189.6c0,5.5-3.4,9.8-9.2,9.8s-9.2-4.3-9.2-9.8s3.3-9.8,9.2-9.8C195,179.8,198.4,184.1,198.4,189.6z    M195.3,189.6c0-3.7-1.9-7.1-6-7.1s-6,3.4-6,7.1s1.9,7.1,6,7.1C193.3,196.7,195.3,193.3,195.3,189.6z"
   id="path1083" />
	<path
   class="st3"
   d="M219.1,193.3c-0.7,3.7-3.5,6.1-7.8,6.1c-5.8,0-9.1-4.3-9.1-9.8c0-5.6,3.3-9.8,9.1-9.8c4.4,0,7.1,2.4,7.7,5.9   h-3.1c-0.6-1.9-2-3.1-4.6-3.1c-4.2,0-5.9,3.3-5.9,7s1.7,7.1,5.9,7.1c2.7,0,4.2-1.3,4.7-3.4H219.1z"
   id="path1085" />
	<path
   class="st3"
   d="M239.5,193.3c-0.7,3.7-3.5,6.1-7.8,6.1c-5.8,0-9.1-4.3-9.1-9.8c0-5.6,3.3-9.8,9.1-9.8c4.4,0,7.1,2.4,7.7,5.9   h-3.1c-0.6-1.9-2-3.1-4.6-3.1c-4.2,0-5.9,3.3-5.9,7s1.7,7.1,5.9,7.1c2.7,0,4.2-1.3,4.7-3.4H239.5z"
   id="path1087" />
	<path
   class="st3"
   d="M247.1,180.3v11.2c0,3.4,1.6,5.1,4.7,5.1c3.3,0,5.5-2.8,5.5-6.2v-10.1h3.1V199h-3v-2h-0.8   c-1,1.4-3.1,2.5-5.6,2.5c-4.6,0-7.1-2.8-7.1-7.3v-11.8L247.1,180.3L247.1,180.3z"
   id="path1089" />
	<path
   class="st3"
   d="M277.2,183.3h-1.6c-3.7,0-6,2.3-6,6.4v9.3h-3.1v-18.6h3v2.2h0.8c0.9-1.1,2.7-2.2,5.4-2.2h1.4v2.9H277.2z"
   id="path1091" />
	<path
   class="st3"
   d="M288.3,187.6l2.1,0.3c3.3,0.6,5.3,2.2,5.3,5.6c0,3.1-2.6,5.8-7.7,5.8c-5.3,0-7.9-2.3-8.3-5.9h3.2   c0.3,2.1,2.1,3.1,5,3.1c2.8,0,4.7-1,4.7-3c0-1.6-1-2.5-3.4-2.9L285,190c-2.7-0.5-4.5-1.9-4.5-4.7c0-3.1,2.3-5.5,7.4-5.5   c4.4,0,7,2.1,7.4,5.3h-3.1c-0.3-1.8-2-2.6-4.4-2.6s-4,0.9-4,2.5c0,1.4,0.9,2,2.8,2.3L288.3,187.6z"
   id="path1093" />
</g>
<g
   id="g1131">
	<path
   class="st0"
   d="M434.4,419.8H67.3c-6.3,0-11.4-5.1-11.4-11.4v-94.1c0-6.3,5.1-11.4,11.4-11.4h367.1c6.3,0,11.4,5.1,11.4,11.4   v94.1C445.8,414.7,440.7,419.8,434.4,419.8z"
   id="path1097" />
	<g
   id="g1129">
		<path
   class="st3"
   d="M110.1,356.3c4,0.9,6.6,2.9,6.6,7.4c0,4.1-3.3,7.8-10,7.8c-6.2,0-10.2-3.3-10.6-7.8h3.4    c0.6,3.6,3.8,4.8,7.4,4.8c3.7,0,6.5-1.7,6.5-4.7c0-2.8-1.9-3.9-4.5-4.5c-1.3-0.3-3.9-0.8-5.2-1.1c-3.8-0.8-6.4-2.8-6.4-6.7    c0-4.1,3.3-7.3,9.3-7.3c5.5,0,9,2.9,9.6,7.1h-3.4c-0.6-2.7-2.4-4.1-6.3-4.1c-3.2,0-5.8,1.4-5.8,4.2c0,2.6,2.3,3.4,4.5,3.8    C106.3,355.5,108.8,356,110.1,356.3z"
   id="path1099" />
		<path
   class="st3"
   d="M135.6,371.1l-5.3-10.1h-0.8l-4.3,4.7v5.4H122v-26.9h3.1v17.6l8.8-9.4h3.7l-5.4,5.7l6.6,12.9L135.6,371.1    L135.6,371.1z"
   id="path1101" />
		<path
   class="st3"
   d="M142.4,347.6v-3.4h3.3v3.4H142.4z M145.7,371.1h-3.1v-18.6h3.1V371.1z"
   id="path1103" />
		<path
   class="st3"
   d="M154.9,352.4v2h0.8c1-1.3,2.8-2.5,5.8-2.5c5.1,0,8.2,4.3,8.2,9.8c0,5.6-3,9.8-8.2,9.8c-3,0-4.7-1.1-5.7-2.5    H155v9.4h-3.1v-26L154.9,352.4L154.9,352.4z M154.9,361.8c0,3.7,1.7,7.1,5.8,7.1c3.7,0,5.7-2.9,5.7-7.1c0-4.1-2-7.1-5.7-7.1    C156.7,354.7,154.9,358.1,154.9,361.8z"
   id="path1105" />
		<path
   class="st3"
   d="M201.1,361.7h-14.2c0.1,4.4,2.1,7.1,6,7.1c2.6,0,4.2-1.1,4.7-2.9h3.2c-0.6,3.2-3.3,5.6-7.9,5.6    c-5.8,0-9.1-4.3-9.1-10s3.3-9.6,9-9.6c5.5,0,8.2,4.1,8.3,8.7V361.7z M187,359.1h10.8c-0.2-2.4-2-4.4-5.1-4.4    C189.3,354.7,187.4,356.7,187,359.1z"
   id="path1107" />
		<path
   class="st3"
   d="M213.2,363.3h-1.3l-4.7,7.8h-3.4l5.8-9.5l-5.2-9.1h3.3l4.3,7.4h1.3l4.4-7.4h3.3l-5.3,9l5.8,9.7h-3.6    L213.2,363.3z"
   id="path1109" />
		<path
   class="st3"
   d="M241,365.5c-0.7,3.7-3.5,6.1-7.8,6.1c-5.8,0-9.1-4.3-9.1-9.8c0-5.6,3.3-9.8,9.1-9.8c4.4,0,7.1,2.4,7.7,5.9    h-3.1c-0.6-1.9-2-3.1-4.6-3.1c-4.2,0-5.9,3.3-5.9,7s1.7,7.1,5.9,7.1c2.7,0,4.2-1.3,4.7-3.4L241,365.5L241,365.5z"
   id="path1111" />
		<path
   class="st3"
   d="M261.9,361.7h-14.2c0.1,4.4,2.1,7.1,6,7.1c2.6,0,4.2-1.1,4.7-2.9h3.2c-0.6,3.2-3.3,5.6-7.9,5.6    c-5.8,0-9.1-4.3-9.1-10s3.3-9.6,9-9.6c5.5,0,8.2,4.1,8.3,8.7V361.7z M247.9,359.1h10.8c-0.2-2.4-2-4.4-5.1-4.4    C250.1,354.7,248.3,356.7,247.9,359.1z"
   id="path1113" />
		<path
   class="st3"
   d="M269.8,352.4v2h0.8c1-1.3,2.8-2.5,5.8-2.5c5.1,0,8.2,4.3,8.2,9.8c0,5.6-3,9.8-8.2,9.8c-3,0-4.7-1.1-5.7-2.5    h-0.8v9.4h-3.1v-26L269.8,352.4L269.8,352.4z M269.9,361.8c0,3.7,1.7,7.1,5.8,7.1c3.7,0,5.7-2.9,5.7-7.1c0-4.1-2-7.1-5.7-7.1    C271.6,354.7,269.9,358.1,269.9,361.8z"
   id="path1115" />
		<path
   class="st3"
   d="M298.6,352.4v2.7h-4.7v10.2c0,1.9,0.8,2.8,3.3,2.8h1.4v2.8h-1.4c-4,0-6.4-1.3-6.4-5.2V355h-3.2v-2.7h3.2v-5.6    h3.1v5.6h4.7V352.4z"
   id="path1117" />
		<path
   class="st3"
   d="M331.9,361.8c0,5.5-3,9.8-8.2,9.8c-3,0-4.8-1.2-5.8-2.5h-0.8v2h-3v-26.9h3.1v10.2h0.8c1-1.3,2.7-2.5,5.7-2.5    C328.8,352,331.9,356.1,331.9,361.8z M328.7,361.8c0-4.1-2-7.1-5.7-7.1c-4.1,0-5.8,3.4-5.8,7.1s1.7,7.1,5.8,7.1    C326.7,368.8,328.7,365.9,328.7,361.8z"
   id="path1119" />
		<path
   class="st3"
   d="M339.9,344.2v26.9h-3.1v-26.9H339.9z"
   id="path1121" />
		<path
   class="st3"
   d="M363.2,361.8c0,5.5-3.4,9.8-9.2,9.8c-5.8,0-9.2-4.3-9.2-9.8s3.3-9.8,9.2-9.8    C359.9,352,363.2,356.3,363.2,361.8z M360.1,361.8c0-3.7-1.9-7.1-6-7.1s-6,3.4-6,7.1s1.9,7.1,6,7.1    C358.2,368.8,360.1,365.4,360.1,361.8z"
   id="path1123" />
		<path
   class="st3"
   d="M383.9,365.5c-0.7,3.7-3.5,6.1-7.8,6.1c-5.8,0-9.1-4.3-9.1-9.8c0-5.6,3.3-9.8,9.1-9.8c4.4,0,7.1,2.4,7.7,5.9    h-3.1c-0.6-1.9-2-3.1-4.6-3.1c-4.2,0-5.9,3.3-5.9,7s1.7,7.1,5.9,7.1c2.7,0,4.2-1.3,4.7-3.4L383.9,365.5L383.9,365.5z"
   id="path1125" />
		<path
   class="st3"
   d="M402.2,371.1l-5.3-10.1H396l-4.3,4.7v5.4h-3.1v-26.9h3.1v17.6l8.8-9.4h3.7l-5.4,5.7l6.6,12.9L402.2,371.1    L402.2,371.1z"
   id="path1127" />
	</g>
</g>
<g
   id="g1185">
	<path
   class="st0"
   d="M1208,419.8H840.8c-6.3,0-11.4-5.1-11.4-11.4v-94.1c0-6.3,5.1-11.4,11.4-11.4H1208c6.3,0,11.4,5.1,11.4,11.4   v94.1C1219.4,414.7,1214.3,419.8,1208,419.8z"
   id="path1133" />
	<g
   id="g1183">
		<path
   class="st3"
   d="M873,336.5c4,0.9,6.6,2.9,6.6,7.4c0,4.1-3.3,7.8-10,7.8c-6.2,0-10.2-3.3-10.6-7.8h3.4    c0.6,3.6,3.8,4.8,7.4,4.8c3.7,0,6.5-1.7,6.5-4.7c0-2.8-1.9-3.9-4.5-4.5c-1.3-0.3-3.9-0.8-5.2-1.1c-3.8-0.8-6.4-2.8-6.4-6.7    c0-4.1,3.3-7.3,9.3-7.3c5.5,0,9,2.9,9.6,7.1h-3.4c-0.6-2.7-2.4-4.1-6.3-4.1c-3.2,0-5.8,1.4-5.8,4.2c0,2.6,2.3,3.4,4.5,3.8    C869.1,335.7,871.6,336.3,873,336.5z"
   id="path1135" />
		<path
   class="st3"
   d="M893.8,332.7v2.7h-4.7v10.2c0,1.9,0.8,2.8,3.3,2.8h1.4v2.8h-1.4c-4,0-6.4-1.3-6.4-5.2v-10.7h-3.2v-2.7h3.2    V327h3.1v5.6h4.7V332.7z"
   id="path1137" />
		<path
   class="st3"
   d="M915.9,342c0,5.5-3.4,9.8-9.2,9.8s-9.2-4.3-9.2-9.8s3.3-9.8,9.2-9.8C912.5,332.2,915.9,336.5,915.9,342z     M912.8,342c0-3.7-1.9-7.1-6-7.1s-6,3.4-6,7.1s1.9,7.1,6,7.1C910.8,349.1,912.8,345.7,912.8,342z"
   id="path1139" />
		<path
   class="st3"
   d="M923.9,332.7v2h0.8c1-1.3,2.8-2.5,5.8-2.5c5.1,0,8.2,4.3,8.2,9.8c0,5.6-3,9.8-8.2,9.8c-3,0-4.7-1.1-5.7-2.5    H924v9.4h-3.1v-26L923.9,332.7L923.9,332.7z M923.9,342c0,3.7,1.7,7.1,5.8,7.1c3.7,0,5.7-2.9,5.7-7.1s-2-7.1-5.7-7.1    C925.6,335,923.9,338.4,923.9,342z"
   id="path1141" />
		<path
   class="st3"
   d="M970,342h-14.2c0.1,4.4,2.1,7.1,6,7.1c2.6,0,4.2-1.1,4.7-2.9h3.2c-0.6,3.2-3.3,5.6-7.9,5.6    c-5.8,0-9.1-4.3-9.1-10s3.3-9.6,9-9.6c5.5,0,8.2,4.1,8.3,8.7V342z M956,339.4h10.8c-0.2-2.4-2-4.4-5.1-4.4    C958.3,335,956.4,337,956,339.4z"
   id="path1143" />
		<path
   class="st3"
   d="M982.2,343.5h-1.3l-4.7,7.8h-3.4l5.8-9.5l-5.2-9.1h3.3l4.3,7.4h1.3l4.4-7.4h3.3l-5.3,9l5.8,9.7h-3.6    L982.2,343.5z"
   id="path1145" />
		<path
   class="st3"
   d="M1010.4,342h-14.2c0.1,4.4,2.1,7.1,6,7.1c2.6,0,4.2-1.1,4.7-2.9h3.2c-0.6,3.2-3.3,5.6-7.9,5.6    c-5.8,0-9.1-4.3-9.1-10s3.3-9.6,9-9.6c5.5,0,8.2,4.1,8.3,8.7V342z M996.4,339.4h10.8c-0.2-2.4-2-4.4-5.1-4.4    C998.7,335,996.8,337,996.4,339.4z"
   id="path1147" />
		<path
   class="st3"
   d="M1031.1,345.7c-0.7,3.7-3.5,6.1-7.8,6.1c-5.8,0-9.1-4.3-9.1-9.8c0-5.6,3.3-9.8,9.1-9.8c4.4,0,7.1,2.4,7.7,5.9    h-3.1c-0.6-1.9-2-3.1-4.6-3.1c-4.2,0-5.9,3.3-5.9,7s1.7,7.1,5.9,7.1c2.7,0,4.2-1.3,4.7-3.4L1031.1,345.7L1031.1,345.7z"
   id="path1149" />
		<path
   class="st3"
   d="M1038.6,332.7v11.2c0,3.4,1.6,5.1,4.7,5.1c3.3,0,5.5-2.8,5.5-6.2v-10.1h3.1v18.6h-3v-2h-0.8    c-1,1.4-3.1,2.5-5.6,2.5c-4.6,0-7.1-2.8-7.1-7.3v-11.8L1038.6,332.7L1038.6,332.7z"
   id="path1151" />
		<path
   class="st3"
   d="M1067.2,332.7v2.7h-4.7v10.2c0,1.9,0.8,2.8,3.3,2.8h1.4v2.8h-1.4c-4,0-6.4-1.3-6.4-5.2v-10.7h-3.2v-2.7h3.2    V327h3.1v5.6h4.7V332.7z"
   id="path1153" />
		<path
   class="st3"
   d="M1072.3,327.9v-3.4h3.3v3.4H1072.3z M1075.6,351.3h-3.1v-18.6h3.1V351.3z"
   id="path1155" />
		<path
   class="st3"
   d="M1095.2,351.3v-11.2c0-3.4-1.6-5.1-4.7-5.1c-3.3,0-5.5,2.9-5.5,6.2v10.1h-3.1v-18.6h3v2h0.8    c1-1.4,3.1-2.5,5.6-2.5c4.6,0,7.1,2.8,7.1,7.3v11.8L1095.2,351.3L1095.2,351.3z"
   id="path1157" />
		<path
   class="st3"
   d="M1120.8,332.7v17.7c0,5.2-3.3,8.6-8.7,8.6c-4.8,0-7.9-2-8.4-5.7h3.1c0.6,2.2,2.5,3,5.3,3    c3.8,0,5.6-2.3,5.6-6.1v-1.5h-0.8c-1,1.3-2.8,2.5-5.6,2.5c-5.1,0-8.3-4.1-8.3-9.5c0-5.5,3.1-9.5,8.3-9.5c2.9,0,4.7,1.2,5.7,2.5    h0.8v-2H1120.8z M1117.7,341.8c0-3.6-1.9-6.8-5.9-6.8c-3.7,0-5.7,2.7-5.7,6.8c0,4,2.1,6.8,5.7,6.8    C1115.8,348.5,1117.7,345.3,1117.7,341.8z"
   id="path1159" />
		<path
   class="st3"
   d="M1146.2,332.7v2.7h-4.7v10.2c0,1.9,0.8,2.8,3.3,2.8h1.4v2.8h-1.4c-4,0-6.4-1.3-6.4-5.2v-10.7h-3.2v-2.7h3.2    V327h3.1v5.6h4.7V332.7z"
   id="path1161" />
		<path
   class="st3"
   d="M1164.8,351.3v-11.2c0-3.4-1.6-5.1-4.7-5.1c-3.3,0-5.5,2.9-5.5,6.2v10.1h-3.1v-26.9h3.1v10.2h0.8    c1-1.4,3-2.5,5.6-2.5c4.6,0,7.1,2.8,7.1,7.3v11.8h-3.3V351.3z"
   id="path1163" />
		<path
   class="st3"
   d="M1189.9,342h-14.2c0.1,4.4,2.1,7.1,6,7.1c2.6,0,4.2-1.1,4.7-2.9h3.2c-0.6,3.2-3.3,5.6-7.9,5.6    c-5.8,0-9.1-4.3-9.1-10s3.3-9.6,9-9.6c5.5,0,8.2,4.1,8.3,8.7V342z M1175.8,339.4h10.8c-0.2-2.4-2-4.4-5.1-4.4    C1178.1,335,1176.2,337,1175.8,339.4z"
   id="path1165" />
		<path
   class="st3"
   d="M963.9,372.2v2.7h-4.7v10.2c0,1.9,0.8,2.8,3.3,2.8h1.4v2.8h-1.4c-4,0-6.4-1.3-6.4-5.2v-10.7h-3.2v-2.7h3.2    v-5.6h3.1v5.6h4.7V372.2z"
   id="path1167" />
		<path
   class="st3"
   d="M979.7,375.1h-1.6c-3.7,0-6,2.3-6,6.4v9.3H969v-18.6h3v2.2h0.8c0.9-1.1,2.7-2.2,5.4-2.2h1.4L979.7,375.1    L979.7,375.1z"
   id="path1169" />
		<path
   class="st3"
   d="M987,398.2l3.8-9.1l-8-16.9h3.4l5.7,12.3h0.9l5.2-12.3h3.3l-11.2,26H987z"
   id="path1171" />
		<path
   class="st3"
   d="M1033.2,381.5c0,5.5-3,9.8-8.2,9.8c-3,0-4.8-1.2-5.8-2.5h-0.8v2h-3v-26.9h3.1v10.2h0.8c1-1.3,2.7-2.5,5.7-2.5    C1030.2,371.7,1033.2,375.9,1033.2,381.5z M1030.1,381.5c0-4.1-2-7.1-5.7-7.1c-4.1,0-5.8,3.4-5.8,7.1s1.7,7.1,5.8,7.1    C1028.1,388.6,1030.1,385.7,1030.1,381.5z"
   id="path1173" />
		<path
   class="st3"
   d="M1041.3,363.9v26.9h-3.1v-26.9H1041.3z"
   id="path1175" />
		<path
   class="st3"
   d="M1064.5,381.5c0,5.5-3.4,9.8-9.2,9.8c-5.8,0-9.2-4.3-9.2-9.8s3.3-9.8,9.2-9.8S1064.5,376,1064.5,381.5z     M1061.4,381.5c0-3.7-1.9-7.1-6-7.1s-6,3.4-6,7.1s1.9,7.1,6,7.1S1061.4,385.2,1061.4,381.5z"
   id="path1177" />
		<path
   class="st3"
   d="M1085.2,385.2c-0.7,3.7-3.5,6.1-7.8,6.1c-5.8,0-9.1-4.3-9.1-9.8c0-5.6,3.3-9.8,9.1-9.8c4.4,0,7.1,2.4,7.7,5.9    h-3.1c-0.6-1.9-2-3.1-4.6-3.1c-4.2,0-5.9,3.3-5.9,7s1.7,7.1,5.9,7.1c2.7,0,4.2-1.3,4.7-3.4L1085.2,385.2L1085.2,385.2z"
   id="path1179" />
		<path
   class="st3"
   d="M1103.5,390.8l-5.3-10.1h-0.8l-4.3,4.7v5.4h-3.1v-26.9h3.1v17.6l8.8-9.4h3.7l-5.4,5.7l6.6,12.9L1103.5,390.8    L1103.5,390.8z"
   id="path1181" />
	</g>
</g>
<g
   id="g1231">
	<path
   class="st0"
   d="M1208,614.6H840.8c-6.3,0-11.4-5.1-11.4-11.4V509c0-6.3,5.1-11.4,11.4-11.4H1208c6.3,0,11.4,5.1,11.4,11.4   v94.1C1219.4,609.4,1214.3,614.6,1208,614.6z"
   id="path1187" />
	<g
   id="g1229">
		<path
   class="st3"
   d="M858.2,523.1h5.6l6.7,12.4h0.8l6.5-12.4h5.6v26.4h-3.3v-22.6h-0.8l-6.8,12.5H869l-6.8-12.5h-0.8v22.6h-3.3    L858.2,523.1L858.2,523.1z"
   id="path1189" />
		<path
   class="st3"
   d="M907,540.2c0,5.5-3.4,9.8-9.2,9.8s-9.2-4.3-9.2-9.8s3.3-9.8,9.2-9.8C903.6,530.4,907,534.7,907,540.2z     M903.8,540.2c0-3.7-1.9-7.1-6-7.1s-6,3.4-6,7.1s1.9,7.1,6,7.1C901.9,547.3,903.8,543.9,903.8,540.2z"
   id="path1191" />
		<path
   class="st3"
   d="M909.5,530.9h3.3l5.2,15.7h1.5l5-15.7h3.3l-6.3,18.6h-5.9L909.5,530.9z"
   id="path1193" />
		<path
   class="st3"
   d="M947.5,540.2h-14.2c0.1,4.4,2.1,7.1,6,7.1c2.6,0,4.2-1.1,4.7-2.9h3.2c-0.6,3.2-3.3,5.6-7.9,5.6    c-5.8,0-9.1-4.3-9.1-10s3.3-9.6,9-9.6c5.5,0,8.2,4.1,8.3,8.7V540.2z M933.5,537.6h10.8c-0.2-2.4-2-4.4-5.1-4.4    C935.7,533.2,933.9,535.2,933.5,537.6z"
   id="path1195" />
		<path
   class="st3"
   d="M971.7,530.9v2.7H967v10.2c0,1.9,0.8,2.8,3.3,2.8h1.4v2.8h-1.4c-4,0-6.4-1.3-6.4-5.2v-10.7h-3.2v-2.7h3.2    v-5.6h3.1v5.6h4.7V530.9z"
   id="path1197" />
		<path
   class="st3"
   d="M993.8,540.2c0,5.5-3.4,9.8-9.2,9.8s-9.2-4.3-9.2-9.8s3.3-9.8,9.2-9.8C990.4,530.4,993.8,534.7,993.8,540.2z     M990.6,540.2c0-3.7-1.9-7.1-6-7.1s-6,3.4-6,7.1s1.9,7.1,6,7.1C988.7,547.3,990.6,543.9,990.6,540.2z"
   id="path1199" />
		<path
   class="st3"
   d="M1018,530.9v2.7h-4.7v10.2c0,1.9,0.8,2.8,3.3,2.8h1.4v2.8h-1.4c-4,0-6.4-1.3-6.4-5.2v-10.7h-3.2v-2.7h3.2    v-5.6h3.1v5.6h4.7V530.9z"
   id="path1201" />
		<path
   class="st3"
   d="M1036.6,549.6v-11.2c0-3.4-1.6-5.1-4.7-5.1c-3.3,0-5.5,2.9-5.5,6.2v10.1h-3.1v-26.9h3.1v10.2h0.8    c1-1.4,3-2.5,5.6-2.5c4.6,0,7.1,2.8,7.1,7.3v11.8h-3.3V549.6z"
   id="path1203" />
		<path
   class="st3"
   d="M1061.7,540.2h-14.2c0.1,4.4,2.1,7.1,6,7.1c2.6,0,4.2-1.1,4.7-2.9h3.2c-0.6,3.2-3.3,5.6-7.9,5.6    c-5.8,0-9.1-4.3-9.1-10s3.3-9.6,9-9.6c5.5,0,8.2,4.1,8.3,8.7V540.2z M1047.7,537.6h10.8c-0.2-2.4-2-4.4-5.1-4.4    C1050,533.2,1048.1,535.2,1047.7,537.6z"
   id="path1205" />
		<path
   class="st3"
   d="M1093.1,540.2h-14.2c0.1,4.4,2.1,7.1,6,7.1c2.6,0,4.2-1.1,4.7-2.9h3.2c-0.6,3.2-3.3,5.6-7.9,5.6    c-5.8,0-9.1-4.3-9.1-10s3.3-9.6,9-9.6c5.5,0,8.2,4.1,8.3,8.7V540.2z M1079,537.6h10.8c-0.2-2.4-2-4.4-5.1-4.4    C1081.3,533.2,1079.4,535.2,1079,537.6z"
   id="path1207" />
		<path
   class="st3"
   d="M1105.2,541.7h-1.3l-4.7,7.8h-3.4l5.8-9.5l-5.2-9.1h3.3l4.3,7.4h1.3l4.4-7.4h3.3l-5.3,9l5.8,9.7h-3.6    L1105.2,541.7z"
   id="path1209" />
		<path
   class="st3"
   d="M1133.1,543.9c-0.7,3.7-3.5,6.1-7.8,6.1c-5.8,0-9.1-4.3-9.1-9.8c0-5.6,3.3-9.8,9.1-9.8c4.4,0,7.1,2.4,7.7,5.9    h-3.1c-0.6-1.9-2-3.1-4.6-3.1c-4.2,0-5.9,3.3-5.9,7s1.7,7.1,5.9,7.1c2.7,0,4.2-1.3,4.7-3.4H1133.1z"
   id="path1211" />
		<path
   class="st3"
   d="M1153.9,540.2h-14.2c0.1,4.4,2.1,7.1,6,7.1c2.6,0,4.2-1.1,4.7-2.9h3.2c-0.6,3.2-3.3,5.6-7.9,5.6    c-5.8,0-9.1-4.3-9.1-10s3.3-9.6,9-9.6c5.5,0,8.2,4.1,8.3,8.7V540.2z M1139.9,537.6h10.8c-0.2-2.4-2-4.4-5.1-4.4    C1142.2,533.2,1140.3,535.2,1139.9,537.6z"
   id="path1213" />
		<path
   class="st3"
   d="M1161.8,530.9v2h0.8c1-1.3,2.8-2.5,5.8-2.5c5.1,0,8.2,4.3,8.2,9.8c0,5.6-3,9.8-8.2,9.8c-3,0-4.7-1.1-5.7-2.5    h-0.8v9.4h-3.1v-26H1161.8z M1161.9,540.2c0,3.7,1.7,7.1,5.8,7.1c3.7,0,5.7-2.9,5.7-7.1c0-4.1-2-7.1-5.7-7.1    C1163.6,533.2,1161.9,536.6,1161.9,540.2z"
   id="path1215" />
		<path
   class="st3"
   d="M1190.6,530.9v2.7h-4.7v10.2c0,1.9,0.8,2.8,3.3,2.8h1.4v2.8h-1.4c-4,0-6.4-1.3-6.4-5.2v-10.7h-3.2v-2.7h3.2    v-5.6h3.1v5.6h4.7V530.9z"
   id="path1217" />
		<path
   class="st3"
   d="M997.2,579.7c0,5.5-3,9.8-8.2,9.8c-3,0-4.8-1.2-5.8-2.5h-0.8v2h-3v-26.9h3.1v10.2h0.8c1-1.3,2.7-2.5,5.7-2.5    C994.1,569.9,997.2,574.1,997.2,579.7z M994,579.7c0-4.1-2-7.1-5.7-7.1c-4.1,0-5.8,3.4-5.8,7.1s1.7,7.1,5.8,7.1    C992,586.8,994,583.9,994,579.7z"
   id="path1219" />
		<path
   class="st3"
   d="M1005.2,562.1V589h-3.1v-26.9H1005.2z"
   id="path1221" />
		<path
   class="st3"
   d="M1028.5,579.7c0,5.5-3.4,9.8-9.2,9.8s-9.2-4.3-9.2-9.8s3.3-9.8,9.2-9.8    C1025.1,569.9,1028.5,574.2,1028.5,579.7z M1025.4,579.7c0-3.7-1.9-7.1-6-7.1s-6,3.4-6,7.1s1.9,7.1,6,7.1    C1023.4,586.8,1025.4,583.4,1025.4,579.7z"
   id="path1223" />
		<path
   class="st3"
   d="M1049.2,583.4c-0.7,3.7-3.5,6.1-7.8,6.1c-5.8,0-9.1-4.3-9.1-9.8c0-5.6,3.3-9.8,9.1-9.8c4.4,0,7.1,2.4,7.7,5.9    h-3.1c-0.6-1.9-2-3.1-4.6-3.1c-4.2,0-5.9,3.3-5.9,7s1.7,7.1,5.9,7.1c2.7,0,4.2-1.3,4.7-3.4H1049.2z"
   id="path1225" />
		<path
   class="st3"
   d="M1067.5,589l-5.3-10.1h-0.8l-4.3,4.7v5.4h-3.1v-26.9h3.1v17.6l8.8-9.4h3.7l-5.4,5.7l6.6,12.9L1067.5,589    L1067.5,589z"
   id="path1227" />
	</g>
</g>
<g
   id="g1283">
	<path
   class="st0"
   d="M434.4,614.6H67.3c-6.3,0-11.4-5.1-11.4-11.4V509c0-6.3,5.1-11.4,11.4-11.4h367.1c6.3,0,11.4,5.1,11.4,11.4   v94.1C445.8,609.4,440.7,614.6,434.4,614.6z"
   id="path1233" />
	<g
   id="g1281">
		<path
   class="st3"
   d="M89.9,534.8c4,0.9,6.6,2.9,6.6,7.4c0,4.1-3.3,7.8-10,7.8c-6.2,0-10.2-3.3-10.6-7.8h3.4    c0.6,3.6,3.8,4.8,7.4,4.8c3.7,0,6.5-1.7,6.5-4.7c0-2.8-1.9-3.9-4.5-4.5c-1.3-0.3-3.9-0.8-5.2-1.1c-3.8-0.8-6.4-2.8-6.4-6.7    c0-4.1,3.3-7.3,9.3-7.3c5.5,0,9,2.9,9.6,7.1h-3.4c-0.6-2.7-2.4-4.1-6.3-4.1c-3.2,0-5.8,1.4-5.8,4.2c0,2.6,2.3,3.4,4.5,3.8    C86.1,533.9,88.6,534.5,89.9,534.8z"
   id="path1235" />
		<path
   class="st3"
   d="M110.8,530.9v2.7h-4.7v10.2c0,1.9,0.8,2.8,3.3,2.8h1.4v2.8h-1.4c-4,0-6.4-1.3-6.4-5.2v-10.7h-3.2v-2.7h3.2    v-5.6h3.1v5.6h4.7V530.9z"
   id="path1237" />
		<path
   class="st3"
   d="M127.9,547.6h-0.8c-1.1,1.4-3.1,2.4-5.8,2.4c-4.3,0-6.7-2.9-6.7-6.1c0-3,2-6.2,7.1-6.2h6.1V537    c0-2.3-1.3-3.9-4.6-3.9c-2.8,0-4.2,1.1-4.3,2.7h-3.1c0.3-3.4,3.2-5.4,7.4-5.4c4.7,0,7.7,2.3,7.7,6.4v12.7h-3    C127.9,549.5,127.9,547.6,127.9,547.6z M127.8,542v-1.7h-5.6c-3.1,0-4.5,1.3-4.5,3.6c0,2.1,1.6,3.4,4.3,3.4    C125.1,547.3,127.8,545,127.8,542z"
   id="path1239" />
		<path
   class="st3"
   d="M147.3,533.9h-1.6c-3.7,0-6,2.3-6,6.4v9.3h-3.1V531h3v2.2h0.8c0.9-1.1,2.7-2.2,5.4-2.2h1.4v2.9H147.3z"
   id="path1241" />
		<path
   class="st3"
   d="M161.6,530.9v2.7h-4.7v10.2c0,1.9,0.8,2.8,3.3,2.8h1.4v2.8h-1.4c-4,0-6.4-1.3-6.4-5.2v-10.7h-3.2v-2.7h3.2    v-5.6h3.1v5.6h4.7V530.9z"
   id="path1243" />
		<path
   class="st3"
   d="M193.2,540.2H179c0.1,4.4,2.1,7.1,6,7.1c2.6,0,4.2-1.1,4.7-2.9h3.2c-0.6,3.2-3.3,5.6-7.9,5.6    c-5.8,0-9.1-4.3-9.1-10s3.3-9.6,9-9.6c5.5,0,8.2,4.1,8.3,8.7V540.2z M179.2,537.6H190c-0.2-2.4-2-4.4-5.1-4.4    C181.4,533.2,179.6,535.2,179.2,537.6z"
   id="path1245" />
		<path
   class="st3"
   d="M205.4,541.7H204l-4.7,7.8h-3.4l5.8-9.5l-5.2-9.1h3.3l4.3,7.4h1.3l4.4-7.4h3.3l-5.3,9l5.8,9.7H210    L205.4,541.7z"
   id="path1247" />
		<path
   class="st3"
   d="M233.6,540.2h-14.2c0.1,4.4,2.1,7.1,6,7.1c2.6,0,4.2-1.1,4.7-2.9h3.2c-0.6,3.2-3.3,5.6-7.9,5.6    c-5.8,0-9.1-4.3-9.1-10s3.3-9.6,9-9.6c5.5,0,8.2,4.1,8.3,8.7V540.2z M219.6,537.6h10.8c-0.2-2.4-2-4.4-5.1-4.4    C221.8,533.2,220,535.2,219.6,537.6z"
   id="path1249" />
		<path
   class="st3"
   d="M254.3,543.9c-0.7,3.7-3.5,6.1-7.8,6.1c-5.8,0-9.1-4.3-9.1-9.8c0-5.6,3.3-9.8,9.1-9.8c4.4,0,7.1,2.4,7.7,5.9    H251c-0.6-1.9-2-3.1-4.6-3.1c-4.2,0-5.9,3.3-5.9,7s1.7,7.1,5.9,7.1c2.7,0,4.2-1.3,4.7-3.4H254.3z"
   id="path1251" />
		<path
   class="st3"
   d="M261.8,530.9v11.2c0,3.4,1.6,5.1,4.7,5.1c3.3,0,5.5-2.8,5.5-6.2v-10.1h3.1v18.6h-3v-2h-0.8    c-1,1.4-3.1,2.5-5.6,2.5c-4.6,0-7.1-2.8-7.1-7.3v-11.8H261.8z"
   id="path1253" />
		<path
   class="st3"
   d="M290.3,530.9v2.7h-4.7v10.2c0,1.9,0.8,2.8,3.3,2.8h1.4v2.8h-1.4c-4,0-6.4-1.3-6.4-5.2v-10.7h-3.2v-2.7h3.2    v-5.6h3.1v5.6h4.7V530.9z"
   id="path1255" />
		<path
   class="st3"
   d="M295.5,526.1v-3.4h3.3v3.4H295.5z M298.7,549.6h-3.1V531h3.1V549.6z"
   id="path1257" />
		<path
   class="st3"
   d="M318.3,549.6v-11.2c0-3.4-1.6-5.1-4.7-5.1c-3.3,0-5.5,2.9-5.5,6.2v10.1H305V531h3v2h0.8    c1-1.4,3.1-2.5,5.6-2.5c4.6,0,7.1,2.8,7.1,7.3v11.8H318.3z"
   id="path1259" />
		<path
   class="st3"
   d="M343.9,530.9v17.7c0,5.2-3.3,8.6-8.7,8.6c-4.8,0-7.9-2-8.4-5.7h3.1c0.6,2.2,2.5,3,5.3,3    c3.8,0,5.6-2.3,5.6-6.1V547H340c-1,1.3-2.8,2.5-5.6,2.5c-5.1,0-8.3-4.1-8.3-9.5c0-5.5,3.1-9.5,8.3-9.5c2.9,0,4.7,1.2,5.7,2.5h0.8    v-2L343.9,530.9L343.9,530.9z M340.9,540c0-3.6-1.9-6.8-5.9-6.8c-3.7,0-5.7,2.7-5.7,6.8c0,4,2.1,6.8,5.7,6.8    C339,546.7,340.9,543.5,340.9,540z"
   id="path1261" />
		<path
   class="st3"
   d="M376.5,540.2h-14.2c0.1,4.4,2.1,7.1,6,7.1c2.6,0,4.2-1.1,4.7-2.9h3.2c-0.6,3.2-3.3,5.6-7.9,5.6    c-5.8,0-9.1-4.3-9.1-10s3.3-9.6,9-9.6c5.5,0,8.2,4.1,8.3,8.7V540.2z M362.4,537.6h10.8c-0.2-2.4-2-4.4-5.1-4.4    C364.7,533.2,362.8,535.2,362.4,537.6z"
   id="path1263" />
		<path
   class="st3"
   d="M384.5,522.7v26.9h-3.1v-26.9H384.5z"
   id="path1265" />
		<path
   class="st3"
   d="M397.5,538.2l2.1,0.3c3.3,0.6,5.3,2.2,5.3,5.6c0,3.1-2.6,5.8-7.7,5.8c-5.3,0-7.9-2.3-8.3-5.9h3.2    c0.3,2.1,2.1,3.1,5,3.1c2.8,0,4.7-1,4.7-3c0-1.6-1-2.5-3.4-2.9l-4.2-0.7c-2.7-0.5-4.5-1.9-4.5-4.7c0-3.1,2.3-5.5,7.4-5.5    c4.4,0,7,2.1,7.4,5.3h-3.1c-0.3-1.8-2-2.6-4.4-2.6s-4,0.9-4,2.5c0,1.4,0.9,2,2.8,2.3L397.5,538.2z"
   id="path1267" />
		<path
   class="st3"
   d="M425.7,540.2h-14.2c0.1,4.4,2.1,7.1,6,7.1c2.6,0,4.2-1.1,4.7-2.9h3.2c-0.6,3.2-3.3,5.6-7.9,5.6    c-5.8,0-9.1-4.3-9.1-10s3.3-9.6,9-9.6c5.5,0,8.2,4.1,8.3,8.7V540.2z M411.7,537.6h10.8c-0.2-2.4-2-4.4-5.1-4.4    C414,533.2,412.1,535.2,411.7,537.6z"
   id="path1269" />
		<path
   class="st3"
   d="M224.3,579.7c0,5.5-3,9.8-8.2,9.8c-3,0-4.8-1.2-5.8-2.5h-0.8v2h-3v-26.9h3.1v10.2h0.8c1-1.3,2.7-2.5,5.7-2.5    C221.2,569.9,224.3,574.1,224.3,579.7z M221.1,579.7c0-4.1-2-7.1-5.7-7.1c-4.1,0-5.8,3.4-5.8,7.1c0,3.7,1.7,7.1,5.8,7.1    C219.1,586.8,221.1,583.9,221.1,579.7z"
   id="path1271" />
		<path
   class="st3"
   d="M232.3,562.1V589h-3.1v-26.9H232.3z"
   id="path1273" />
		<path
   class="st3"
   d="M255.6,579.7c0,5.5-3.4,9.8-9.2,9.8s-9.2-4.3-9.2-9.8s3.3-9.8,9.2-9.8C252.2,569.9,255.6,574.2,255.6,579.7z     M252.4,579.7c0-3.7-1.9-7.1-6-7.1s-6,3.4-6,7.1c0,3.7,1.9,7.1,6,7.1S252.4,583.4,252.4,579.7z"
   id="path1275" />
		<path
   class="st3"
   d="M276.3,583.4c-0.7,3.7-3.5,6.1-7.8,6.1c-5.8,0-9.1-4.3-9.1-9.8c0-5.6,3.3-9.8,9.1-9.8c4.4,0,7.1,2.4,7.7,5.9    H273c-0.6-1.9-2-3.1-4.6-3.1c-4.2,0-5.9,3.3-5.9,7s1.7,7.1,5.9,7.1c2.7,0,4.2-1.3,4.7-3.4H276.3z"
   id="path1277" />
		<path
   class="st3"
   d="M294.5,589l-5.3-10.1h-0.8l-4.3,4.7v5.4H281v-26.9h3.1v17.6l8.8-9.4h3.7l-5.4,5.7l6.6,12.9L294.5,589    L294.5,589z"
   id="path1279" />
	</g>
</g>
<g
   id="g1323">
	<path
   class="st3"
   d="M562.2,887.2h-8.7v23.5h-3.3v-23.5h-8.7v-3h20.7V887.2z"
   id="path1285" />
	<path
   class="st3"
   d="M579.4,910.7v-11.2c0-3.4-1.6-5.1-4.7-5.1c-3.3,0-5.5,2.9-5.5,6.2v10.1H566v-26.9h3.1V894h0.8   c1-1.4,3-2.5,5.6-2.5c4.6,0,7.1,2.8,7.1,7.3v11.8h-3.2V910.7z"
   id="path1287" />
	<path
   class="st3"
   d="M604.5,901.3h-14.2c0.1,4.4,2.1,7.1,6,7.1c2.6,0,4.2-1.1,4.7-2.9h3.2c-0.6,3.2-3.3,5.6-7.9,5.6   c-5.8,0-9.1-4.3-9.1-10s3.3-9.6,9-9.6c5.5,0,8.2,4.1,8.3,8.7V901.3z M590.5,898.7h10.8c-0.2-2.4-2-4.4-5.1-4.4   C592.7,894.3,590.9,896.3,590.5,898.7z"
   id="path1289" />
	<path
   class="st3"
   d="M635.8,901.3h-14.2c0.1,4.4,2.1,7.1,6,7.1c2.6,0,4.2-1.1,4.7-2.9h3.2c-0.6,3.2-3.3,5.6-7.9,5.6   c-5.8,0-9.1-4.3-9.1-10s3.3-9.6,9-9.6c5.5,0,8.2,4.1,8.3,8.7V901.3z M621.8,898.7h10.8c-0.2-2.4-2-4.4-5.1-4.4   C624,894.3,622.2,896.3,621.8,898.7z"
   id="path1291" />
	<path
   class="st3"
   d="M648,902.9h-1.3l-4.7,7.8h-3.4l5.8-9.5l-5.2-9.1h3.3l4.3,7.4h1.3l4.4-7.4h3.3l-5.3,9l5.8,9.7h-3.6L648,902.9z"
   id="path1293" />
	<path
   class="st3"
   d="M675.8,905c-0.7,3.7-3.5,6.1-7.8,6.1c-5.8,0-9.1-4.3-9.1-9.8c0-5.6,3.3-9.8,9.1-9.8c4.4,0,7.1,2.4,7.7,5.9   h-3.1c-0.6-1.9-2-3.1-4.6-3.1c-4.2,0-5.9,3.3-5.9,7s1.7,7.1,5.9,7.1c2.7,0,4.2-1.3,4.7-3.4H675.8z"
   id="path1295" />
	<path
   class="st3"
   d="M696.7,901.3h-14.2c0.1,4.4,2.1,7.1,6,7.1c2.6,0,4.2-1.1,4.7-2.9h3.2c-0.6,3.2-3.3,5.6-7.9,5.6   c-5.8,0-9.1-4.3-9.1-10s3.3-9.6,9-9.6c5.5,0,8.2,4.1,8.3,8.7V901.3z M682.7,898.7h10.8c-0.2-2.4-2-4.4-5.1-4.4   C684.9,894.3,683.1,896.3,682.7,898.7z"
   id="path1297" />
	<path
   class="st3"
   d="M704.6,892v2h0.8c1-1.3,2.8-2.5,5.8-2.5c5.1,0,8.2,4.3,8.2,9.8c0,5.6-3,9.8-8.2,9.8c-3,0-4.7-1.1-5.7-2.5h-0.8   v9.4h-3.1v-26H704.6z M704.7,901.3c0,3.7,1.7,7.1,5.8,7.1c3.7,0,5.7-2.9,5.7-7.1s-2-7.1-5.7-7.1   C706.4,894.3,704.7,897.7,704.7,901.3z"
   id="path1299" />
	<path
   class="st3"
   d="M733.3,892v2.7h-4.7V905c0,1.9,0.8,2.8,3.3,2.8h1.4v2.8h-1.4c-4,0-6.4-1.3-6.4-5.2v-10.7h-3.2V892h3.2v-5.6   h3.1v5.6H733.3z"
   id="path1301" />
	<path
   class="st3"
   d="M738.5,887.2v-3.4h3.3v3.4H738.5z M741.7,910.7h-3.1V892h3.1V910.7z"
   id="path1303" />
	<path
   class="st3"
   d="M765.1,901.3c0,5.5-3.4,9.8-9.2,9.8s-9.2-4.3-9.2-9.8s3.3-9.8,9.2-9.8S765.1,895.8,765.1,901.3z M762,901.3   c0-3.7-1.9-7.1-6-7.1s-6,3.4-6,7.1s1.9,7.1,6,7.1C760.1,908.4,762,905,762,901.3z"
   id="path1305" />
	<path
   class="st3"
   d="M783.5,910.7v-11.2c0-3.4-1.6-5.1-4.7-5.1c-3.3,0-5.5,2.9-5.5,6.2v10.1H770V892h3v2h0.8c1-1.4,3.1-2.5,5.6-2.5   c4.6,0,7.1,2.8,7.1,7.3v11.8h-3V910.7z"
   id="path1307" />
	<path
   class="st3"
   d="M619.4,938.1v12.1h-3.1v-11.7c0-3.1-1.2-4.6-3.6-4.6c-2.9,0-4.6,2.3-4.6,5.4v10.9H605v-11.7   c0-3.1-1.2-4.7-3.6-4.7c-3.1,0-4.6,2.6-4.6,6v10.3h-3.1v-18.6h3v1.8h0.8c0.9-1.4,2.4-2.3,4.7-2.3s3.9,0.8,4.9,2.5h0.8   c1.1-1.7,2.9-2.5,5.3-2.5C617.6,931,619.4,933.8,619.4,938.1z"
   id="path1309" />
	<path
   class="st3"
   d="M637.1,948.2h-0.8c-1.1,1.4-3.1,2.4-5.8,2.4c-4.3,0-6.7-2.9-6.7-6.1c0-3,2-6.2,7.1-6.2h6.1v-0.7   c0-2.3-1.3-3.9-4.6-3.9c-2.8,0-4.2,1.1-4.3,2.7H625c0.3-3.4,3.2-5.4,7.4-5.4c4.7,0,7.7,2.3,7.7,6.4v12.7h-3L637.1,948.2   L637.1,948.2z M636.9,942.6v-1.7h-5.6c-3.1,0-4.5,1.3-4.5,3.6c0,2.1,1.6,3.4,4.3,3.4C634.3,947.9,636.9,945.6,636.9,942.6z"
   id="path1311" />
	<path
   class="st3"
   d="M654.8,931.5v2.7h-4.7v10.2c0,1.9,0.8,2.8,3.3,2.8h1.4v2.8h-1.4c-4,0-6.4-1.3-6.4-5.2v-10.7h-3.2v-2.7h3.2   v-5.6h3.1v5.6h4.7V931.5z"
   id="path1313" />
	<path
   class="st3"
   d="M675.5,944.5c-0.7,3.7-3.5,6.1-7.8,6.1c-5.8,0-9.1-4.3-9.1-9.8c0-5.6,3.3-9.8,9.1-9.8c4.4,0,7.1,2.4,7.7,5.9   h-3.1c-0.6-1.9-2-3.1-4.6-3.1c-4.2,0-5.9,3.3-5.9,7s1.7,7.1,5.9,7.1c2.7,0,4.2-1.3,4.7-3.4H675.5z"
   id="path1315" />
	<path
   class="st3"
   d="M693.6,950.1V939c0-3.4-1.6-5.1-4.7-5.1c-3.3,0-5.5,2.9-5.5,6.2v10.1h-3.1v-26.9h3.1v10.2h0.8   c1-1.4,3-2.5,5.6-2.5c4.6,0,7.1,2.8,7.1,7.3v11.8H693.6z"
   id="path1317" />
	<path
   class="st3"
   d="M718.7,940.8h-14.2c0.1,4.4,2.1,7.1,6,7.1c2.6,0,4.2-1.1,4.7-2.9h3.2c-0.6,3.2-3.3,5.6-7.9,5.6   c-5.8,0-9.1-4.3-9.1-10s3.3-9.6,9-9.6c5.5,0,8.2,4.1,8.3,8.7V940.8z M704.6,938.2h10.8c-0.2-2.4-2-4.4-5.1-4.4   C706.9,933.8,705.1,935.8,704.6,938.2z"
   id="path1319" />
	<path
   class="st3"
   d="M730.5,938.8l2.1,0.3c3.3,0.6,5.3,2.2,5.3,5.6c0,3.1-2.6,5.8-7.7,5.8c-5.3,0-7.9-2.3-8.3-5.9h3.2   c0.3,2.1,2.1,3.1,5,3.1c2.8,0,4.7-1,4.7-3c0-1.6-1-2.5-3.4-2.9l-4.2-0.7c-2.7-0.5-4.5-1.9-4.5-4.7c0-3.1,2.3-5.5,7.4-5.5   c4.4,0,7,2.1,7.4,5.3h-3.1c-0.3-1.8-2-2.6-4.4-2.6s-4,0.9-4,2.5c0,1.4,0.9,2,2.8,2.3L730.5,938.8z"
   id="path1321" />
</g>
<g
   id="g1373">
	<path
   class="st3"
   d="M1312.2,887.2h-8.7v23.5h-3.3v-23.5h-8.7v-3h20.7V887.2z"
   id="path1325" />
	<path
   class="st3"
   d="M1329.4,910.7v-11.2c0-3.4-1.6-5.1-4.7-5.1c-3.3,0-5.5,2.9-5.5,6.2v10.1h-3.1v-26.9h3.1V894h0.8   c1-1.4,3-2.5,5.6-2.5c4.6,0,7.1,2.8,7.1,7.3v11.8h-3.3V910.7z"
   id="path1327" />
	<path
   class="st3"
   d="M1354.4,901.3h-14.2c0.1,4.4,2.1,7.1,6,7.1c2.6,0,4.2-1.1,4.7-2.9h3.2c-0.6,3.2-3.3,5.6-7.9,5.6   c-5.8,0-9.1-4.3-9.1-10s3.3-9.6,9-9.6c5.5,0,8.2,4.1,8.3,8.7V901.3z M1340.4,898.7h10.8c-0.2-2.4-2-4.4-5.1-4.4   C1342.7,894.3,1340.8,896.3,1340.4,898.7z"
   id="path1329" />
	<path
   class="st3"
   d="M1385.8,901.3h-14.2c0.1,4.4,2.1,7.1,6,7.1c2.6,0,4.2-1.1,4.7-2.9h3.2c-0.6,3.2-3.3,5.6-7.9,5.6   c-5.8,0-9.1-4.3-9.1-10s3.3-9.6,9-9.6c5.5,0,8.2,4.1,8.3,8.7V901.3z M1371.8,898.7h10.8c-0.2-2.4-2-4.4-5.1-4.4   C1374,894.3,1372.2,896.3,1371.8,898.7z"
   id="path1331" />
	<path
   class="st3"
   d="M1397.9,902.9h-1.3l-4.7,7.8h-3.4l5.8-9.5l-5.2-9.1h3.3l4.3,7.4h1.3l4.4-7.4h3.3l-5.3,9l5.8,9.7h-3.6   L1397.9,902.9z"
   id="path1333" />
	<path
   class="st3"
   d="M1425.8,905c-0.7,3.7-3.5,6.1-7.8,6.1c-5.8,0-9.1-4.3-9.1-9.8c0-5.6,3.3-9.8,9.1-9.8c4.4,0,7.1,2.4,7.7,5.9   h-3.1c-0.6-1.9-2-3.1-4.6-3.1c-4.2,0-5.9,3.3-5.9,7s1.7,7.1,5.9,7.1c2.7,0,4.2-1.3,4.7-3.4H1425.8z"
   id="path1335" />
	<path
   class="st3"
   d="M1446.6,901.3h-14.2c0.1,4.4,2.1,7.1,6,7.1c2.6,0,4.2-1.1,4.7-2.9h3.2c-0.6,3.2-3.3,5.6-7.9,5.6   c-5.8,0-9.1-4.3-9.1-10s3.3-9.6,9-9.6c5.5,0,8.2,4.1,8.3,8.7V901.3z M1432.6,898.7h10.8c-0.2-2.4-2-4.4-5.1-4.4   C1434.9,894.3,1433,896.3,1432.6,898.7z"
   id="path1337" />
	<path
   class="st3"
   d="M1454.6,892v2h0.8c1-1.3,2.8-2.5,5.8-2.5c5.1,0,8.2,4.3,8.2,9.8c0,5.6-3,9.8-8.2,9.8c-3,0-4.7-1.1-5.7-2.5   h-0.8v9.4h-3.1v-26H1454.6z M1454.6,901.3c0,3.7,1.7,7.1,5.8,7.1c3.7,0,5.7-2.9,5.7-7.1c0-4.1-2-7.1-5.7-7.1   C1456.3,894.3,1454.6,897.7,1454.6,901.3z"
   id="path1339" />
	<path
   class="st3"
   d="M1483.3,892v2.7h-4.7V905c0,1.9,0.8,2.8,3.3,2.8h1.4v2.8h-1.4c-4,0-6.4-1.3-6.4-5.2v-10.7h-3.2V892h3.2v-5.6   h3.1v5.6H1483.3z"
   id="path1341" />
	<path
   class="st3"
   d="M1488.5,887.2v-3.4h3.3v3.4H1488.5z M1491.7,910.7h-3.1V892h3.1V910.7z"
   id="path1343" />
	<path
   class="st3"
   d="M1515.1,901.3c0,5.5-3.4,9.8-9.2,9.8c-5.8,0-9.2-4.3-9.2-9.8s3.3-9.8,9.2-9.8   C1511.7,891.5,1515.1,895.8,1515.1,901.3z M1511.9,901.3c0-3.7-1.9-7.1-6-7.1s-6,3.4-6,7.1s1.9,7.1,6,7.1   C1510,908.4,1511.9,905,1511.9,901.3z"
   id="path1345" />
	<path
   class="st3"
   d="M1533.4,910.7v-11.2c0-3.4-1.6-5.1-4.7-5.1c-3.3,0-5.5,2.9-5.5,6.2v10.1h-3.1V892h3v2h0.8   c1-1.4,3.1-2.5,5.6-2.5c4.6,0,7.1,2.8,7.1,7.3v11.8h-3.2V910.7z"
   id="path1347" />
	<path
   class="st3"
   d="M1309.7,923.2v26.9h-3v-2h-0.8c-1,1.3-2.8,2.5-5.8,2.5c-5.1,0-8.2-4.3-8.2-9.8c0-5.6,3-9.8,8.2-9.8   c3,0,4.7,1.1,5.7,2.5h0.8v-10.2h3.1V923.2z M1306.6,940.8c0-3.7-1.7-7.1-5.8-7.1c-3.7,0-5.7,2.9-5.7,7.1s2,7.1,5.7,7.1   C1304.9,947.9,1306.6,944.5,1306.6,940.8z"
   id="path1349" />
	<path
   class="st3"
   d="M1333,940.8c0,5.5-3.4,9.8-9.2,9.8c-5.8,0-9.2-4.3-9.2-9.8s3.3-9.8,9.2-9.8C1329.6,931,1333,935.3,1333,940.8z    M1329.8,940.8c0-3.7-1.9-7.1-6-7.1s-6,3.4-6,7.1s1.9,7.1,6,7.1C1327.9,947.9,1329.8,944.5,1329.8,940.8z"
   id="path1351" />
	<path
   class="st3"
   d="M1354.1,940.8h-14.2c0.1,4.4,2.1,7.1,6,7.1c2.6,0,4.2-1.1,4.7-2.9h3.2c-0.6,3.2-3.3,5.6-7.9,5.6   c-5.8,0-9.1-4.3-9.1-10s3.3-9.6,9-9.6c5.5,0,8.2,4.1,8.3,8.7V940.8z M1340,938.2h10.8c-0.2-2.4-2-4.4-5.1-4.4   C1342.3,933.8,1340.4,935.8,1340,938.2z"
   id="path1353" />
	<path
   class="st3"
   d="M1365.9,938.8l2.1,0.3c3.3,0.6,5.3,2.2,5.3,5.6c0,3.1-2.6,5.8-7.7,5.8c-5.3,0-7.9-2.3-8.3-5.9h3.2   c0.3,2.1,2.1,3.1,5,3.1c2.8,0,4.7-1,4.7-3c0-1.6-1-2.5-3.4-2.9l-4.2-0.7c-2.7-0.5-4.5-1.9-4.5-4.7c0-3.1,2.3-5.5,7.4-5.5   c4.4,0,7,2.1,7.4,5.3h-3.1c-0.3-1.8-2-2.6-4.4-2.6s-4,0.9-4,2.5c0,1.4,0.9,2,2.8,2.3L1365.9,938.8z"
   id="path1355" />
	<path
   class="st3"
   d="M1391.4,950.1V939c0-3.4-1.6-5.1-4.7-5.1c-3.3,0-5.5,2.9-5.5,6.2v10.1h-3.1v-18.6h3v2h0.8   c1-1.4,3.1-2.5,5.6-2.5c4.6,0,7.1,2.8,7.1,7.3v11.8h-3.2V950.1z"
   id="path1357" />
	<path
   class="st3"
   d="M1400.1,928v-4.3h3.8v5l-2.1,3.6h-2l2.1-3.6V928H1400.1z"
   id="path1359" />
	<path
   class="st3"
   d="M1418.9,931.5v2.7h-4.7v10.2c0,1.9,0.8,2.8,3.3,2.8h1.4v2.8h-1.4c-4,0-6.4-1.3-6.4-5.2v-10.7h-3.2v-2.7h3.2   v-5.6h3.1v5.6h4.7V931.5z"
   id="path1361" />
	<path
   class="st3"
   d="M1460.1,938.1v12.1h-3.1v-11.7c0-3.1-1.2-4.6-3.6-4.6c-2.9,0-4.6,2.3-4.6,5.4v10.9h-3.1v-11.7   c0-3.1-1.2-4.7-3.6-4.7c-3.1,0-4.6,2.6-4.6,6v10.3h-3.1v-18.6h3v1.8h0.8c0.9-1.4,2.4-2.3,4.7-2.3c2.3,0,3.9,0.8,4.9,2.5h0.8   c1.1-1.7,2.9-2.5,5.3-2.5C1458.2,931,1460.1,933.8,1460.1,938.1z"
   id="path1363" />
	<path
   class="st3"
   d="M1477.7,948.2h-0.8c-1.1,1.4-3.1,2.4-5.8,2.4c-4.3,0-6.7-2.9-6.7-6.1c0-3,2-6.2,7.1-6.2h6.1v-0.7   c0-2.3-1.3-3.9-4.6-3.9c-2.8,0-4.2,1.1-4.3,2.7h-3.1c0.3-3.4,3.2-5.4,7.4-5.4c4.7,0,7.7,2.3,7.7,6.4v12.7h-3L1477.7,948.2   L1477.7,948.2z M1477.6,942.6v-1.7h-5.6c-3.1,0-4.5,1.3-4.5,3.6c0,2.1,1.6,3.4,4.3,3.4C1475,947.9,1477.6,945.6,1477.6,942.6z"
   id="path1365" />
	<path
   class="st3"
   d="M1495.5,931.5v2.7h-4.7v10.2c0,1.9,0.8,2.8,3.3,2.8h1.4v2.8h-1.4c-4,0-6.4-1.3-6.4-5.2v-10.7h-3.2v-2.7h3.2   v-5.6h3.1v5.6h4.7V931.5z"
   id="path1367" />
	<path
   class="st3"
   d="M1516.1,944.5c-0.7,3.7-3.5,6.1-7.8,6.1c-5.8,0-9.1-4.3-9.1-9.8c0-5.6,3.3-9.8,9.1-9.8c4.4,0,7.1,2.4,7.7,5.9   h-3.1c-0.6-1.9-2-3.1-4.6-3.1c-4.2,0-5.9,3.3-5.9,7s1.7,7.1,5.9,7.1c2.7,0,4.2-1.3,4.7-3.4H1516.1z"
   id="path1369" />
	<path
   class="st3"
   d="M1534.3,950.1V939c0-3.4-1.6-5.1-4.7-5.1c-3.3,0-5.5,2.9-5.5,6.2v10.1h-3.1v-26.9h3.1v10.2h0.8   c1-1.4,3-2.5,5.6-2.5c4.6,0,7.1,2.8,7.1,7.3v11.8H1534.3z"
   id="path1371" />
</g>
<g
   id="g1427">
	<path
   class="st0"
   d="M963.7,1182.2H596.5c-6.3,0-11.4-5.1-11.4-11.4v-94.1c0-6.3,5.1-11.4,11.4-11.4h367.1   c6.3,0,11.4,5.1,11.4,11.4v94.1C975.1,1177.1,970,1182.2,963.7,1182.2z"
   id="path1375" />
	<g
   id="g1425">
		<path
   class="st3"
   d="M696.4,1110.7v3h-19v-26.4h18.4v3h-15.1v8.2h12.1v3h-12.1v9.1h15.7V1110.7z"
   id="path1377" />
		<path
   class="st3"
   d="M709,1105.9h-1.3l-4.7,7.8h-3.4l5.8-9.5l-5.2-9.1h3.3l4.3,7.4h1.3l4.4-7.4h3.3l-5.3,9l5.8,9.7h-3.6    L709,1105.9z"
   id="path1379" />
		<path
   class="st3"
   d="M737.3,1104.4h-14.2c0.1,4.4,2.1,7.1,6,7.1c2.6,0,4.2-1.1,4.7-2.9h3.2c-0.6,3.2-3.3,5.6-7.9,5.6    c-5.8,0-9.1-4.3-9.1-10s3.3-9.6,9-9.6c5.5,0,8.2,4.1,8.3,8.7V1104.4z M723.2,1101.8H734c-0.2-2.4-2-4.4-5.1-4.4    C725.5,1097.4,723.6,1099.4,723.2,1101.8z"
   id="path1381" />
		<path
   class="st3"
   d="M757.9,1108.1c-0.7,3.7-3.5,6.1-7.8,6.1c-5.8,0-9.1-4.3-9.1-9.8c0-5.6,3.3-9.8,9.1-9.8c4.4,0,7.1,2.4,7.7,5.9    h-3.1c-0.6-1.9-2-3.1-4.6-3.1c-4.2,0-5.9,3.3-5.9,7s1.7,7.1,5.9,7.1c2.7,0,4.2-1.3,4.7-3.4L757.9,1108.1L757.9,1108.1z"
   id="path1383" />
		<path
   class="st3"
   d="M765.5,1095.1v11.2c0,3.4,1.6,5.1,4.7,5.1c3.3,0,5.5-2.8,5.5-6.2v-10.1h3.1v18.6h-3v-2H775    c-1,1.4-3.1,2.5-5.6,2.5c-4.6,0-7.1-2.8-7.1-7.3v-11.8L765.5,1095.1L765.5,1095.1z"
   id="path1385" />
		<path
   class="st3"
   d="M794,1095.1v2.7h-4.7v10.2c0,1.9,0.8,2.8,3.3,2.8h1.4v2.8h-1.4c-4,0-6.4-1.3-6.4-5.2v-10.7H783v-2.7h3.2v-5.6    h3.1v5.6L794,1095.1L794,1095.1z"
   id="path1387" />
		<path
   class="st3"
   d="M815,1104.4h-14.2c0.1,4.4,2.1,7.1,6,7.1c2.6,0,4.2-1.1,4.7-2.9h3.2c-0.6,3.2-3.3,5.6-7.9,5.6    c-5.8,0-9.1-4.3-9.1-10s3.3-9.6,9-9.6c5.5,0,8.2,4.1,8.3,8.7V1104.4z M801,1101.8h10.8c-0.2-2.4-2-4.4-5.1-4.4    C803.3,1097.4,801.4,1099.4,801,1101.8z"
   id="path1389" />
		<path
   class="st3"
   d="M839.2,1095.1v2.7h-4.7v10.2c0,1.9,0.8,2.8,3.3,2.8h1.4v2.8h-1.4c-4,0-6.4-1.3-6.4-5.2v-10.7h-3.2v-2.7h3.2    v-5.6h3.1v5.6L839.2,1095.1L839.2,1095.1z"
   id="path1391" />
		<path
   class="st3"
   d="M857.8,1113.7v-11.2c0-3.4-1.6-5.1-4.7-5.1c-3.3,0-5.5,2.9-5.5,6.2v10.1h-3.1v-26.9h3.1v10.2h0.8    c1-1.4,3-2.5,5.6-2.5c4.6,0,7.1,2.8,7.1,7.3v11.8L857.8,1113.7L857.8,1113.7z"
   id="path1393" />
		<path
   class="st3"
   d="M882.9,1104.4h-14.2c0.1,4.4,2.1,7.1,6,7.1c2.6,0,4.2-1.1,4.7-2.9h3.2c-0.6,3.2-3.3,5.6-7.9,5.6    c-5.8,0-9.1-4.3-9.1-10s3.3-9.6,9-9.6c5.5,0,8.2,4.1,8.3,8.7V1104.4z M868.9,1101.8h10.8c-0.2-2.4-2-4.4-5.1-4.4    C871.2,1097.4,869.3,1099.4,868.9,1101.8z"
   id="path1395" />
		<path
   class="st3"
   d="M659.6,1143.9h-14.2c0.1,4.4,2.1,7.1,6,7.1c2.6,0,4.2-1.1,4.7-2.9h3.2c-0.6,3.2-3.3,5.6-7.9,5.6    c-5.8,0-9.1-4.3-9.1-10s3.3-9.6,9-9.6c5.5,0,8.2,4.1,8.3,8.7V1143.9z M645.6,1141.2h10.8c-0.2-2.4-2-4.4-5.1-4.4    C647.8,1136.8,646,1138.9,645.6,1141.2z"
   id="path1397" />
		<path
   class="st3"
   d="M671.8,1145.4h-1.3l-4.7,7.8h-3.4l5.8-9.5l-5.2-9.1h3.3l4.3,7.4h1.3l4.4-7.4h3.3l-5.3,9l5.8,9.7h-3.6    L671.8,1145.4z"
   id="path1399" />
		<path
   class="st3"
   d="M699.6,1147.6c-0.7,3.7-3.5,6.1-7.8,6.1c-5.8,0-9.1-4.3-9.1-9.8c0-5.6,3.3-9.8,9.1-9.8c4.4,0,7.1,2.4,7.7,5.9    h-3.1c-0.6-1.9-2-3.1-4.6-3.1c-4.2,0-5.9,3.3-5.9,7s1.7,7.1,5.9,7.1c2.7,0,4.2-1.3,4.7-3.4L699.6,1147.6L699.6,1147.6z"
   id="path1401" />
		<path
   class="st3"
   d="M720.4,1143.9h-14.2c0.1,4.4,2.1,7.1,6,7.1c2.6,0,4.2-1.1,4.7-2.9h3.2c-0.6,3.2-3.3,5.6-7.9,5.6    c-5.8,0-9.1-4.3-9.1-10s3.3-9.6,9-9.6c5.5,0,8.2,4.1,8.3,8.7V1143.9z M706.4,1141.2h10.8c-0.2-2.4-2-4.4-5.1-4.4    C708.7,1136.8,706.8,1138.9,706.4,1141.2z"
   id="path1403" />
		<path
   class="st3"
   d="M728.4,1134.6v2h0.8c1-1.3,2.8-2.5,5.8-2.5c5.1,0,8.2,4.3,8.2,9.8c0,5.6-3,9.8-8.2,9.8c-3,0-4.7-1.1-5.7-2.5    h-0.8v9.4h-3.1v-26L728.4,1134.6L728.4,1134.6z M728.4,1143.9c0,3.7,1.7,7.1,5.8,7.1c3.7,0,5.7-2.9,5.7-7.1s-2-7.1-5.7-7.1    C730.1,1136.8,728.4,1140.2,728.4,1143.9z"
   id="path1405" />
		<path
   class="st3"
   d="M757.1,1134.6v2.7h-4.7v10.2c0,1.9,0.8,2.8,3.3,2.8h1.4v2.8h-1.4c-4,0-6.4-1.3-6.4-5.2v-10.7H746v-2.7h3.2    v-5.6h3.1v5.6L757.1,1134.6L757.1,1134.6z"
   id="path1407" />
		<path
   class="st3"
   d="M762.3,1129.7v-3.4h3.3v3.4H762.3z M765.5,1153.2h-3.1v-18.6h3.1V1153.2z"
   id="path1409" />
		<path
   class="st3"
   d="M788.9,1143.9c0,5.5-3.4,9.8-9.2,9.8s-9.2-4.3-9.2-9.8s3.3-9.8,9.2-9.8    C785.5,1134.1,788.9,1138.4,788.9,1143.9z M785.8,1143.9c0-3.7-1.9-7.1-6-7.1s-6,3.4-6,7.1s1.9,7.1,6,7.1    C783.8,1151,785.8,1147.6,785.8,1143.9z"
   id="path1411" />
		<path
   class="st3"
   d="M807.2,1153.2V1142c0-3.4-1.6-5.1-4.7-5.1c-3.3,0-5.6,2.9-5.6,6.2v10.1h-3.1v-18.6h3v2h0.8    c1-1.4,3.1-2.5,5.6-2.5c4.6,0,7.1,2.8,7.1,7.3v11.8L807.2,1153.2L807.2,1153.2z"
   id="path1413" />
		<path
   class="st3"
   d="M844.3,1143.9c0,5.5-3,9.8-8.2,9.8c-3,0-4.8-1.2-5.8-2.5h-0.8v2h-3v-26.9h3.1v10.2h0.8c1-1.3,2.7-2.5,5.7-2.5    C841.3,1134.1,844.3,1138.3,844.3,1143.9z M841.1,1143.9c0-4.1-2-7.1-5.7-7.1c-4.1,0-5.8,3.4-5.8,7.1s1.7,7.1,5.8,7.1    C839.1,1151,841.1,1148,841.1,1143.9z"
   id="path1415" />
		<path
   class="st3"
   d="M852.4,1126.3v26.9h-3.1v-26.9H852.4z"
   id="path1417" />
		<path
   class="st3"
   d="M875.6,1143.9c0,5.5-3.4,9.8-9.2,9.8s-9.2-4.3-9.2-9.8s3.3-9.8,9.2-9.8S875.6,1138.4,875.6,1143.9z     M872.5,1143.9c0-3.7-1.9-7.1-6-7.1s-6,3.4-6,7.1s1.9,7.1,6,7.1S872.5,1147.6,872.5,1143.9z"
   id="path1419" />
		<path
   class="st3"
   d="M896.3,1147.6c-0.7,3.7-3.5,6.1-7.8,6.1c-5.8,0-9.1-4.3-9.1-9.8c0-5.6,3.3-9.8,9.1-9.8c4.4,0,7.1,2.4,7.7,5.9    h-3.1c-0.6-1.9-2-3.1-4.6-3.1c-4.2,0-5.9,3.3-5.9,7s1.7,7.1,5.9,7.1c2.7,0,4.2-1.3,4.7-3.4L896.3,1147.6L896.3,1147.6z"
   id="path1421" />
		<path
   class="st3"
   d="M914.6,1153.2l-5.3-10.1h-0.8l-4.3,4.7v5.4H901v-26.9h3.1v17.6l8.8-9.4h3.7l-5.4,5.7l6.6,12.9h-3.2V1153.2z"
   id="path1423" />
	</g>
</g>

<g
   id="g1553">
	<path
   class="st0"
   d="M1456.1,1380.1H1089c-6.3,0-11.4-5.1-11.4-11.4v-94.1c0-6.3,5.1-11.4,11.4-11.4h367.1   c6.3,0,11.4,5.1,11.4,11.4v94.1C1467.5,1375,1462.4,1380.1,1456.1,1380.1z"
   id="path1495" />
	<g
   id="g1551">
		<path
   class="st3"
   d="M1114.9,1300.3c4,0.9,6.6,2.9,6.6,7.4c0,4.1-3.3,7.8-10,7.8c-6.2,0-10.2-3.3-10.6-7.8h3.4    c0.6,3.6,3.8,4.8,7.4,4.8c3.7,0,6.5-1.7,6.5-4.7c0-2.8-1.9-3.9-4.5-4.5c-1.3-0.3-3.9-0.8-5.2-1.1c-3.8-0.8-6.4-2.8-6.4-6.7    c0-4.1,3.3-7.3,9.3-7.3c5.5,0,9,2.9,9.6,7.1h-3.4c-0.6-2.7-2.4-4.1-6.3-4.1c-3.2,0-5.8,1.4-5.8,4.2c0,2.6,2.3,3.4,4.5,3.8    C1111,1299.5,1113.5,1300,1114.9,1300.3z"
   id="path1497" />
		<path
   class="st3"
   d="M1135.7,1296.4v2.7h-4.7v10.2c0,1.9,0.8,2.8,3.3,2.8h1.4v2.8h-1.4c-4,0-6.4-1.3-6.4-5.2V1299h-3.2v-2.7h3.2    v-5.6h3.1v5.6L1135.7,1296.4L1135.7,1296.4z"
   id="path1499" />
		<path
   class="st3"
   d="M1157.8,1305.8c0,5.5-3.4,9.8-9.2,9.8c-5.8,0-9.2-4.3-9.2-9.8s3.3-9.8,9.2-9.8    C1154.4,1296,1157.8,1300.3,1157.8,1305.8z M1154.7,1305.8c0-3.7-1.9-7.1-6-7.1s-6,3.4-6,7.1s1.9,7.1,6,7.1    C1152.7,1312.8,1154.7,1309.4,1154.7,1305.8z"
   id="path1501" />
		<path
   class="st3"
   d="M1165.8,1296.4v2h0.8c1-1.3,2.8-2.5,5.8-2.5c5.1,0,8.2,4.3,8.2,9.8c0,5.6-3,9.8-8.2,9.8c-3,0-4.7-1.1-5.7-2.5    h-0.8v9.4h-3.1v-26L1165.8,1296.4L1165.8,1296.4z M1165.8,1305.8c0,3.7,1.7,7.1,5.8,7.1c3.7,0,5.7-2.9,5.7-7.1    c0-4.1-2-7.1-5.7-7.1C1167.5,1298.7,1165.8,1302.1,1165.8,1305.8z"
   id="path1503" />
		<path
   class="st3"
   d="M1211.9,1305.7h-14.2c0.1,4.4,2.1,7.1,6,7.1c2.6,0,4.2-1.1,4.7-2.9h3.2c-0.6,3.2-3.3,5.6-7.9,5.6    c-5.8,0-9.1-4.3-9.1-10s3.3-9.6,9-9.6c5.5,0,8.2,4.1,8.3,8.7V1305.7z M1197.9,1303.1h10.8c-0.2-2.4-2-4.4-5.1-4.4    C1200.2,1298.7,1198.3,1300.7,1197.9,1303.1z"
   id="path1505" />
		<path
   class="st3"
   d="M1224.1,1307.3h-1.3l-4.7,7.8h-3.4l5.8-9.5l-5.2-9.1h3.3l4.3,7.4h1.3l4.4-7.4h3.3l-5.3,9l5.8,9.7h-3.6    L1224.1,1307.3z"
   id="path1507" />
		<path
   class="st3"
   d="M1252.3,1305.7h-14.2c0.1,4.4,2.1,7.1,6,7.1c2.6,0,4.2-1.1,4.7-2.9h3.2c-0.6,3.2-3.3,5.6-7.9,5.6    c-5.8,0-9.1-4.3-9.1-10s3.3-9.6,9-9.6c5.5,0,8.2,4.1,8.3,8.7V1305.7z M1238.3,1303.1h10.8c-0.2-2.4-2-4.4-5.1-4.4    C1240.6,1298.7,1238.7,1300.7,1238.3,1303.1z"
   id="path1509" />
		<path
   class="st3"
   d="M1273,1309.5c-0.7,3.7-3.5,6.1-7.8,6.1c-5.8,0-9.1-4.3-9.1-9.8c0-5.6,3.3-9.8,9.1-9.8c4.4,0,7.1,2.4,7.7,5.9    h-3.1c-0.6-1.9-2-3.1-4.6-3.1c-4.2,0-5.9,3.3-5.9,7s1.7,7.1,5.9,7.1c2.7,0,4.2-1.3,4.7-3.4L1273,1309.5L1273,1309.5z"
   id="path1511" />
		<path
   class="st3"
   d="M1280.5,1296.4v11.2c0,3.4,1.6,5.1,4.7,5.1c3.3,0,5.5-2.8,5.5-6.2v-10.1h3.1v18.6h-3v-2h-0.8    c-1,1.4-3.1,2.5-5.6,2.5c-4.6,0-7.1-2.8-7.1-7.3v-11.8L1280.5,1296.4L1280.5,1296.4z"
   id="path1513" />
		<path
   class="st3"
   d="M1309.1,1296.4v2.7h-4.7v10.2c0,1.9,0.8,2.8,3.3,2.8h1.4v2.8h-1.4c-4,0-6.4-1.3-6.4-5.2V1299h-3.2v-2.7h3.2    v-5.6h3.1v5.6L1309.1,1296.4L1309.1,1296.4z"
   id="path1515" />
		<path
   class="st3"
   d="M1314.2,1291.6v-3.4h3.3v3.4H1314.2z M1317.5,1315.1h-3.1v-18.6h3.1V1315.1z"
   id="path1517" />
		<path
   class="st3"
   d="M1340.8,1305.8c0,5.5-3.4,9.8-9.2,9.8c-5.8,0-9.2-4.3-9.2-9.8s3.3-9.8,9.2-9.8S1340.8,1300.3,1340.8,1305.8z     M1337.7,1305.8c0-3.7-1.9-7.1-6-7.1s-6,3.4-6,7.1s1.9,7.1,6,7.1C1335.8,1312.8,1337.7,1309.4,1337.7,1305.8z"
   id="path1519" />
		<path
   class="st3"
   d="M1359.2,1315.1v-11.2c0-3.4-1.6-5.1-4.7-5.1c-3.3,0-5.5,2.9-5.5,6.2v10.1h-3.1v-18.6h3v2h0.8    c1-1.4,3.1-2.5,5.6-2.5c4.6,0,7.1,2.8,7.1,7.3v11.8L1359.2,1315.1L1359.2,1315.1z"
   id="path1521" />
		<path
   class="st3"
   d="M1390.2,1302.6l3.1,9.2h0.8l2.1-15.3h3l-2.7,18.6h-4.8l-3.3-9.4h-0.8l-3.3,9.4h-4.9l-2.7-18.6h3l2.2,15.3h0.8    l3.2-9.2H1390.2z"
   id="path1523" />
		<path
   class="st3"
   d="M1404,1291.6v-3.4h3.3v3.4H1404z M1407.2,1315.1h-3.1v-18.6h3.1V1315.1z"
   id="path1525" />
		<path
   class="st3"
   d="M1422.4,1296.4v2.7h-4.7v10.2c0,1.9,0.8,2.8,3.3,2.8h1.4v2.8h-1.4c-4,0-6.4-1.3-6.4-5.2V1299h-3.2v-2.7h3.2    v-5.6h3.1v5.6L1422.4,1296.4L1422.4,1296.4z"
   id="path1527" />
		<path
   class="st3"
   d="M1441,1315.1v-11.2c0-3.4-1.6-5.1-4.7-5.1c-3.3,0-5.5,2.9-5.5,6.2v10.1h-3.1v-26.9h3.1v10.2h0.8    c1-1.4,3-2.5,5.6-2.5c4.6,0,7.1,2.8,7.1,7.3v11.8L1441,1315.1L1441,1315.1z"
   id="path1529" />
		<path
   class="st3"
   d="M1189.9,1352.6h-0.8c-1.1,1.4-3.1,2.4-5.8,2.4c-4.3,0-6.7-2.9-6.7-6.1c0-3,2-6.2,7.1-6.2h6.1v-0.7    c0-2.3-1.3-3.9-4.6-3.9c-2.8,0-4.2,1.1-4.3,2.7h-3.1c0.3-3.4,3.2-5.4,7.4-5.4c4.7,0,7.7,2.3,7.7,6.4v12.7h-3L1189.9,1352.6    L1189.9,1352.6z M1189.8,1347v-1.7h-5.6c-3.1,0-4.5,1.3-4.5,3.6c0,2.1,1.6,3.4,4.3,3.4C1187.2,1352.3,1189.8,1350,1189.8,1347z"
   id="path1531" />
		<path
   class="st3"
   d="M1218,1335.9v2.7h-4.7v10.2c0,1.9,0.8,2.8,3.3,2.8h1.4v2.8h-1.4c-4,0-6.4-1.3-6.4-5.2v-10.7h-3.2v-2.7h3.2    v-5.6h3.1v5.6L1218,1335.9L1218,1335.9z"
   id="path1533" />
		<path
   class="st3"
   d="M1233.8,1338.9h-1.6c-3.7,0-6,2.3-6,6.4v9.3h-3.1V1336h3v2.2h0.8c0.9-1.1,2.7-2.2,5.4-2.2h1.4L1233.8,1338.9    L1233.8,1338.9z"
   id="path1535" />
		<path
   class="st3"
   d="M1249.8,1352.6h-0.8c-1.1,1.4-3.1,2.4-5.8,2.4c-4.3,0-6.7-2.9-6.7-6.1c0-3,2-6.2,7.1-6.2h6.1v-0.7    c0-2.3-1.3-3.9-4.6-3.9c-2.8,0-4.2,1.1-4.3,2.7h-3.1c0.3-3.4,3.2-5.4,7.4-5.4c4.7,0,7.7,2.3,7.7,6.4v12.7h-3L1249.8,1352.6    L1249.8,1352.6z M1249.7,1347v-1.7h-5.6c-3.1,0-4.5,1.3-4.5,3.6c0,2.1,1.6,3.4,4.3,3.4C1247,1352.3,1249.7,1350,1249.7,1347z"
   id="path1537" />
		<path
   class="st3"
   d="M1274.3,1349c-0.7,3.7-3.5,6.1-7.8,6.1c-5.8,0-9.1-4.3-9.1-9.8c0-5.6,3.3-9.8,9.1-9.8c4.4,0,7.1,2.4,7.7,5.9    h-3.1c-0.6-1.9-2-3.1-4.6-3.1c-4.2,0-5.9,3.3-5.9,7s1.7,7.1,5.9,7.1c2.7,0,4.2-1.3,4.7-3.4L1274.3,1349L1274.3,1349z"
   id="path1539" />
		<path
   class="st3"
   d="M1295.1,1345.2h-14.2c0.1,4.4,2.1,7.1,6,7.1c2.6,0,4.2-1.1,4.7-2.9h3.2c-0.6,3.2-3.3,5.6-7.9,5.6    c-5.8,0-9.1-4.3-9.1-10s3.3-9.6,9-9.6c5.5,0,8.2,4.1,8.3,8.7V1345.2z M1281.1,1342.6h10.8c-0.2-2.4-2-4.4-5.1-4.4    C1283.4,1338.2,1281.5,1340.2,1281.1,1342.6z"
   id="path1541" />
		<path
   class="st3"
   d="M1317.9,1345.3c0,5.5-3,9.8-8.2,9.8c-3,0-4.8-1.2-5.8-2.5h-0.8v2h-3v-26.9h3.1v10.2h0.8    c1-1.3,2.7-2.5,5.7-2.5C1314.8,1335.4,1317.9,1339.6,1317.9,1345.3z M1314.7,1345.3c0-4.1-2-7.1-5.7-7.1c-4.1,0-5.8,3.4-5.8,7.1    s1.7,7.1,5.8,7.1C1312.7,1352.3,1314.7,1349.4,1314.7,1345.3z"
   id="path1543" />
		<path
   class="st3"
   d="M1334.7,1352.6h-0.8c-1.1,1.4-3.1,2.4-5.8,2.4c-4.3,0-6.7-2.9-6.7-6.1c0-3,2-6.2,7.1-6.2h6.1v-0.7    c0-2.3-1.3-3.9-4.6-3.9c-2.8,0-4.2,1.1-4.3,2.7h-3.1c0.3-3.4,3.2-5.4,7.4-5.4c4.7,0,7.7,2.3,7.7,6.4v12.7h-3L1334.7,1352.6    L1334.7,1352.6z M1334.5,1347v-1.7h-5.6c-3.1,0-4.5,1.3-4.5,3.6c0,2.1,1.6,3.4,4.3,3.4C1331.9,1352.3,1334.5,1350,1334.5,1347z"
   id="path1545" />
		<path
   class="st3"
   d="M1359.1,1349c-0.7,3.7-3.5,6.1-7.8,6.1c-5.8,0-9.1-4.3-9.1-9.8c0-5.6,3.3-9.8,9.1-9.8c4.4,0,7.1,2.4,7.7,5.9    h-3.1c-0.6-1.9-2-3.1-4.6-3.1c-4.2,0-5.9,3.3-5.9,7s1.7,7.1,5.9,7.1c2.7,0,4.2-1.3,4.7-3.4L1359.1,1349L1359.1,1349z"
   id="path1547" />
		<path
   class="st3"
   d="M1377.4,1354.6l-5.3-10.1h-0.8l-4.3,4.7v5.4h-3.1v-26.9h3.1v17.6l8.8-9.4h3.7l-5.4,5.7l6.6,12.9h-3.3V1354.6z    "
   id="path1549" />
	</g>
</g>
<g
   id="g1619">
	<path
   class="st0"
   d="M1456.1,1182.2H1089c-6.3,0-11.4-5.1-11.4-11.4v-94.1c0-6.3,5.1-11.4,11.4-11.4h367.1   c6.3,0,11.4,5.1,11.4,11.4v94.1C1467.5,1177.1,1462.4,1182.2,1456.1,1182.2z"
   id="path1555" />
	<g
   id="g1617">
		<path
   class="st3"
   d="M1119.1,1098.9c4,0.9,6.6,2.9,6.6,7.4c0,4.1-3.3,7.8-10,7.8c-6.2,0-10.2-3.3-10.6-7.8h3.4    c0.6,3.6,3.8,4.8,7.4,4.8c3.7,0,6.5-1.7,6.5-4.7c0-2.8-1.9-3.9-4.5-4.5c-1.3-0.3-3.9-0.8-5.2-1.1c-3.8-0.8-6.4-2.8-6.4-6.7    c0-4.1,3.3-7.3,9.3-7.3c5.5,0,9,2.9,9.6,7.1h-3.4c-0.6-2.7-2.4-4.1-6.3-4.1c-3.2,0-5.8,1.4-5.8,4.2c0,2.6,2.3,3.4,4.5,3.8    C1115.3,1098.1,1117.8,1098.6,1119.1,1098.9z"
   id="path1557" />
		<path
   class="st3"
   d="M1144.6,1113.7l-5.3-10.1h-0.8l-4.3,4.7v5.4h-3.1v-26.9h3.1v17.6l8.8-9.4h3.7l-5.4,5.7l6.6,12.9h-3.3V1113.7z    "
   id="path1559" />
		<path
   class="st3"
   d="M1151.4,1090.2v-3.4h3.3v3.4H1151.4z M1154.7,1113.7h-3.1v-18.6h3.1V1113.7z"
   id="path1561" />
		<path
   class="st3"
   d="M1163.9,1095.1v2h0.8c1-1.3,2.8-2.5,5.8-2.5c5.1,0,8.2,4.3,8.2,9.8c0,5.6-3,9.8-8.2,9.8c-3,0-4.7-1.1-5.7-2.5    h-0.8v9.4h-3.1v-26L1163.9,1095.1L1163.9,1095.1z M1164,1104.4c0,3.7,1.7,7.1,5.8,7.1c3.7,0,5.7-2.9,5.7-7.1s-2-7.1-5.7-7.1    C1165.7,1097.4,1164,1100.8,1164,1104.4z"
   id="path1563" />
		<path
   class="st3"
   d="M1202.9,1095.1v2.7h-4.7v10.2c0,1.9,0.8,2.8,3.3,2.8h1.4v2.8h-1.4c-4,0-6.4-1.3-6.4-5.2v-10.7h-3.2v-2.7h3.2    v-5.6h3.1v5.6L1202.9,1095.1L1202.9,1095.1z"
   id="path1565" />
		<path
   class="st3"
   d="M1221.5,1113.7v-11.2c0-3.4-1.6-5.1-4.7-5.1c-3.3,0-5.5,2.9-5.5,6.2v10.1h-3.1v-26.9h3.1v10.2h0.8    c1-1.4,3-2.5,5.6-2.5c4.6,0,7.1,2.8,7.1,7.3v11.8L1221.5,1113.7L1221.5,1113.7z"
   id="path1567" />
		<path
   class="st3"
   d="M1246.6,1104.4h-14.2c0.1,4.4,2.1,7.1,6,7.1c2.6,0,4.2-1.1,4.7-2.9h3.2c-0.6,3.2-3.3,5.6-7.9,5.6    c-5.8,0-9.1-4.3-9.1-10s3.3-9.6,9-9.6c5.5,0,8.2,4.1,8.3,8.7V1104.4z M1232.6,1101.8h10.8c-0.2-2.4-2-4.4-5.1-4.4    C1234.8,1097.4,1233,1099.4,1232.6,1101.8z"
   id="path1569" />
		<path
   class="st3"
   d="M1272.4,1098.1h-1.6c-3.7,0-6,2.3-6,6.4v9.3h-3.1v-18.6h3v2.2h0.8c0.9-1.1,2.7-2.2,5.4-2.2h1.4L1272.4,1098.1    L1272.4,1098.1z"
   id="path1571" />
		<path
   class="st3"
   d="M1292.7,1104.4h-14.2c0.1,4.4,2.1,7.1,6,7.1c2.6,0,4.2-1.1,4.7-2.9h3.2c-0.6,3.2-3.3,5.6-7.9,5.6    c-5.8,0-9.1-4.3-9.1-10s3.3-9.6,9-9.6c5.5,0,8.2,4.1,8.3,8.7V1104.4z M1278.7,1101.8h10.8c-0.2-2.4-2-4.4-5.1-4.4    C1280.9,1097.4,1279.1,1099.4,1278.7,1101.8z"
   id="path1573" />
		<path
   class="st3"
   d="M1304.6,1102.4l2.1,0.3c3.3,0.6,5.3,2.2,5.3,5.6c0,3.1-2.6,5.8-7.7,5.8c-5.3,0-7.9-2.3-8.3-5.9h3.2    c0.3,2.1,2.1,3.1,5,3.1c2.8,0,4.7-1,4.7-3c0-1.6-1-2.5-3.4-2.9l-4.2-0.7c-2.7-0.5-4.5-1.9-4.5-4.7c0-3.1,2.3-5.5,7.4-5.5    c4.4,0,7,2.1,7.4,5.3h-3.1c-0.3-1.8-2-2.6-4.4-2.6s-4,0.9-4,2.5c0,1.4,0.9,2,2.8,2.3L1304.6,1102.4z"
   id="path1575" />
		<path
   class="st3"
   d="M1325.6,1095.1v2.7h-4.7v10.2c0,1.9,0.8,2.8,3.3,2.8h1.4v2.8h-1.4c-4,0-6.4-1.3-6.4-5.2v-10.7h-3.2v-2.7h3.2    v-5.6h3.1v5.6L1325.6,1095.1L1325.6,1095.1z"
   id="path1577" />
		<path
   class="st3"
   d="M1358.3,1104.4c0,5.5-3.4,9.8-9.2,9.8c-5.8,0-9.2-4.3-9.2-9.8s3.3-9.8,9.2-9.8    C1354.9,1094.6,1358.3,1098.9,1358.3,1104.4z M1355.2,1104.4c0-3.7-1.9-7.1-6-7.1s-6,3.4-6,7.1s1.9,7.1,6,7.1    C1353.2,1111.5,1355.2,1108.1,1355.2,1104.4z"
   id="path1579" />
		<path
   class="st3"
   d="M1367.6,1097.8v15.9h-3.1v-15.9h-3.2v-2.7h3.2v-2.1c0-4.3,2.4-6.1,6.4-6.1h1.8v2.7h-1.8    c-2.5,0-3.3,1.6-3.3,3.5v2h5.1v2.7H1367.6z"
   id="path1581" />
		<path
   class="st3"
   d="M1396.2,1095.1v2.7h-4.7v10.2c0,1.9,0.8,2.8,3.3,2.8h1.4v2.8h-1.4c-4,0-6.4-1.3-6.4-5.2v-10.7h-3.2v-2.7h3.2    v-5.6h3.1v5.6L1396.2,1095.1L1396.2,1095.1z"
   id="path1583" />
		<path
   class="st3"
   d="M1414.8,1113.7v-11.2c0-3.4-1.6-5.1-4.7-5.1c-3.3,0-5.5,2.9-5.5,6.2v10.1h-3.1v-26.9h3.1v10.2h0.8    c1-1.4,3-2.5,5.6-2.5c4.6,0,7.1,2.8,7.1,7.3v11.8L1414.8,1113.7L1414.8,1113.7z"
   id="path1585" />
		<path
   class="st3"
   d="M1439.9,1104.4h-14.2c0.1,4.4,2.1,7.1,6,7.1c2.6,0,4.2-1.1,4.7-2.9h3.2c-0.6,3.2-3.3,5.6-7.9,5.6    c-5.8,0-9.1-4.3-9.1-10s3.3-9.6,9-9.6c5.5,0,8.2,4.1,8.3,8.7V1104.4z M1425.8,1101.8h10.8c-0.2-2.4-2-4.4-5.1-4.4    C1428.1,1097.4,1426.2,1099.4,1425.8,1101.8z"
   id="path1587" />
		<path
   class="st3"
   d="M1152.7,1143.9h-14.2c0.1,4.4,2.1,7.1,6,7.1c2.6,0,4.2-1.1,4.7-2.9h3.2c-0.6,3.2-3.3,5.6-7.9,5.6    c-5.8,0-9.1-4.3-9.1-10s3.3-9.6,9-9.6c5.5,0,8.2,4.1,8.3,8.7V1143.9z M1138.7,1141.2h10.8c-0.2-2.4-2-4.4-5.1-4.4    C1141,1136.8,1139.1,1138.9,1138.7,1141.2z"
   id="path1589" />
		<path
   class="st3"
   d="M1164.9,1145.4h-1.3l-4.7,7.8h-3.4l5.8-9.5l-5.2-9.1h3.3l4.3,7.4h1.3l4.4-7.4h3.3l-5.3,9l5.8,9.7h-3.6    L1164.9,1145.4z"
   id="path1591" />
		<path
   class="st3"
   d="M1192.7,1147.6c-0.7,3.7-3.5,6.1-7.8,6.1c-5.8,0-9.1-4.3-9.1-9.8c0-5.6,3.3-9.8,9.1-9.8    c4.4,0,7.1,2.4,7.7,5.9h-3.1c-0.6-1.9-2-3.1-4.6-3.1c-4.2,0-5.9,3.3-5.9,7s1.7,7.1,5.9,7.1c2.7,0,4.2-1.3,4.7-3.4L1192.7,1147.6    L1192.7,1147.6z"
   id="path1593" />
		<path
   class="st3"
   d="M1213.6,1143.9h-14.2c0.1,4.4,2.1,7.1,6,7.1c2.6,0,4.2-1.1,4.7-2.9h3.2c-0.6,3.2-3.3,5.6-7.9,5.6    c-5.8,0-9.1-4.3-9.1-10s3.3-9.6,9-9.6c5.5,0,8.2,4.1,8.3,8.7V1143.9z M1199.6,1141.2h10.8c-0.2-2.4-2-4.4-5.1-4.4    C1201.8,1136.8,1200,1138.9,1199.6,1141.2z"
   id="path1595" />
		<path
   class="st3"
   d="M1221.5,1134.6v2h0.8c1-1.3,2.8-2.5,5.8-2.5c5.1,0,8.2,4.3,8.2,9.8c0,5.6-3,9.8-8.2,9.8c-3,0-4.7-1.1-5.7-2.5    h-0.8v9.4h-3.1v-26L1221.5,1134.6L1221.5,1134.6z M1221.6,1143.9c0,3.7,1.7,7.1,5.8,7.1c3.7,0,5.7-2.9,5.7-7.1    c0-4.1-2-7.1-5.7-7.1C1223.3,1136.8,1221.6,1140.2,1221.6,1143.9z"
   id="path1597" />
		<path
   class="st3"
   d="M1250.3,1134.6v2.7h-4.7v10.2c0,1.9,0.8,2.8,3.3,2.8h1.4v2.8h-1.4c-4,0-6.4-1.3-6.4-5.2v-10.7h-3.2v-2.7h3.2    v-5.6h3.1v5.6L1250.3,1134.6L1250.3,1134.6z"
   id="path1599" />
		<path
   class="st3"
   d="M1255.4,1129.7v-3.4h3.3v3.4H1255.4z M1258.7,1153.2h-3.1v-18.6h3.1V1153.2z"
   id="path1601" />
		<path
   class="st3"
   d="M1282,1143.9c0,5.5-3.4,9.8-9.2,9.8c-5.8,0-9.2-4.3-9.2-9.8s3.3-9.8,9.2-9.8S1282,1138.4,1282,1143.9z     M1278.9,1143.9c0-3.7-1.9-7.1-6-7.1s-6,3.4-6,7.1s1.9,7.1,6,7.1S1278.9,1147.6,1278.9,1143.9z"
   id="path1603" />
		<path
   class="st3"
   d="M1300.4,1153.2V1142c0-3.4-1.6-5.1-4.7-5.1c-3.3,0-5.5,2.9-5.5,6.2v10.1h-3.1v-18.6h3v2h0.8    c1-1.4,3.1-2.5,5.6-2.5c4.6,0,7.1,2.8,7.1,7.3v11.8L1300.4,1153.2L1300.4,1153.2z"
   id="path1605" />
		<path
   class="st3"
   d="M1337.4,1143.9c0,5.5-3,9.8-8.2,9.8c-3,0-4.8-1.2-5.8-2.5h-0.8v2h-3v-26.9h3.1v10.2h0.8    c1-1.3,2.7-2.5,5.7-2.5C1334.4,1134.1,1337.4,1138.3,1337.4,1143.9z M1334.3,1143.9c0-4.1-2-7.1-5.7-7.1c-4.1,0-5.8,3.4-5.8,7.1    s1.7,7.1,5.8,7.1C1332.3,1151,1334.3,1148,1334.3,1143.9z"
   id="path1607" />
		<path
   class="st3"
   d="M1345.5,1126.3v26.9h-3.1v-26.9H1345.5z"
   id="path1609" />
		<path
   class="st3"
   d="M1368.8,1143.9c0,5.5-3.4,9.8-9.2,9.8c-5.8,0-9.2-4.3-9.2-9.8s3.3-9.8,9.2-9.8    C1365.4,1134.1,1368.8,1138.4,1368.8,1143.9z M1365.6,1143.9c0-3.7-1.9-7.1-6-7.1s-6,3.4-6,7.1s1.9,7.1,6,7.1    S1365.6,1147.6,1365.6,1143.9z"
   id="path1611" />
		<path
   class="st3"
   d="M1389.4,1147.6c-0.7,3.7-3.5,6.1-7.8,6.1c-5.8,0-9.1-4.3-9.1-9.8c0-5.6,3.3-9.8,9.1-9.8    c4.4,0,7.1,2.4,7.7,5.9h-3.1c-0.6-1.9-2-3.1-4.6-3.1c-4.2,0-5.9,3.3-5.9,7s1.7,7.1,5.9,7.1c2.7,0,4.2-1.3,4.7-3.4L1389.4,1147.6    L1389.4,1147.6z"
   id="path1613" />
		<path
   class="st3"
   d="M1407.7,1153.2l-5.3-10.1h-0.8l-4.3,4.7v5.4h-3.1v-26.9h3.1v17.6l8.8-9.4h3.7l-5.4,5.7l6.6,12.9h-3.3V1153.2z    "
   id="path1615" />
	</g>
</g>
<g
   id="g1671">
	<path
   class="st3"
   d="M940.8,796.6h5.6L953,809h0.8l6.5-12.4h5.6V823h-3.3v-22.6h-0.8l-6.8,12.5h-3.5l-6.8-12.5H944V823h-3.3   L940.8,796.6L940.8,796.6z"
   id="path1621" />
	<path
   class="st3"
   d="M984.2,821.1h-0.8c-1.1,1.4-3.1,2.4-5.8,2.4c-4.3,0-6.7-2.9-6.7-6.1c0-3,2-6.2,7.1-6.2h6.1v-0.7   c0-2.3-1.3-3.9-4.6-3.9c-2.8,0-4.2,1.1-4.3,2.7h-3.1c0.3-3.4,3.2-5.4,7.4-5.4c4.7,0,7.7,2.3,7.7,6.4V823h-3L984.2,821.1   L984.2,821.1z M984.1,815.5v-1.7h-5.6c-3.1,0-4.5,1.3-4.5,3.6c0,2.1,1.6,3.4,4.3,3.4C981.5,820.8,984.1,818.5,984.1,815.5z"
   id="path1623" />
	<path
   class="st3"
   d="M1002,804.4v2.7h-4.7v10.2c0,1.9,0.8,2.8,3.3,2.8h1.4v2.8h-1.4c-4,0-6.4-1.3-6.4-5.2V807H991v-2.7h3.2v-5.6   h3.1v5.6h4.7V804.4z"
   id="path1625" />
	<path
   class="st3"
   d="M1022.6,817.4c-0.7,3.7-3.5,6.1-7.8,6.1c-5.8,0-9.1-4.3-9.1-9.8c0-5.6,3.3-9.8,9.1-9.8c4.4,0,7.1,2.4,7.7,5.9   h-3.1c-0.6-1.9-2-3.1-4.6-3.1c-4.2,0-5.9,3.3-5.9,7s1.7,7.1,5.9,7.1c2.7,0,4.2-1.3,4.7-3.4H1022.6z"
   id="path1627" />
	<path
   class="st3"
   d="M1040.7,823.1v-11.2c0-3.4-1.6-5.1-4.7-5.1c-3.3,0-5.5,2.9-5.5,6.2v10.1h-3.1v-26.9h3.1v10.2h0.8   c1-1.4,3-2.5,5.6-2.5c4.6,0,7.1,2.8,7.1,7.3V823h-3.3V823.1z"
   id="path1629" />
	<path
   class="st3"
   d="M1069,804.4v2.7h-4.7v10.2c0,1.9,0.8,2.8,3.3,2.8h1.4v2.8h-1.4c-4,0-6.4-1.3-6.4-5.2V807h-3.2v-2.7h3.2v-5.6   h3.1v5.6h4.7V804.4z"
   id="path1631" />
	<path
   class="st3"
   d="M1087.6,823.1v-11.2c0-3.4-1.6-5.1-4.7-5.1c-3.3,0-5.5,2.9-5.5,6.2v10.1h-3.1v-26.9h3.1v10.2h0.8   c1-1.4,3-2.5,5.6-2.5c4.6,0,7.1,2.8,7.1,7.3V823h-3.3V823.1z"
   id="path1633" />
	<path
   class="st3"
   d="M1112.7,813.7h-14.2c0.1,4.4,2.1,7.1,6,7.1c2.6,0,4.2-1.1,4.7-2.9h3.2c-0.6,3.2-3.3,5.6-7.9,5.6   c-5.8,0-9.1-4.3-9.1-10s3.3-9.6,9-9.6c5.5,0,8.2,4.1,8.3,8.7V813.7z M1098.7,811.1h10.8c-0.2-2.4-2-4.4-5.1-4.4   C1100.9,806.7,1099.1,808.7,1098.7,811.1z"
   id="path1635" />
	<path
   class="st3"
   d="M956.4,851.2l2.1,0.3c3.3,0.6,5.3,2.2,5.3,5.6c0,3.1-2.6,5.8-7.7,5.8c-5.3,0-7.9-2.3-8.3-5.9h3.2   c0.3,2.1,2.1,3.1,5,3.1c2.8,0,4.7-1,4.7-3c0-1.6-1-2.5-3.4-2.9l-4.2-0.7c-2.7-0.5-4.5-1.9-4.5-4.7c0-3.1,2.3-5.5,7.4-5.5   c4.4,0,7,2.1,7.4,5.3h-3.1c-0.3-1.8-2-2.6-4.4-2.6s-4,0.9-4,2.5c0,1.4,0.9,2,2.8,2.3L956.4,851.2z"
   id="path1637" />
	<path
   class="st3"
   d="M971.5,843.9v2h0.8c1-1.3,2.8-2.5,5.8-2.5c5.1,0,8.2,4.3,8.2,9.8c0,5.6-3,9.8-8.2,9.8c-3,0-4.7-1.1-5.7-2.5   h-0.8v9.4h-3.1v-26H971.5z M971.6,853.2c0,3.7,1.7,7.1,5.8,7.1c3.7,0,5.7-2.9,5.7-7.1c0-4.1-2-7.1-5.7-7.1   C973.3,846.2,971.6,849.6,971.6,853.2z"
   id="path1639" />
	<path
   class="st3"
   d="M1007.4,853.2h-14.2c0.1,4.4,2.1,7.1,6,7.1c2.6,0,4.2-1.1,4.7-2.9h3.2c-0.6,3.2-3.3,5.6-7.9,5.6   c-5.8,0-9.1-4.3-9.1-10s3.3-9.6,9-9.6c5.5,0,8.2,4.1,8.3,8.7V853.2z M993.4,850.6h10.8c-0.2-2.4-2-4.4-5.1-4.4   C995.6,846.2,993.8,848.2,993.4,850.6z"
   id="path1641" />
	<path
   class="st3"
   d="M1028.1,856.9c-0.7,3.7-3.5,6.1-7.8,6.1c-5.8,0-9.1-4.3-9.1-9.8c0-5.6,3.3-9.8,9.1-9.8c4.4,0,7.1,2.4,7.7,5.9   h-3.1c-0.6-1.9-2-3.1-4.6-3.1c-4.2,0-5.9,3.3-5.9,7s1.7,7.1,5.9,7.1c2.7,0,4.2-1.3,4.7-3.4H1028.1z"
   id="path1643" />
	<path
   class="st3"
   d="M1032.8,839.1v-3.4h3.3v3.4H1032.8z M1036,862.5h-3.1v-18.6h3.1V862.5z"
   id="path1645" />
	<path
   class="st3"
   d="M1046.5,846.6v15.9h-3.1v-15.9h-3.2v-2.7h3.2v-2.1c0-4.3,2.4-6.1,6.4-6.1h1.8v2.7h-1.8c-2.5,0-3.3,1.6-3.3,3.5   v2h5.1v2.7L1046.5,846.6L1046.5,846.6z M1055.3,839.1v-3.4h3.3v3.4H1055.3z M1058.5,862.5h-3.1v-18.6h3.1V862.5z"
   id="path1647" />
	<path
   class="st3"
   d="M1080.9,853.2h-14.2c0.1,4.4,2.1,7.1,6,7.1c2.6,0,4.2-1.1,4.7-2.9h3.2c-0.6,3.2-3.3,5.6-7.9,5.6   c-5.8,0-9.1-4.3-9.1-10s3.3-9.6,9-9.6c5.5,0,8.2,4.1,8.3,8.7V853.2z M1066.9,850.6h10.8c-0.2-2.4-2-4.4-5.1-4.4   C1069.1,846.2,1067.3,848.2,1066.9,850.6z"
   id="path1649" />
	<path
   class="st3"
   d="M1102.5,835.6v26.9h-3v-2h-0.8c-1,1.3-2.8,2.5-5.8,2.5c-5.1,0-8.2-4.3-8.2-9.8c0-5.6,3-9.8,8.2-9.8   c3,0,4.7,1.1,5.7,2.5h0.8v-10.2h3.1V835.6z M1099.4,853.2c0-3.7-1.7-7.1-5.8-7.1c-3.7,0-5.7,2.9-5.7,7.1c0,4.1,2,7.1,5.7,7.1   C1097.7,860.3,1099.4,856.9,1099.4,853.2z"
   id="path1651" />
	<path
   class="st3"
   d="M958.8,892.7h-14.2c0.1,4.4,2.1,7.1,6,7.1c2.6,0,4.2-1.1,4.7-2.9h3.2c-0.6,3.2-3.3,5.6-7.9,5.6   c-5.8,0-9.1-4.3-9.1-10s3.3-9.6,9-9.6c5.5,0,8.2,4.1,8.3,8.7V892.7z M944.8,890h10.8c-0.2-2.4-2-4.4-5.1-4.4   C947,885.6,945.2,887.7,944.8,890z"
   id="path1653" />
	<path
   class="st3"
   d="M971,894.2h-1.3L965,902h-3.4l5.8-9.5l-5.2-9.1h3.3l4.3,7.4h1.3l4.4-7.4h3.3l-5.3,9l5.8,9.7h-3.6L971,894.2z"
   id="path1655" />
	<path
   class="st3"
   d="M998.8,896.4c-0.7,3.7-3.5,6.1-7.8,6.1c-5.8,0-9.1-4.3-9.1-9.8c0-5.6,3.3-9.8,9.1-9.8c4.4,0,7.1,2.4,7.7,5.9   h-3.1c-0.6-1.9-2-3.1-4.6-3.1c-4.2,0-5.9,3.3-5.9,7s1.7,7.1,5.9,7.1c2.7,0,4.2-1.3,4.7-3.4H998.8z"
   id="path1657" />
	<path
   class="st3"
   d="M1019.7,892.7h-14.2c0.1,4.4,2.1,7.1,6,7.1c2.6,0,4.2-1.1,4.7-2.9h3.2c-0.6,3.2-3.3,5.6-7.9,5.6   c-5.8,0-9.1-4.3-9.1-10s3.3-9.6,9-9.6c5.5,0,8.2,4.1,8.3,8.7V892.7z M1005.6,890h10.8c-0.2-2.4-2-4.4-5.1-4.4   C1007.9,885.6,1006,887.7,1005.6,890z"
   id="path1659" />
	<path
   class="st3"
   d="M1027.6,883.4v2h0.8c1-1.3,2.8-2.5,5.8-2.5c5.1,0,8.2,4.3,8.2,9.8c0,5.6-3,9.8-8.2,9.8c-3,0-4.7-1.1-5.7-2.5   h-0.8v9.4h-3.1v-26H1027.6z M1027.7,892.7c0,3.7,1.7,7.1,5.8,7.1c3.7,0,5.7-2.9,5.7-7.1c0-4.1-2-7.1-5.7-7.1   C1029.4,885.6,1027.7,889,1027.7,892.7z"
   id="path1661" />
	<path
   class="st3"
   d="M1056.3,883.4v2.7h-4.7v10.2c0,1.9,0.8,2.8,3.3,2.8h1.4v2.8h-1.4c-4,0-6.4-1.3-6.4-5.2V886h-3.2v-2.7h3.2v-5.6   h3.1v5.6h4.7V883.4z"
   id="path1663" />
	<path
   class="st3"
   d="M1061.5,878.5v-3.4h3.3v3.4H1061.5z M1064.7,902h-3.1v-18.6h3.1V902z"
   id="path1665" />
	<path
   class="st3"
   d="M1088.1,892.7c0,5.5-3.4,9.8-9.2,9.8c-5.8,0-9.2-4.3-9.2-9.8s3.3-9.8,9.2-9.8   C1084.7,882.9,1088.1,887.2,1088.1,892.7z M1085,892.7c0-3.7-1.9-7.1-6-7.1s-6,3.4-6,7.1c0,3.7,1.9,7.1,6,7.1   C1083,899.8,1085,896.4,1085,892.7z"
   id="path1667" />
	<path
   class="st3"
   d="M1106.5,902v-11.2c0-3.4-1.6-5.1-4.7-5.1c-3.3,0-5.5,2.9-5.5,6.2V902h-3.1v-18.6h3v2h0.8   c1-1.4,3.1-2.5,5.6-2.5c4.6,0,7.1,2.8,7.1,7.3V902H1106.5z"
   id="path1669" />
</g>
<rect
   x="903.1"
   y="732.9"
   transform="matrix(0.7071 0.7071 -0.7071 0.7071 903.965 -474.1647)"
   class="st0"
   width="242.4"
   height="242.4"
   id="rect1673" />
<path
   style="fill:none;stroke:#007bff;stroke-width:2.5;stroke-linecap:butt;stroke-linejoin:miter;stroke-opacity:1;marker-end:url(#marker7438);stroke-miterlimit:4;stroke-dasharray:none"
   d="M 768.20971,1183.4582 446.39213,1474.1321"
   id="path7434"
   inkscape:connector-curvature="0" /></svg>