<?xml version="1.0" encoding="utf-8"?>
<!-- Generator: Adobe Illustrator 20.1.0, SVG Export Plug-In . SVG Version: 6.00 Build 0)  -->
<svg version="1.1" id="Layer_1" xmlns="http://www.w3.org/2000/svg" xmlns:xlink="http://www.w3.org/1999/xlink" x="0px" y="0px"
	 viewBox="0 0 1474 806" style="enable-background:new 0 0 1474 806;" xml:space="preserve">
<style type="text/css">
	.st0{fill:#082E51;}
	.st1{fill:#007BFF;}
	.st2{fill:none;stroke:#082E51;stroke-width:4;stroke-miterlimit:10;}
	.st3{fill:none;stroke:#007BFF;stroke-width:4;stroke-miterlimit:10;}
	.st4{fill:none;stroke:#000000;stroke-width:4.1704;stroke-miterlimit:10;}
</style>
<g>
	<path class="st0" d="M358,374.7v4.8h-5.9v10.1h-5.3v-10.1h-21.3v-6.1l19-26.8h7.6v28.1H358z M346.9,374.7v-22.1h-1.4l-14.3,20.7
		v1.4H346.9z"/>
	<path class="st0" d="M364.6,389.6v-7.1h6.4v8.3l-3.4,5.9h-3.3l3.4-5.9v-1.2L364.6,389.6L364.6,389.6z"/>
	<path class="st0" d="M405.7,346.6v6l-10.8,9.2v1.3c7.4,0.2,12.8,4.8,12.8,13.1c0,8.9-6.4,14.2-15.2,14.2c-8.7,0-14.6-5.5-15.1-12.8
		h5.4c0.5,4.9,4.5,8.1,9.6,8.1c5.9,0,9.8-3.5,9.8-9.4c0-5.7-3.4-9.2-9.7-9.2c-1.5,0-2.8,0.1-3.7,0.4v-5.7l10.5-9.1v-1.4h-18.8v-4.7
		H405.7z"/>
</g>
<g>
	<path class="st0" d="M502.2,344.8h-53.8V337h53.8V344.8z M502.2,366h-53.8v-7.8h53.8V366z"/>
</g>
<g>
	<path class="st0" d="M303.3,364.2h-25.1l-5.9,17.6h-7.4l19.8-57.2h12.2l19.9,57.2h-7.5L303.3,364.2z M280.4,357.6H301l-8.7-25.7
		h-3.2L280.4,357.6z"/>
</g>
<g>
	<path class="st0" d="M661.1,138.7c3.9,1.3,9.2,6.2,9.2,14c0,9.8-8.3,17.1-21.3,17.1c-12.9,0-21.3-7.4-21.3-17.1
		c0-7.7,5.2-12.7,9.2-14v-1.8c-3.1-1.3-7.4-5.6-7.4-12.4c0-9.3,8.1-15.7,19.5-15.7s19.5,6.4,19.5,15.7c0,6.6-4.4,11-7.4,12.4V138.7z
		 M663,152.1c0-7-5.3-11.1-14-11.1s-14,4.1-14,11.1c0,6.8,5.3,11.3,14,11.3C657.7,163.4,663,158.9,663,152.1z M636.7,124.9
		c0,6.3,5.5,9.8,12.3,9.8c6.7,0,12.3-3.4,12.3-9.8s-5.5-9.7-12.3-9.7C642.3,115.2,636.7,118.6,636.7,124.9z"/>
</g>
<g>
	<path class="st0" d="M668.9,289.4c0,12.8-8.2,21-20.2,21c-12.9,0-19.8-7.6-20.5-17.6h7.3c0.9,7.3,5.7,11,12.9,11
		c7.8,0,13.1-5.4,13.1-14.1c0-8.1-5-13.8-12.9-13.8c-5.3,0-9.2,1.8-11.7,5.5h-7.4l2.6-31h33.6v6.4H638l-1.3,17h1.8
		c2.7-2.4,5.9-4.1,11.3-4.1C661.8,269.8,668.9,278.5,668.9,289.4z"/>
</g>
<g>
	<path class="st0" d="M873.4,425.8v6.6h-8.1v13.8h-7.2v-13.8H829V424l26-36.6h10.3v38.5h8.1L873.4,425.8L873.4,425.8z M858.2,425.8
		v-30.2h-1.8l-19.6,28.3v1.8h21.4L858.2,425.8L858.2,425.8z"/>
</g>
<g>
	<path class="st0" d="M1077.3,567.6v6.6h-8.1V588h-7.2v-13.8h-29.1v-8.4l26-36.6h10.3v38.5L1077.3,567.6L1077.3,567.6z
		 M1062.1,567.6v-30.2h-1.8l-19.6,28.3v1.8h21.4V567.6z"/>
</g>
<g>
	<path class="st0" d="M1033.3,129.1c0-11.2,7.5-20.3,20-20.3s21.6,7.7,21.6,28.9c0,17.9-7,32.2-22.4,32.2c-10,0-16.3-6-17.7-14h7.3
		c1.4,5,4.6,7.5,10.3,7.5c9.4,0,14.8-8,15.2-20.8h-1.8c-2,2.4-6.7,5.7-13.8,5.7C1041.3,148.2,1033.3,140.3,1033.3,129.1z
		 M1040.7,128.7c0,8.7,5.7,13,12.9,13c7.1,0,12.8-4.5,12.8-12.9c0-8.6-5.8-13.4-12.9-13.4S1040.7,120,1040.7,128.7z"/>
</g>
<g>
	<path class="st0" d="M612.1,439.5h14V395h-1.7l-12.4,8.3v-7.7l12.3-8.3h9.2v52.3h12.9v6.6h-34.2L612.1,439.5L612.1,439.5z"/>
	<path class="st0" d="M654,403.5c0.7-11.8,9.2-17.4,19.6-17.4c11,0,19.1,6.1,19.1,17.9c0,8-6.1,15.5-13,21.3l-14.8,12.4v1.8h29.7
		v6.6h-40.4v-8.3l8.7-7.1c4.7-3.8,10.3-8.5,13.4-11.3c4-3.6,9.2-8.4,9.2-15.4c0-7.4-4.7-11.3-11.9-11.3c-6.6,0-11.3,3.4-12,10.8H654
		z"/>
</g>
<g>
	<path class="st0" d="M806.5,126.2c0.7-11.8,9.2-17.4,19.6-17.4c11,0,19.1,6.1,19.1,17.9c0,8-6.1,15.5-13,21.3l-14.8,12.4v1.8H847
		v6.6h-40.4v-8.3l8.7-7.1c4.7-3.8,10.3-8.5,13.4-11.3c4-3.6,9.2-8.4,9.2-15.4c0-7.4-4.7-11.3-11.9-11.3c-6.6,0-11.3,3.4-12,10.8
		C814,126.2,806.5,126.2,806.5,126.2z"/>
	<path class="st0" d="M855.9,162.3h14v-44.5h-1.7l-12.4,8.3v-7.7l12.3-8.3h9.2v52.3h12.9v6.6H856L855.9,162.3L855.9,162.3z"/>
</g>
<g>
	<path class="st0" d="M807,581.3h14v-44.5h-1.7l-12.4,8.3v-7.7l12.3-8.3h9.2v52.3h12.9v6.6H807V581.3z"/>
	<path class="st0" d="M890,568c0,12.8-8.2,21-20.2,21c-12.9,0-19.8-7.6-20.5-17.6h7.3c0.9,7.3,5.7,11,12.9,11
		c7.8,0,13.1-5.4,13.1-14.1c0-8.1-5-13.8-12.9-13.8c-5.3,0-9.2,1.8-11.7,5.5h-7.4l2.6-31h33.6v6.4h-27.7l-1.3,17h1.8
		c2.7-2.4,5.9-4.1,11.3-4.1C882.8,548.3,890,557,890,568z"/>
</g>
<g>
	<path class="st0" d="M627.8,545.3c0.7-11.8,9.2-17.4,19.6-17.4c11,0,19.1,6.1,19.1,17.9c0,8-6.1,15.5-13,21.3l-14.8,12.4v1.8h29.7
		v6.6H628v-8.3l8.7-7.1c4.7-3.8,10.3-8.5,13.4-11.3c4-3.6,9.2-8.4,9.2-15.4c0-7.4-4.7-11.3-11.9-11.3c-6.6,0-11.3,3.4-12,10.8H627.8
		z"/>
</g>
<g>
	<path class="st0" d="M830.2,266.7c0.7-11.8,9.2-17.4,19.6-17.4c11,0,19.1,6.1,19.1,17.9c0,8-6.1,15.5-13,21.3L841,301v1.8h29.7v6.6
		h-40.4V301l8.7-7.1c4.7-3.8,10.3-8.5,13.4-11.3c4-3.6,9.2-8.4,9.2-15.4c0-7.4-4.7-11.3-11.9-11.3c-6.6,0-11.3,3.4-12,10.8H830.2z"
		/>
</g>
<g>
	<path class="st0" d="M1018.4,302.8h14v-44.5h-1.7l-12.4,8.3v-7.7l12.3-8.3h9.2v52.3h12.9v6.6h-34.2v-6.7L1018.4,302.8L1018.4,302.8
		z"/>
	<path class="st0" d="M1060.8,302.8h14v-44.5h-1.7l-12.4,8.3v-7.7l12.3-8.3h9.2v52.3h12.9v6.6h-34.2v-6.7L1060.8,302.8L1060.8,302.8
		z"/>
</g>
<g>
	<path class="st0" d="M1018.4,448.5h14V404h-1.7l-12.4,8.3v-7.7l12.3-8.3h9.2v52.3h12.9v6.6h-34.2v-6.7L1018.4,448.5L1018.4,448.5z"
		/>
	<path class="st0" d="M1060.8,448.5h14V404h-1.7l-12.4,8.3v-7.7l12.3-8.3h9.2v52.3h12.9v6.6h-34.2v-6.7L1060.8,448.5L1060.8,448.5z"
		/>
</g>
<g>
	<path class="st0" d="M1249.9,110.8c13.9,0,21.6,7.1,21.6,19.1c0,8.1-3.4,13.9-10,16.8l10.5,29.7h-8.5l-9.8-27.7
		c-1.7,0.2-3.6,0.3-5.3,0.3h-19.1v27.5h-8.3v-65.6h28.9L1249.9,110.8L1249.9,110.8z M1248.7,141.5c10.6,0,14.4-4.4,14.4-11.7
		s-3.9-11.8-14.4-11.8h-19.6v23.4h19.6V141.5z"/>
	<path class="st0" d="M1327.1,153.2c0,13.7-8.4,24.3-22.8,24.3c-14.5,0-22.8-10.7-22.8-24.3c0-13.7,8.3-24.3,22.8-24.3
		C1318.7,128.8,1327.1,139.5,1327.1,153.2z M1319.3,153.2c0-9.1-4.8-17.5-15-17.5c-10.3,0-15,8.4-15,17.5s4.7,17.5,15,17.5
		C1314.5,170.7,1319.3,162.3,1319.3,153.2z"/>
	<path class="st0" d="M1367.8,145.2l7.7,22.9h2l5.3-38h7.5l-6.7,46.3h-11.9l-8.1-23.4h-1.9l-8.1,23.4h-12.1L1335,130h7.5l5.5,38h2
		l7.9-22.9L1367.8,145.2L1367.8,145.2z"/>
	<path class="st0" d="M1399,169.2h15.2v-48.7h-1.8l-13.5,9.1v-8.4l13.4-9.1h10v57.1h14v7.2H1399V169.2z"/>
</g>
<g>
	<path class="st1" d="M722,736.8c-2.5,11.1-11,18.9-24.8,18.9c-18.7,0-28.9-13.8-28.9-32.4c0-18.6,10.4-32.4,29-32.4
		c12.7,0,21.5,6.7,24,17.5H713c-2.4-6.7-7-10.3-15.7-10.3c-14.5,0-21,12-21,25.2c0,13.3,6.4,25.2,20.9,25.2
		c8.8,0,14.5-4.5,16.5-11.7H722z"/>
	<path class="st1" d="M773.5,732.5c0,13.1-8,23.2-21.7,23.2c-13.8,0-21.7-10.2-21.7-23.2s7.9-23.2,21.7-23.2
		S773.5,719.4,773.5,732.5z M766.1,732.5c0-8.7-4.6-16.7-14.3-16.7c-9.8,0-14.3,8.1-14.3,16.7s4.5,16.7,14.3,16.7
		C761.5,749.2,766.1,741.1,766.1,732.5z"/>
	<path class="st1" d="M791.8,690.9v63.7h-7.4v-63.7H791.8z"/>
	<path class="st1" d="M812.2,710.4v26.5c0,8.1,3.8,12.2,11.2,12.2c7.8,0,13.1-6.7,13.1-14.7v-23.9h7.4v44.2h-7.2V750h-1.9
		c-2.5,3.4-7.4,5.9-13.3,5.9c-10.9,0-16.8-6.7-16.8-17.3v-28h7.5V710.4z"/>
	<path class="st1" d="M918.4,726v28.6H911v-27.8c0-7.3-2.8-10.9-8.5-10.9c-6.9,0-10.8,5.3-10.8,12.8v25.8h-7.4V727
		c0-7.3-2.9-11-8.4-11c-7.4,0-10.9,6.2-10.9,14.2v24.4h-7.4v-44.2h7.2v4.3h1.9c2.2-3.4,5.6-5.4,11.2-5.4c5.3,0,9.3,1.9,11.7,5.9h1.9
		c2.7-3.9,6.9-5.9,12.4-5.9C914.1,709.3,918.4,715.8,918.4,726z"/>
	<path class="st1" d="M963.1,754.5V728c0-8.1-3.8-12.2-11.2-12.2c-7.9,0-13.1,6.9-13.1,14.7v23.9h-7.4v-44.2h7.2v4.7h1.9
		c2.5-3.4,7.4-5.9,13.3-5.9c10.9,0,16.8,6.7,16.8,17.3v28h-7.5V754.5z"/>
	<path class="st1" d="M980.9,710.1c0.7-12.3,9.5-18.1,20.4-18.1c11.5,0,19.9,6.4,19.9,18.7c0,8.3-6.3,16.1-13.6,22.2l-15.4,13v1.9
		h30.9v6.8H981v-8.7l9-7.4c4.9-3.9,10.7-8.8,13.9-11.8c4.2-3.8,9.5-8.8,9.5-16c0-7.7-4.9-11.8-12.4-11.8c-6.9,0-11.7,3.6-12.5,11.3
		h-7.6V710.1z"/>
</g>
<g>
	<path class="st0" d="M31.3,319.1h11.1l13.3,24.8h1.6l13.1-24.8h11.2V372h-6.5v-45.3h-1.6l-13.6,25.1h-7l-13.6-25.1h-1.6V372h-6.5
		L31.3,319.1L31.3,319.1z"/>
	<path class="st0" d="M117.5,368.1h-1.6c-2.3,2.9-6.3,4.9-11.6,4.9c-8.6,0-13.4-5.8-13.4-12.1c0-6,3.9-12.4,14.3-12.4h12.1V347
		c0-4.5-2.6-7.8-9.1-7.8c-5.6,0-8.4,2.1-8.7,5.4h-6.3c0.5-6.9,6.4-10.9,14.8-10.9c9.4,0,15.4,4.5,15.4,12.9V372h-5.9
		C117.5,372,117.5,368.1,117.5,368.1z M117.3,356.9v-3.4h-11.2c-6.1,0-9,2.7-9,7.1c0,4.2,3.1,6.9,8.7,6.9
		C112.1,367.5,117.3,362.8,117.3,356.9z"/>
	<path class="st0" d="M152.4,334.7v5.5H143v20.5c0,3.8,1.6,5.7,6.7,5.7h2.7v5.6h-2.9c-8.1,0-12.8-2.5-12.8-10.4v-21.4h-6.4v-5.5h6.4
		v-11.3h6.3v11.3L152.4,334.7L152.4,334.7z"/>
	<path class="st0" d="M183.5,340.6h-3.1c-7.4,0-11.9,4.5-11.9,12.7V372h-6.3v-37.3h6.1v4.4h1.6c1.9-2.3,5.4-4.4,10.8-4.4h2.8
		L183.5,340.6L183.5,340.6z"/>
	<path class="st0" d="M191,325v-6.8h6.7v6.8H191z M197.5,372h-6.3v-37.3h6.3V372z"/>
	<path class="st0" d="M224.9,356.4h-2.7l-9.5,15.6h-6.9l11.6-19.1L207,334.7h6.7l8.6,14.8h2.7l8.7-14.8h6.6l-10.6,18l11.6,19.3h-7.1
		L224.9,356.4z"/>
</g>
<path class="st2" d="M896.3,656h-92.7c-12.5,0-22.7-10.2-22.7-22.7V58.7c0-12.5,10.2-22.7,22.7-22.7h92.7
	c12.5,0,22.7,10.2,22.7,22.7v574.7C919,645.8,908.8,656,896.3,656z"/>
<path class="st3" d="M602.6,200.7v-97c0-11.3,9.2-20.5,20.5-20.5h465.1c11.3,0,20.5,9.2,20.5,20.5v97c0,11.3-9.2,20.5-20.5,20.5
	H623.1C611.7,221.2,602.6,212,602.6,200.7z"/>
<path class="st4" d="M579.4,98.8l-12.3,30.6c-4.8,11.9-7.2,24.6-7.2,37.4v376.6c0,15.6,3.6,31.1,10.6,45.1l8.8,17.6"/>
<path class="st4" d="M1133.2,98.8l12.3,30.6c4.8,11.9,7.2,24.6,7.2,37.4v376.6c0,15.6-3.6,31.1-10.6,45.1l-8.8,17.6"/>
</svg>
